<mxfile host="app.diagrams.net" modified="2023-12-23T10:18:08.551Z" agent="Mozilla/5.0 (Windows NT 10.0; Win64; x64) AppleWebKit/537.36 (KHTML, like Gecko) Chrome/120.0.0.0 Safari/537.36" etag="g-j1VqdAj4G32ZC3fiKh" version="22.1.11" type="device">
  <diagram name="Provar Systems" id="Cbt3V6y36ORxRw6up7Z1">
    <mxGraphModel dx="1746" dy="1213" grid="1" gridSize="10" guides="1" tooltips="0" connect="1" arrows="1" fold="1" page="0" pageScale="1" pageWidth="1600" pageHeight="1200" background="#ffffff" math="0" shadow="0">
      <root>
        <mxCell id="0" />
        <mxCell id="1" parent="0" />
        <mxCell id="xoEMEb9Q6lRqkHzQhWVF-25" value="" style="rounded=0;whiteSpace=wrap;html=1;" parent="1" vertex="1">
          <mxGeometry x="80" y="738" width="80" height="120" as="geometry" />
        </mxCell>
        <mxCell id="uI3OphNUKf_lqw-jZ9q1-8" value="" style="rounded=0;whiteSpace=wrap;html=1;fillColor=none;strokeColor=#808080;dashed=1;movable=1;resizable=1;rotatable=1;deletable=1;editable=1;locked=0;connectable=1;" parent="1" vertex="1">
          <mxGeometry x="440" y="559" width="400" height="479" as="geometry" />
        </mxCell>
        <mxCell id="uI3OphNUKf_lqw-jZ9q1-1" value="App User" style="shape=umlActor;verticalLabelPosition=bottom;verticalAlign=top;html=1;outlineConnect=0;" parent="1" vertex="1">
          <mxGeometry x="100" y="748" width="40" height="80" as="geometry" />
        </mxCell>
        <mxCell id="uI3OphNUKf_lqw-jZ9q1-16" value="" style="shape=image;verticalLabelPosition=bottom;labelBackgroundColor=default;verticalAlign=top;aspect=fixed;imageAspect=0;image=data:image/png,iVBORw0KGgoAAAANSUhEUgAAB4AAAATbCAMAAABP3VhdAAAABGdBTUEAALGPC/xhBQAAAAFzUkdCAK7OHOkAAAMAUExURUxpcV5iZupDNXp/hl9jaEKF9F5iZ19jaF5iZ2t+hoGHjnuAhmZrcGJma4qQlV5iZ5mfpWJnbIWLkl5iZ2ZrcF5iaF5iZ+lCNDSoU36DiuOsYF5iZ4KHjn6DinuAh19jaIeNlIGHjl5iZ19jaGZqb4SKkWNnbICFjEGE82Zqb1q3/2JnbGVpb15iZ2Vpb2Vpb2dscV5iZ1Sr//q7BDOnUkSK92BlakLYakjqc0aP+DauVmRobWJnbP/PIje0WVm1/2RobWVpb0KF9WNnbf9eSulCNPu7BGJnbOtDNGhscv3EBUGE9GZqcGdrcf/6BkGE9GJnbGRobWZqcGVqb2hscv9aR15iZ2BkaV/B/+lCNGJmbGZqb/y9BP/6Bl5iZ0GF9fu8BGhscmdrcV9jaF9jaGNobVav/2dscWZqb2luc0aN+WhscUGE80KF9f9aR1iz/2ZqcGBkaWtwdmJma2htcmhscetDNfu8BWVqb/9bR2Zqb//5Bl9jaGVqb+tDNV1hZmVqb2twdWJma/y8BGdscWhtcmltc2hscvNJO/3LBUeP+mVpb0eQ+UaN+EeR+vVJOkeP+jOoU0SK90eP+f/7Bvy8BGtwdv3IBUWN+P/1BfJHOPNIOPvNBvJHOPFIN/7OBWJma2VpbkWM+F9jaPRKOkaO+f3HBf7PBUWM+GVpb/7OBfNIOP3IBfVJOu9FNmJma/3JBUOH9fJHOETfbv3JBf3JBf7OBUSK9/FGN0WL9/RIOTWsVf3FBf3KBWxwdkOI9vNHOPBFN/VJOvu8BfNHOfy8BP7NBTe1Wf3DBfdLOzavVv3LBUG3VjawV0iT+zezWDm5W0aP+TavVvBFN/VJOl9jaD6NzN1HQl1hZkOY2H1tr0GT0z6Ny/+GNqaocYNnafmGI2R1cF9jaEKF9Pu8BepDNTSoU15iZ0GE8/u8Bfu7Bfq7BOpBNDOnUTCnVDSmWT+NzMW2GkKpTetKMXxtruxBMkGF9d9HQPu9BPefD/ODG+9kJ/muCvBzIfaUFD+OzPwRGJsAAADldFJOUwD6/g/9/vT+/gEQCsLuBPACewr8he7z/v4VAfYHEg3sBgz56UYPPRj8IRC4Hd3tJDjYDvz7uMYOEO64jKgE7ghao+2bB/b2lPAsIPUygAjxeEyUzUcQ59IE+7nb7BDk5/FEcuD1ahZUsT8fKfncFQu8v2qyL2Lpv+QMJw3MZN/9wEzg3TucZHclnigaSJ1iQDbt04QU51slPRjthGZ3ljvR1ZHjHVh2Rq3ZLaSQMtTUrsLCCOrWV3uza1rXuIGkytzOTcZlzkxExWqiwR58b2EwwYq5cfj+/vTu2bj7EhBdOS////1gQp/vAAAgAElEQVR42uzVqw3DMBRA0YxgnF3CvELXCPcU4XlSNwgJDKw6WH5SC6oEVCmpziG2/CGP3KoCAAAAAAAAAAAAAAAAAAAAAAAAAAAAAAAAAAAAAAAAAAAAAAAAAAAAAAAAAAAAAAAAAAAAAAAAAAAAAAAAAAAAAAAAAAAAAAAAAAAAAAAAAAAAAAAAAAAAAAAAAAAAAAAAAAAAAAAAAAAAAAAAAAAAAAAAAAAAAAAAAAAAAAAAAAAAAAAAAAAAAAAAAAAAAAAAAAAAAAAAAAAAAAAAAAAAAAAAAAAAAAAAAAAAAAAAAAAAAAAAAAAAAAAAAAAAAAAAAAAAAAAAAAAAAAAAAAAAAAAAAAAAAAAAAAAAAAAAAAAAAAAAAAAAAAAAAAAAAAAAAAAAAAAAAAAAAAAAAAAAAAAAAAAAAAAAAAAAAAAAAAAAAAAAAAAAAAAAAAAAAAAAAAAAAAAAAAAAAAAAAAAAAAAAAAAAAAAAAAAAAAAAAAAAAAAAAAAAAAAAAAAAAAAAAAAAAAAAAAAAAAAAAAAAAAAAAAAAAAAAAAAAAAAAAAAAAAAAAAAAAAAAAAAAAAAAAAAAAAAAAAAAAAAAAAAAAAAAAAAAAAAAAAAAAAAAAAAAAAAAAAAAAAAAAAAAAAAAAAAAAAAAAAAAAAAAAAAAAAAAAAAAAAAAAAAAAAAAAAAAAAAAAAAAAAAAAAAAAAAAAAAAAAAAAAAAAAAAAPgn9SGzAYAfZPfqlwDASU9f25RLKbdDy2Vu0vuj4QHAV+3d19Rs2W2HboqIcdF/WE/vEc9H124pzkmGmdm7e9fG0TyA40HgIl06gf6C3JYLW5qBQQJBiqkM6yrdFMeNphOoUS2WnXiZ62KsYvFVxoZzc8HN2sZNmm0SWNjWCFxMd7t77el5JDt2Ji9+0Zul76cKSdiN1obv/h49jwwA2LO9dd0R4Z22/eHg+to0TcMwmiH1K+K74Q/DX7m+ngx77ZEI8UOG+S8KAMBr8V2115rO2sPxteiujG4gKYHyhPDbkoyxKPH1eOjfywyfEWEAALaIr2xvpzcR6RXhVeLoqg+5fWT1A3UZYxHisMPX45t2qxvOwkQYAIAX6qs7Vn/mh+01RHsV2Vb1yeg+Zz3EMsOmPenNPCIMAMDTZHx7Y9uM2rvq6F6WGQ7HYRFhc3xz71lRhGkwAABro+/IH5umsdbe4GBxhsUsbBjmuDfrNnSNBgMAIHMYjr6dm2sR3+Tau1Fh+Y8MI2zak/u+5dBgAAAFdqxWe2LLZefk4/tVhJvhIOzHDQYAoKr11a2WPxY3feNEBimK/w1iEKbBAIAK0xv9Tjj7yoVn9eEsb7oRlnN23GCxJ4sMAwCqNfw63duhHc2+KY++zzTYntx3nTqvBACgSsOv1erZZvb1XWuwuB9s96aWzqsBAKjO8DsxjZzqu9FgwxyEY7DGSjQAoOTtPTmpN/q+azTVHOu71mCxFO33G4zBAIBy51e3pjd2vsPvQ4GDeAy272asRAMASky3bidmAYbfx1uymuZg1nV4fQAApZx/w/yO4/wGhbEcg0233WUKBgCULb7h9Ou1x6Ya5bdAAZYRjlaiSTAAoIz5dQ21YNPvZoNXCWZHNACgJHTrdhDtvAoKaz3BAACUwJm491uknVcvJ/ieHdEAgDKwphNx71ctdn0fEmwOZhar0ACA46Y5/WG08zk4CvLhHObdtMGtYADAEdM93z6i/AryXLDt9zkWDAA42vHXunXF3qtjWH3eSHCgGG6bdWgAwHFyWkOzuAePXt2NNRDr0AAAHJl6tPpcvMdubPt0LNXueTpTMADguFgjefJXDY6UvBXs3lu8kgCAoxp/b45z9Xkzwap51+dQMADgiMZf90hXnx+vQzMEAwCObvwNjh5DMADgeDRKMP6uP5eDIRgAcATOPN8ux/i7NgT3PHZDAwAKzWlNjLKMv+tDcIsHYwEACszqlGr8fRiCbb/LqwsAKChN7r4q0/i72g6tGkP2YgEAClnfE701aKrHffb3uQSLIdgdsQwNACgg69aVy8/lC3BcYLvNbmgAQOF0eyVcft7Yi6Wadx6vMwCgWDy5+zkoMbEbesCNYABAkegtV1XLufz89Y1gzgQDAApBO2mU9/bv42Vom8diAQCKwmrbpdz9/PSN4B4nggEAhZh/l9uvqkCeCGYrFgCgAMq//WrzRnDQHHpnvOwAgNz721TLf/t3VeAvivLnb7//9D0vPAAgT2etSmy/WvkSBH/+74/zDz++4bUHAOSnLvqrVqW+q/7+tbi8+sirDwDIi17J/i7+WtRkgU95BwAA8uDcVrS/cwoMAMizv3ZF+1uLCvwN7wEAQF79rcz2q7X+zqMCv/30nncBAID+ZtffuMDvKDAAgP5m2d9VgVmFBgDQ3wz7u1yF/vVb3gsAAPqbXX+jAtc4DwwAyFB9Sn/ny73QFBgAkBH5/MnK95cCAwCypdHfjQL/i09mAABk0d++W5mPH3y5v3GBP/DZSACADHiTZjWffzV/vsBnvC0AAOmOvydd+rspLPDnH3hnAADSZfUMVaG/60Pwonb+77/zzgAApKnRNqt0A3iL/ooCzy94KCUAIE169AAO+rtZ4Nri3c88lBIAkJqKHUDasr/yNvDbqze8PwAAKfHo73NboWuXbIUGAKTV3wn9feEwEluhAQCpsHpGUJ0d0Dv0Nyrw+S9sxAIApEC/NSt0AGmn/kYbsS74dGAAQPLiDVj0l41YAIAseYMK3QDevb+iwDWeCg0ASJp10wzo78u3gec8EQsAkDCnY7L/6rUEiydicRsYAJAgrVWhJ2Dt2V+5EYvbwACAJFXpBvDe/Z1Hp4FPebsAABLSECeA6e92t4E5DQwASIg+sot0A1j5SjH6G38swz8/8o4BACTCK8YJ4OeCK76jJhTiw/orF6EvOYsEAEhEI/cTSKvwhn+EGmoKhiC+EN8JfydYdjjH/s45iwQASIo+yvUE0qq9oruGadqmPbgL9TohX3w1CL9lmmGMVXVV4bz6K24DX/z8Le8aAMDB8luAVpb1DdtrmLYdRnfU6luNiCPEX3utURhj2zaXFd4rwof3N7oNfPkji9AAgEPltwAdTb6qGrbXvelMPRFdva49+VfWdRFjr9XpDWSF40k4+/7K28Cf2QkNADhQPgvQYsVZ1rdp2AN/5In0Lv8iTXvU4LVv1EWFp+2hbYpJeLcGJ9Tf2ry2uGAnNADgQLksQMezbzj69mbeqr3aK39q3GFNdxreqOeahmjw1glOqL/shAYAJMHxs34ER3TjV9TX9afdhq5t0971DMcRtqa+aHCwZYOT66/YCf2P71iEBgAcoD7N/BEc0aYrw+6NrIdl533EDW5uNQYn2V+xCP3uV54JDQDYnzURO7CyzW+gGPbktntYfaNJWHe6s6EdjcGZ9Td+JjSHgQEA+w+R4kMIM1yAjtaebb9l6Sc7rTu/0OBG33eju8GZ9VcuQn/iMDAAYF/Z7sCK8ut2PKee5EWcOd3OwHwpwYn3l8PAAIBDOPJDkLLbeiXz2xXbrrREr0PTrZlMsKpk01/2YQEADulWK7sdWBv5TUGU4CB+nnTq/a2FI/DbK/ZhAQD2YQ0z24G1ym9a/y8hE+yK7VhqBv2VI/DiM/uwAAB7qMtnYClZrD6ritq0/bSm31WCu+0wweJWsJJ6f0WBL/7DCAwA2GMAHqvZDMDi4K994zlautcjEuz59uat4NT6K/ZhcRQJALA7/dZUsxp/jcG0kclFaY3WJFqHVlLub3QUiUdCAwB25Q0yGICjz++12916VpelWe2HITjN/sqjSD+c8kYCAOzEaWdxBEmOv5OWk+mV9YemLLCSan95GgcAYK8B2E39CJISqNH4e5btpYkhWAzeKfe3xggMACjiACz72xxkO/6uhmCxHVpJs7+MwACAgg7AqqKaN10tj8vTxHbotPvLCAwAKNwAHD160u5YeV1hY+aqv/1xnmJ/GYEBAIUbgOXys5LL8vOS3prI/tbmjMAAgIoMwLK/xp13lutV/u27i0Ut1QmYERgAsBNrnOoALPqrGr1uzld5+v7T23BGZQQGABREyg/BEv0NbN/K/0K/ubpcpFpgHocFANhtAE5xBTrq76iR/3Wenny8+pBqgWs8ERoAsP0ALD8GKdXjR/bIOdGKcK1vfkq5wHwoEgBgW400PwdYnD8K3JFTlIv9Pu0ChyPwe95TAIDXaS175wFYFb48Tfxoo7/qoK8X53JTL/Di3RUjMADgdU5vlzNIUXfll/99mvytKMTL/p4V6XpTLvBifv4LIzAA4HX/Z+9uXhrL0jiOh4Is3NVOyF8QsjS46EUQQs2lMRC3GUhIVlkEHXfdNIHZZDMRyxFNSMtkWpAplYwNClNKNRbFvCjCQEP/AbNKCu711q42VWoVc8+9SdSU7+U59yXfz6JepLq9hgs/nuc855y/3bEAtqN31Mnd09OTk5OPHz+aA86sr52cfDo9dYLYTuE//pzw1g/sJLDEHnTyxwyvFQDgFs/+eocCWISvXfOefjr5bMfusWlYPgwQX+tF8cmJHcPf/SL6zxEv/cjdBA7LKoFT7EQCANzKPoTjya3ha2WvE73HInaNrsEK2Ox+XfyLbgz/1Kjl0hFv/cxSE1gcxsFOJADALRL/unEPUjd8P518tNP1Yo17IW+NKwK5m8PHWvbl9vpqrZwOeagQnniRl5fAenvqFWNYAICb3TSC5aTvqRO+H87z1bjdcf+fmmZcK2T/sd1s1coRz2Tw7EJS1jqwOIxjiTEsAMDN/nTdCJZIX6v0/XxmHp+Hr3FPvf/GNK0QfrllFcIJj2RwbG3KSkrGsAAA7rhmBKuXvk7l+6DsvZTD9i9xLfuyurvikQXh4uZ0Ww9LG8PiTiQAwE3+8M/fv/2iAh4VneeL6Ws8ArNjZ3BB1MFpL5TBpZ1oW84yMAdCAwBucdUpWKL4Pf189qjpe14I23Xweivngb3Bc7K2A1v/V07DAgDc5IefBjrQo+9G374/6aev8di6GVzf3rDLYFdlnFFoGQncnt6kBw0AuJ69CfhS79kqfqWl74UM1gov1yfLLrehx5ZTcgax2AoMALjR5U3Advx+FPFryovf3nqwVQZXtlouR3DxN0nLwGwFBgDc5OImYBG/n8668WvIJr5DXKtXXY5gScvAVlkdfRPj/QIAXOO8A92NX7v3bKghDulwO4IzC0kpTWjRg57j/QIAXO3ZL90OdD9+TWXx2+tEuxzBMbEbmOMoAQBK9WagR0X8Gqrj92IEp13bF1yS1IS2e9AjvGMAgC9ERAf67ZO3o6Ni9MqN+O1GcFyrv550a1NS5kVSDz/+HJY4jpI5aADA1Qn8529Hn4y+e3v62bX47UdwpbniUglcHJfShOYsDgDAdX74y+9E+XtyZnxwL357jejC0UbOnY9hLi9jDouzOAAA19S/4hzod+9PncVfw12m0YnXq5OunE85sZeSUAKL86C5kxAAcJWfvxt973SfDddZj9DRKrs1Nz6H0lL08RNYLALP04MGAHzp2X++/XQm4vfY8AKxLTi733JhGEvOZmC9nVqb5S0DAAyIhP73d6+Uv/0INuOVpgtFsJQ5LLERqchGJADAoNxu3VPx2yuCtxvKx6Ez8xJKYNGDXmAVGAAwUAA3trJWxXlseIsYxqpslFV/GjEZJbBuJfDm3FPeNQDAufTqgWYem4bniCK4vrUShBLYSuDw9NI868AAgL5asxJ3biTyYgSb2lFL8YYkGSVwWCSwnl+mDQ0A6GpURfvZ8Ci7Db2rtg0tZxW4HdbD+tQmR1ICAIRE60DzcP5229Cv1bahY+OSbkUSbehF9gMDAELpw4ppeDl/nTZ0YbuhuATWZdwLbLehZxZivHcAMOxqzbrp8fh12tDav1vq9iONhIpL0baUBBZt6OQaO4IBYMiteHr593IburKq8FiszMKUlB5021kIfs5CMAAMtca2ZnZ8kL9OG7reLIeUVcGlGV3CpUi9heDUzhxvHwAMcf56fPzqywRWdzDl7FpKVglsJXA7urOY4QUEgOEUaR3EDd/kr7gm2MxWV5TVwHNJWSWwsxA8QwIDwHBKrFZMH8Wvk8AFVQk8Eoq9ibZlNaG7Ccx2JAAgf0ngQRPSxrD6CbzAuZQAQP76ZR1YXQKX8tLGsLoJnCeBAYD8JYEHjW1Ot0lgAAD5qziB5fagnQsKSWAAIH9J4EFye9D2diQrgZnEAoChEfFx/vYTWAG7B92WncDsRgKAocnflp/zt5vAKk7kmPhVcg/aTmD2AwPAsGgcxP2cv04Cv84p+KTkncVxOYGf8lICAPnrm1Mppd/MMBKKLelSe9DdSawlzoUGgCGwsq35PX+dBN6VfzeSOA9adgCH9XB0h7uRACDwalXN9/HrJHBlVfokdOaF5EVgJ4Hbqc0ibyYABFu6mTWNQCRwx6w0pH9cJdmLwHYCi/uBY7ybABBkicN6MPJX1MDxI8mbkcQicFR6D9peBk6yHRgAAs3nG5AGIliryh6FHnsufxHYHoUO5xmFBoAAC8AA9KVl4KzsUWjpO4EvbEZiFBoAAqtW1YKTvyKBjcpqQuon9nQxqctvQYsEbkfHGcQCgICyB7CCxDS0alnmJzYSin2jYAqrO4i1NsY7CgBB5O8ToK8ew/p+UupHpmoKq3sz0gvOpASAIArUArCS/LXEJN/HcDGBwywDA0AQ5bY08vfeZpdTagKYZWAACKjEbrAWgNXkr5qzsM6XgX9lNzAABE0jWAvAivI3lJlXMgbdXwbmakIACJjatkb+PkTxG2UBLJrQOzShASBQAtaAVpa/6vYh2cvAYX1qeZa3FQACJFgNaHX1rxXAvynah0QTGgACKBeoI7DU5a8dwNPqAritt6eZhAaA4EgcZln/fSAl1zFcakIzCQ0AgbHyMkh3ICnNX3UbgftN6JkSbywABEN6S6P/7JMAFk3o55wJDQDBEKRLgFXnr/IADof1/DxzWAAQBEGawFKev/ZRWCoDmM3AABAUQZrAUp+/ocy82gC257AWmMMCAP+r/TcwlyC5kL/KA5g5LAAISgG8W6D/7KsAbuvt1B4lMAD4XXC2ILmSv24EcJgSGAD8L90s0H/2WQDbJTBHQgMABfAw568rASxK4LkRXl4AoAAe3vx1JYDt0zgogQGAAniI89edABancbAKDAAUwEOcv+4EMIPQAOBztWAUwC7mr1sVMIPQAOBnAdkD7Gb+ulQBUwIDgL8L4EAcguVq/loBnBQFaVj1XuC2vsSJ0ADgU5FV1adAH3c6F//a6Zh+z99eBSyawipjOMyJ0ADgX2WV1yA52WuaZjwe1wTrd9P+7l+Xwi7nrxXA+enpaFTX9XA3hZVdivSGEhgA/GmybipLX5G9ca2QzVb29/fXLVv7+0fZbLagxU0nR/2Zv6GRub29zfHxpWRyKjWt68oy2Po+yR+5FxgA/Ci9rqYAPhY5KcJ3f/2wVctZ0pay+MPKarN6VC9oohQ2fZm/odDTidmxsVisODe/tzmTnJrWRTaGlYxhcRgHAPiS2IOkpPg144X60fpqrZxORAaeIWEF8cphtWJl8EPKYA/k73kQZ2bHiouvxvNWBqsogzmMAwB8KnGoYATLqn5NLXvUbOTSCfu7Ri5EcO/P6XJNZHD83mWwh/J3xDmaOTMxVloYz6fsMlh6CTz1ijEsAPAfBSNYVvUb1+pbrVxaRG3k6ueIOBk82TzK3jOCvVT/dmNY/DIxNrc2k9J10YgOy6yA29E3Md5jAPAd6SNYVvXb0Srrk+XErc8iQjhd29gXEWz6N3/7OTxb2ltK6ZLXgkUPepExLADwm3SzILcAtqI0Xl+fTEfu/EiJ3MZ+4c5FsHfzV0TwRHF5RjSidYlFsN5OrTGGBQB+k9vWZC/+1quN9P0eKlFrHmh3K4I9nb92BJfW8qIPLbUE5jQsAPAduR1oK0S1g9Vc5N6PlZ7cqt+lCPZ6/orl4NnFnSmZK8FsBQYAH0qvy+xAW/lbfz2ZeNCTlTfuUAR7Pn+dEC4u58XJHLISWGwFHuNdBgBfkdmBtsKzUzksP/TREpPV7C0J7I/8DYkieGlal5bA4lLCmDN6DQDwCYkdaNPoaN83El/xcLlm5cYE9k3+WkVwaXNKWgKLHjRz0ADgKxJnoM2OWdj6ynhMr96UwD7KX0tx7f/s3T9rW1kax/Hb3MLN4tL4FRiV0ZjJLGgNKlRYILUqJKxKhZHxC1DpKsIZEkvCMRgMAcfGuHBI7BAmJkVINsyfTLLFwNY3mHvnks3uvoK95+bPZpjYSPHzKPccfT9FyszNQfCb55znPGdJbReaPmgAsI3eDnQSm/XD/mW/r7Dz5Nyniu3KX8/Lfb+kVQObPmj2oAHAJv37sVr+Dk4aAl+4eV4C25a/U96qWgKbPeguv2YAsEfhWTPWy9+OyDeek8C25a+hl8DMgwYAu3QOdeZAx1FcF8rfcxLYxvxVTGA/aO9zEQkAbDHr9Y/zSkfAzcOG2Hdu/rkTy878/ZjAKvOgGYYFAPZY1HmJMI5Kl++/+uR/FP7UC21r/nperlf0NZ4IZhgWANikcKJyCUk8Hisngz8ksL3563mt6+VA/nGkpKouP+AiEgDYwhwBa7y/EK9tCn/oaTNyI389b/nuXBAqHALPzXMIDAB2mPUaP6kcAceDZwXhb9169P9GLLvz15u+taJwDGwOgbkJDAC2ULkFHEel0474px58PAa2PH89b+FFVeEY2EyjnOYnDQBWKOwp3AL+Pco/VcjHwknTkfz1vNZ8W34TmpvAAGAPnacI48FOQeFj++82oR3IX8/rKmxC+zxJCADW6FwrKRTApWsNla89GESO5K+32iuL70H7wdxjDoEBwAZaYzikO6A/1uunpSjvRP56XmtDvBPajINmFAcA2EGhByspgO9UlD53cS12JH+92vdV+RKYURwAYAmVHqx4TS0hkxL4tRv5q1ICh0F1ly4sALBBZVu8B0uzADYlsCv5q1EC+8zCAgBbAvi0pNACrRiRlWdbs64svimBffFZWDl+1QCQeRpzsJIC+LCj+M0Fd5Y/KYGF96B9P9ygDRoAbAhghSbouH4wy9IOZXkllN2Epg0aAKypgOWboPPPG6zscK6YV5Gk26C70ywsAGTfYj1+LbwD3dyusK7Dqe0WhUvgMOAeEgDYoLAn3QT9Oh5ssq7Dam2Esm1YPtOgAcCOAD5psgP9FYnvQXMPCQDsIH4LiR3okdR2q6HPcwwAQAAL7EDTAz2K1neyh8B+0J4ngAEg+xpHJfExlH2WdXi5V+3AF57EQQADQNZpzOHIP+IIeASrvbJsAPvhCpM4AGASA1hzDrSDaruyw7DMJA4CGACyH8DSg7B+j5rPCizsCLpF4S4sAhgArKiA78vO4aAHazRTXk66CyssLrOuADCJAdz3SOBRAlj4RaQ5RmEBwCQGcBQfNwjgkQJYvA2aAAaASQxgmqBHtHq7TAADAAFMAI89gHsEMABMIPHHkEqHHVaVAAYAXEz+MSSuARPAAIChApg5HF9Vbb1KAAMAAUwAjz+AiwQwAExkALMF/XUDeJcKGAAmMoBj4Qr4lAAeCWfAADCR+tLXkEpHdEETwACAi3EPmAAGABDAE+nKdQIYAAhggVnQa8yCHoH8LGgeYwCAiQzg9DUkjBLAK2Eg/Bxhd5qFBQALAjgSDuCdAgs7gpb8e8CtJNcBABkP4J/ysjvQUfOEe0gjqK0XQ8n8NQGcI4ABYOICmNcYRrTwsBqEkvlLAAPAhAZw/jldWCO4cr0t3AQdbhDAAJB9ncNSJHwIPFhkWYc15eU2hHuwgrn5HAsLAJlXORUO4DhqPqMLa3jdonAPVtCev8KyAkD2A/iO9HNIHAKPQvoIOAngcm+VdQWAzJN/DimKj5mFNbTcvuwRsAngBwusKwDYEMCx9CFw/YA96GEtL8nuQCcBXN0lgAHAAuLPIcXsQQ9PfAeaSZQAYAf5UVjpOGimUQ4pHQQtPYejxboCgAXkLwJHcXObYVhDmbpRlN6B9sMlrgEDgA0610rS+cuThMMyUzhkd6DNNWBuIQGADcQvApsIru/RhjUM8RYscw14nwAGABsUTuTvIVECD2e1Vw5C6QAuP+AaMABY4aAu3AZNCfz1CuAgDKrrNEEDgAVmzT2kiFPgr1YAy+avaYJeZmUBwIoAVmiDpgQextQN+QKYJmgAsIf4e0hpCRw/3WJpL2amUIoXwDRBA4A1KtviXVgmgkun3AW+UG3X3AGWroB5igEArDG7o9GFFcWDHTahL9JdCX3pApgeLACwKH81urDSPqznbEJfoJVuQMsfAdODBQDWaBzJHwKnm9CHdEKfa+FFUbwDy+xAhxv0YAGALcwsrFijD6vOSOjzTN/S2IA2R8C3OQIGAFvIPwn8PoGjtZ1ZlvczprzuhslfX+EIeJcjYACwhsohcFoDr22yup/L39bjOekZlBwBA4B9lA6BTSPWExL4c/l7vaxwAMwRMADYpnJH4yYwCXxh/sofAHMEDADW0XiPgQQ+j1r+cgQMAHaZ9frHKgUwCXxB/mrsQPvhEkfAAGATMw461ktgRmJ9oruvlb/J39lmEDQAWKVw0tQqgdNe6L0Oa2xMebUbj9ta+Wt2oB8usMoAYJOt+2oBnI6FvtNnjY0r6yuhr5W/Zge6yxoDgFU619T2oNMEbh5tsg3tea3eUlL++jr5a54ivJtjkQHAKpp70CaBX+fXTia+CF699bic5q8SdqABwEKae9DpVMq4fnRQMR3Xk6q2nJS/SteP6IEGAGup7kG/K4JLa6eLk/k4w1QSv60XK+Uw0Dr+TfOXHWgAsFBhr66Zv++K4NLT7a3KrDd5sxIXcuuvqqb7Sm37mR1oALBV/zgfRdoRnG8eb//87bQ3MRls/plTC60Xr4pzit1X7EADgGh83bQAACAASURBVMV0HgX+g9dxFP/nvzd/fHn13nSaTm6n8NT74rfb26i2091nVWHQvs4UDgCw0MEgVi+Bk/w9m/nm5g+/vLz67V8+5JSD3v/Taqu55Yf7S+U57d3n9y8RrjMHGgAsZN4kjNXz918zMzNvvrl584cff3159eq9e9PTTi5mLcne3PJ6b6OYFr/q8Zu2YG20+BUDgIV0rwJ/yN+zs5k3aQabEP7rP379exLD45Ibm+76bm8/Cd+k9k3TVzt+0x3o8gNasADASluqbVgf8jcxk2bw2Zs0hW/+bWz++d24FKvVcjsJ3/fpO4b8ZQwlANhLtQ3rk/x9l8EmhM9mzpIYHpe3v4VjY+ZCpuE7huz9UADfpgULACy1OBhX/n4I4Xe18Ji8/c0fmzD9Mxib5D+2dIsWLACwlN40rM/l77i9eftvUyi6KQza80zBAgBrHQwiZ/PX7QD2/eouBTAAUAJnMH+dDuAwCB9zBwkA7FXYq7ta/7odwBTAAGC5/qO8eAmckfx1OYApgAGAEjiz+etyAFMAAwAlcGbz1+EApgAGABdK4IGb9a/LAUwBDAAOaIg2Qmcof90NYApgAHCC5KuEWcpfVwPYTNziHUIAcEDnUKwEzlT+OlsBh0F7nyFYAOCAxbVYJoGzlb8OV8BMgQYAJ1TuNB2sf50NYJ5BAgBnmHeBY+fy19EADv1whXeAAcANItM4Mpe/TgaweXS4+mCB3ywAuKFxdOk+rOzlr5sVcBjM3eUKEgA4Y/OyfVgZzF83K2A6sADAKZftw8pi/joYwL7pwOqt8nsFAHdsXWokdCbz18UK2MzAWubXCgAuObjEJnQ289fFCtgPl5iBBQBuucQmdEbz17kA9rkCDAAu+uJN6Kzmr3sVcBjMsQENAO75wk3ozOavcwEc+iEd0ADgoMJJ3an8dS2AfTOCgw5oAHDQl7wMnOH8dSuAfUZwAIC7Fp+Megyc5fx1rAIOfZ8Z0ADgqNmdEY+BM52/bgVwyA0kAHBYZbs+SgJnO3+dCmBzANzjBhIAOKtxWHKl/nUrgMOgvf8/9u6ftY0zDuC4lhu8GI8iU0fh0bWxCZSAhwwRRKuHFnfyYCT8AvoKEmKw0oQ4kMngxnRK0CBMKJmKINg4ZOjSbilGaRF5Ce09J9txmz92sCPdc/f5DN5tH3z5Pfc8z3kBDFBgn3EaOO/9LU6Ak/AC2AlggGJ78Os5C5z7/hYmwFl/WxtTHk6AIjvvRqz897coAc76awMWQOF98/j+OQocQX8LMwH3k/7irhs4AArv5qOzCxxDfwszASdJY2vacwlQfN/98v0ZBY6ivwUJcBI+gWQDNEAp3Lv16QLH0d9iBDgJN1DaAA1QEg9vXY9+/i1GgPUXoEyuVB4++fh3GWLpbxECnPQT/QUoVYEffPS7DNH0twABNv8CKHB8/Y0/wOn827/rAg6AkgkFfj/BEfU3+gCH9efnGy7gAChfga+/txc6pv7GHmDrzwBldeO900hR9TfqAIf7J/UXoKwepgX+8+9Y+xtzgLP7n5v6C1DeAn/75l2BI+tvxAEO/e3Xd/QXoLTu/XT/ZAaOrb/xBjibfxvunwQosx8eHX+dMLr+Rhzg8P3BH/UXoNRuhu8Dv/krwv5GGuBk2N9t3z8CKLkrPw+PI0XX3zgDnC0/91sb1zx5AKV348n3MfY30gk47W/96e0Jjx0AYSvW16G/VQEewfJzf3HL9mcAMjcfp/2tVk3AIxh/k+Vdr38BOHJl72p7UB1UoxqCowtwGH+bz73+BeCUhf32YTWuITi2AIfdV4vrlp8B+I/53rPZuIbguAIcDh/VWk4fAfB/U3uv2oOYhuCoAhzG38bObR8fBOADQ/DBs9m0wINIhuBoApwcjb+7Lr8C4IMmwxAczTp0PAE+Gn/tvgLgo0NweBN8mA7BAnyJq8+vk6bxF4BPmtrbb88OqjEkOI4AZ6vPy1urSy6/AuBTJjovXxytQwvwpbz87Teebs54sAA4I8CViYXes3Y1/6eC8x7gLL+va/XW9orNzwCcx+RC2A+d9wTnO8BH02+z1V2VXwDOq7O3n+3GynODcx3gJEy//ebylr3PAJzfRGXiJMEDAb5AftfsvQLgMyOcJbgadkTn81xwbgMc1p7lF4CLJTg7lJTLleh8BjgMv0lSq7fkF4ALJHjhICQ4rETnrsH5C/Bw41WSNBt3u6vyC8BFdBZ6L9rZSnQYg6sCfNbw228uz22vXJNfAC40A1cqk/PDlejDnDU4XwHO6vs6HX5bWxvTDh4BcBkJnghj8HGDc7MWnZ8AJ8P69mv15fXtlbWl7I8GAJcgHYMPXrTTBg/XovMQ4ZwEeLjwnNa3sfx0d3XGsV8ALncMrnROGnyYiwiPP8DDyTf90W82FtP6Toc3v4ZfAC5dZz5biz41CI+xwmMNcHIqvvXF1s72sL4A8OUa/PLgJMKHY+zweAKcHKc3XLgRJt/lue7taSvPAHxZYcqbfBfh2ZDhw1MdHqHB29+SUatl5Q3pTQffRjr5djdXZtamPBcAjKbBWYT3evuhwiHDaYcHo5+A/wl3X4z4lsl+v1ZP07t4d6d7Z3V6Zm3p5E8CAKOJcFbhhZe9/VdXQ4eHJR6ht3/URqZZr2fdTcs7t969s7ly3F7xBWAsEa5MTXbSDs8v9Hq9/f20xSP0+9zorHe73e3NzdXptLzXlpYq4gvAWCt80qDJya86nazFIzMzMml1UyfhPf17A8A4OzxRmt/UfxsAAAAAAAAAAAAAAAAAAAAAAAAAAAAAAAAAAAAAAAAAAAAAAAAAAAAAAAAAAAAAAAAAAAAAAAAAAAAAAAAAAAAAAAAAAAAAAAAAAAAAAAAAAAAAAAAAAAAAAAAAAAAAAAAAAAAAAAAAAAAAAAAAAAAAAAAAAAAAAAAAAAAAAAAAAAAAAAAAAAAAAAAAAAAAAAAAAAAAAAAAAAAAAAAAAAAAAAAAAAAAAAAAAAAAAAAAAAAAAAAAAAAAAAAAAAAAAAAAAAAAAAAAAAAAAAAAAAAAAAAAAAAAAAAAAAAAAAAAAAAAAAAAAAAAAAAAAAAAAAAAAAAAAAAAAAAAAAAAAAAAAAAAAAAAAAAAAAAAAAAAAAAAAAAAAAAAAOBf9u6mp4m1D8C4pE3npoVOaTuT9HTGvlkbQkth4+awgLAgTSBRMDyJJiQgRAybo48mhkgA86gL964xrlz5Dc6Hmc18jWfumVoKtKWvMoTrtzkEPRqGOhf3zPT+AwAAAAAAAAAAAAAAAAAAAAAAAAAAAAAAAAAAAAAAAAAAAAAAAAAAAAAAAAAAAAAAAAAAAAAAAAAAAAAAAAAAAAAAAAAAAAAAAAAAAAAAAAAAAAAAAAAAAAAAAAAAAAAAAAAAAAAAAAAAAAAAAAAAAAAAAAAAAAAAAAAAAAAAAAAAAAAAAAAAAAAAAAAAAAAAAAAAALfcuIcDAQDAH8luj78AAAAGSm/9g1gsGneEPTnnQyMau/ybAADA4PH1ymvEi+FiavvBYtJxMiGdrDsf7jzdLofNcM6INf1uAAAwMCMXNueOkvsTs7OaqobSoXR+TMqnQ6GQrmra7POT9Z3tVLhoxDhaAAAMI773zdrR+oZTXqe6x7awrlJscZxP69rsxtLOXKpocNAAABhIPDx9tPQ8o6cTwlYUSwkGFaFcIZxPW4qT4URaz7zfPzowaTAAAP2Qd3INs/blpKCnhXDT65bXas3NsCIzbIu8ntnY8RrM/WAAAHoTvV/e28iE8sJy29o2vZcy7P5OkZANLueiHMbbx4i3wXcTAP6AbOp0qRBKOPUNdhnf5ggHZYNDheWnqSyH8rb1902ytbVtCgwAoxYv7/3U0vX6Wr2rNzitfT8qxzmct8j4vfCJLh9tvyKtTUU4PgAw2vxOJ1/owu63vk0NtoX+Ym06zr3g2xTgibzV4tuuWCECDACjPP/K/P6Qi19FPnll9c/5v2XARdpLMG5NgMesq8+5K0FLJ8AAMELZen4HWfw2V1h4CS7FOLS3KcCsgAHgz4qV3rzw8msNi5vg3e8vU1yHJsAAgNbCpxvqcPNbT7ByrM3UuA5NgAEALUSrS5ljMez8SvKNTInNtRLHmADfrqNxGS8QAKNgfqvITTeENQpOgsXuxhyLYAJ8S8rb7y8CQK9ih/sZoYxi+Xt+HVqwCCbAt6a9MSOeC19ghsPFePz38GsqDGA4iqeVhBj0jUed35TkLoInauymRIB9LmoUw+bBg6Pk+snExPvZhucTE/vJtQerKafDUSIMYDhK6wVbGdHV54uL4MrLIoebAPs3vrlw6umXpYlZTdND6bGxsWP72Jac/x6786+1zOzz/eTLsnmfiV8ABhZb3dgd6fK3aRFsF/7mMjQB9qd4uPxSDr7W02PCVrzNZJRgg/cPxJ19HVIzP5felfudumkw6uIPndpaDRXhsMBPZ9z4aUWIUS9/G4tgof9T5agTYJ991b9nb6ru4OvG8M3mAZwXZl9bQqT7nrrZat4Foy5G8X09XGtxpHk3HXzEfLPlXn5W/kSB5SI48Z85zjUE2FeMcO2LN3vTae91wze9DDembh4EYj0luOW8C0ZdjGQB/GAzf+lA62M/Aty7h2+U/tXs0T383Poy9Pw2l4EIsH++ZqP05qTX2ZtNUzcXepu62WreBducjCjA6uXXctCeDBNg+MXByW5Pl5+9jflFsIm4eKWui8vQ9ta7HIeeAPvjKy7Wku/1sX5mb9YbnNe+f04Z492e1lvNu2DUxYgCrFnBS0eaAMM/Dj/kRbeXn8/vf1mW3aT+rEr3awenwJvvTA4+AfbB13v/7VIh3f/sTa/Bx/r7tensAIeYFTArYNy91+fqh4TVTX8V70SjKLZI5EO6pmUmGzKaGvr95EpXEXbWDEFL+8QamADf9Nfq5jdfn7054NTNyucuR34RYAIMOC/PV5Vutn6u19eyRVrNTD5amNp7+L+vgcb2QG8fPpn6+9nHjOreRFOuH2Qo7wNboRUCTIBv+GuNV938Bgd+BMJNsP79qdnvISbABBh3r7/dPH71+0aXmjlbWayZgUDEiDY/xRyLZiORgFl9MvWsoMqLedcsJ9z+quspvgEE+GZf/6Xkj3p+B38G0d1lJjNTM/o7xASYAIP+tvvhPq8XFharZs6INc4ilwfEjGcjga9Pln9l8rLB7U9q9JcA+0L49OfusPLbGPlV2Sn1dYgJMAEG/W31c70l0k59v9Y33mszCab+6WzOXF3+qOaF0u7E1ugv/wYI8E2+/BuzN4f3Djy5CFb/qWUJMAEGBu+vm1/17HE10P2We9FI6t1Mod2lPfpLgP2geFrJi6Hvfi5/Xk1UrnvAnwATYNx1Bx8S192qdU8n2tmifItjDyfwe/eMwOryZsvZwvSXAPvAX9VRDR+R28xklqcJMAEGBuivfGevItTXr8xs7+fwe9HcgUzw5R0u6S8B9gHj1Yf0qIaPyJ9a049qMQJMgIE2Sid5q3N/5ekp9GExFe1z6Ol45GChIMSFd3jQXwLsA8VvL7q8+tzYPSl4vp1SV3eC5+cMAkyAgZbMf3ftztvNy6vPW4/L2QFmjo+Hn57tiqZ9PugvAfaBVLJgX7v8VZq3fWv+fPC6zWaUxl6r4wSYAANXxN/I+QudTyFC/e/hoAPHY6W1rfNBh/SXAPtAdUm1r737It/5Lgf/JhJyapGuOeQknXxCnM8q7HuvVQJMgHGHRU+3OvfXObsE5/eG8U7d+Nwjvb7ZFv0lwD5w6N7+vSa+ctpvPqRlJh/NLE9NTe09dDx2Plh49mvS3fHN7ji5Qe61amc+ldq81AkwAcYddiDfgGR1Onso6derwxkYOF5a27S8Z7HoLwG+8RPyq06bn3sP/ivulqu/Fh4/nDYDgVwkInd+i0ad/0YCgYD59snUs8mMXp9d2KHA+qcSK2ACDFxU2kh0mr8gr59lVspDe4nmtufdy9D0lwDffH8rnZ5+lg/+O/XNfFxZrJqBSLT1n5GNOBXemyno8in/NovpjgUmwAQYd1Yu2fEBLHl++rE4zFmBf1Uf7bqnPfpLgG+6vx1u/yrupm/aWfKtmas//XB127f6Z6KRQPloxh1j2DrB8oKPU2CTABNg4Fz0tNDxBrCTyvlVY7h/Z+mTagfpLwH2cX+9/G6uPEl5K99Or1SvwkbgcOqj2i7BboG1nRwBJsBAw+F8p2dQnLNQ4vVqdNh/aWqtYNNfAuzT/ir1/FYelyPZe92/827cSH0+U0Xrq9ruQw+bn+MEmAADdeZ+3urwAJbs7/QITurFd5UV+kuAfbr+FfX8yj1Xe3uRZlOff+222nS1fh94fpoAE2DAE/2mdbgBPKL+SpFagKNPgG9Qu81XvXe952V++zla49nSmpzrcPWPdvfjWDQIMAEGPNV5YYkb6K/zT+H/7J3PT9vYFscbEWE7D9mW80NybePEIY3Qg5BsuimLoi5GkYo0DYhZICHxowLEhtJWQqhVwlP7WLw966lY8U/0v5h/wBv/G+/e6yTkh53E9nXimPOdxTAzHY7P8b33c87xvTYEHwA8Q9248he/OrL4x6rK+YwXJ11s6kOvPSe7GWsfpAlDDAAGAINir0JDcW9A4++Jh8ZfEAB4liqfubz8HJe/yrdXC0Ei9kL7uk6O2jH99W/tfX7SEAOAAcCg2A/H8+KIBjRrAn9B8QRwqpFzGvmk/LX2MmtBtx3m6+So3SB/xYlDDAAGAIPiLrmVcGtAkz2btRuIEQA4hgBWr3Sns3eEv+naq2UaJfZP3XzqcY/iLwAYAAx6jiI7sNwa0Ji/bisGCAA8z4gQz4+dXr6Ktymzuc+rdFZj7etBd5f1SP4CgAHAoOeo8mPTdQcW/n7LhzzECAAcQwBvfEs7bX3AuNQzZVpxkw5rbQKP5i8AGAAMeoZSrwRrxGuAhD8LECNQDAFcwlsPGZeXrqbo2eGrNdLoHsNfADAAGAQFcH8vzjQ+yxAiUAwBzN/rjhuw8EOXVxJNSyIhMP5Cw8inOQBgADAICuD+BnQNNkCDYgngjXXHDVikTKX80lWbwGb60w3nMcQAYAAw6JkWwCY+ivGKhxCBYgjg0pbDy1fJpxJC2HQoVg8sxhhzmg8ADAAGQQHc24BWMvAAGBRHAPO3Dg1oJrRN/+pXnR13mh4ADAAGPTdp7meAWZP9tgYRAsURwE6NHybEQ3el7U8bPkIMAAYAg+I8En/oLi/BYhjGKkIDGhRLAEuZE4ez73j/86t8SBYXOB8hBgADgEEx1jJ5EubSgja24FNFoFgCeOPBYQcWy1j6WzVSIQYAA4BBMdaa61ug0b9+gFdQgmIJYKe8Ex96z2UWohViADAAGBRfqR9z7gXw4p8w9UGxBPCX4bzTPvRejliIAcAAYFB8F1VtJ226PQK21mEHFiiWAHZ88DLzQ+8AYAAw6Hmprrt2oKEABsUVwKQAZqJ26B0ADAAGPStJdy4daCZGBTCH1PszN23js7LeYy244ZAAPBieqQSm5FgAz/zQOwAYAAx6VkUN6UC7nAFWMnM/8XvWc9FWj+9TCK+rcW56nveZDmCYOoAHL1Gc2q15WXcogCNw6D00AHM9ivmSNqGjAGBQFFR3PwRsFjdi4KCoSqVUKqXVV4gO5VJKSxUkMeyV3v7VvFpAxlNy1bZ+oeF/ktSwrXMd21rHcex3atl2m/P7S2kCmFyEyJOb0w7P4RqJTl4Mv++TUQYLYNzx0Wf92c0QAOzCoThymPPiJwAYFAG574FmY3AGmEcEqn7PnC1dVyq6QJStVCo7rcb2yppWIhzkQlsK1GVtbfeu0VpCJvUsMa5XKtdLl5nvh3KqwIe5DiHPZWR7ab/jOPL7urW1jQxL4ugCybWCoAhg/KtFCYH3bfvmkPAIKDw4OlW5FPJR3PK1UwFsfNZmjhCqALbvIMpypFSPSpLEh55/zga+vIo91dqOFtp+cgBgUERVOjNMty3Q2VnXAwGrnNTa28ZSJSsoRqJpsZbtF/qhmU4oi4L+eHZUlcPCoChp9e9b+7qQUxID1hPGIsLhTuN0TQsJM/mCfN/YqWSR7Say3bVsKIvI8HZV9meXZgXMF+Tq3dK13n9z8DWi6OjXZ0cXJDghrYYObz/HPC7O/NA77QpYVEsp+fDtdqa1tITzQJT+LS2dZbZX3sulQj5eDJZKKN89wp7u246iNPu0qpVcpjgAGBSBtFG+dutAm+zfc/wZYDVVv2sVBSXBYv8YJplM4q+xMiz+Cf8Lk2WNnP7481TGFSHdWcdJ8o/Gvp5TWBZbwibb1rFxbN1i04qg77QxQ9v4/da1oKRZzJiO49hvbNliE4vZX0cXy300TLmICwfA6BJvUXKSMwZvTvveWPjW4ODwIQHC6e3nrKn8UZj9hKQEYI7kYVr1bgslYsIiSnNwHoj+Qn/HeVi20mp8v9CkmLxnFue7d2ck30WeNpvEUeSngP08lZdVADAokgO3qltJJm5bsLjC6sdWcdFgyeJO1namv9jBiz2BsCJcv6lqeZoLPV+qZ/azNnxdjeOgs2mMmdUCzSnPl740EH0x2ZLkA/BMn2XEYQYVw4vFd/Xlp63H1cslR10uhAFgric+zGB8nm5NelG/PJXDQXB96CUc+CL2Zv/WN3oVML+89nbrOptTmiQRM9t5IGO//RonYigDfGzs+sk/VWlY/kguOvwmyXu2rZF812Db35Zkuo7iXE4RKmff15ZFADAoem0b10NISUv/Is4nfpe/NB5ymL4Ef6bp9qVjsvpbrKJf/rdMrRLIy7dnRQJAZpz1JMZM7uFdPUXLuqj1GncxjP8LayAEF7pLUZZNDMtoFhf6liMqAEZ3Z2tcfDrBMYRfFO/M6FEfiQKYFoBJF6SYw2E2O4kYCXb7BzsDZFD+mX30nn+qV5khbR/6uU/czbbDr/LorLT6cUdH+RzTzXdJW6XrJ2moPLyraiIAGBQxuT8CNtm/tfnzh+ss8DZ9zTFqV2AJagu9WL7aySZY0x2A/dYJZvTLXY2G6y9Sty09wTLjjGO7yOzem1XebSlyXI4oAJjcHWOS+NjBaeI7I9IeIw5H7yLxBJgWgKXVzL6gdDsMI5IczGCP+Se6xFZOWeyXkvX1mFpc2TMGflMu8bDgBYLI1+Ncuj2iGOcpjmeZgmcZ12c7O5iFAYBBU57umvsjYOXNPHagpfYCPwH/Op7iP4oXevllYAJqtztCk52I/T0ZAELwZr1AxfU0MT7WqmkjuHaa6ixFSWZI9AHMqRvk7kwYH7KkNnO/dmlngg5H7yKy558GgBGSHnDtO7L/09MN8Zh/4ks0KO0TC1yF8hvY19H5HNOGM0p0qz2zjMNP3wDAoJnqwv0RsDCHe6DFcubYXuBND7IXeqFvevoi4PtWtomBypiMF+tJk3kqR33Ldn1C4wTBjKW/W+WmWAGX7zp3Z9L4kHJe39ygWgQ7dKCjsuc/OIB7kDTRQPCcf7YvsT9XM3M+ATyU+nmCoHxfUybLtskcT/fMMlR8VADAoNmK3xVcHwEX/zd37pRuH0+8LfC9Cz2enkEW+nLmIG3j16Pw/4LL0SCFnnS+c+LJOEYwwyqvq/wLfjoAzr9vCXaBzni8M8b6aYniMBmu4CKz5z8wgCdH0nD+KU3nEqlVwDxKeCcf8/jPJTtNH+IGABg064ZtRnF7BJx+rc3ZWBQ3GkVUgPrAr73Qm4zy167vhd4zAQfL0UCFnnx3wHp3HV9vrapOB8Da1XHa191BV2kV31D8SKDDB7Cjsuc/IN28IWkw/9wuT+ES6QE4db9uDygPvaZO0wcADIpEyei+B2vuHgGr598UvPiYPkWexu75Xei7BPRnm5Sj6dqKzyb4zZngw3Vi1Tr4WjicAoA3tvCDV9ZvbE52qL0WlT8VHDrQ0XjtajC6eUZSfy52sjNJERwVAHsfUJ2mz498B8ADeRgAGDTr2T63j4C1qwcrAH6DLfQvOwRk/NvHhd7etp8+aP68Zvhcd1FRYB2sfAgdwOJ7nB35zU/apbpIZ6QUGspwBxo3fOYdwL5znG7+eXAkh3uJ1ADsd0BhL9dPJWc3AMCgKc/2issm6KSlr86VL+XfWctv93moJ+u5pjr/ZgTASw//hU3v/Jfujy2/8Gewy8ebJ1a4AFbP1wM1J0h2QofAjoeQIvPWmQB0C5jj2DHO/iyHeIn0AOx3QHWbPgBgUAS0NrQT/6klN1ePgC9aJ2wyGAG7i5A9PT01v9eDlr9d68brukfMpK4OAqQexOg/bLgVMEkRgmVHeN2kVAPLQ1lndN46459uAXOcdozZf8Z2gKIA4MLVse/NHngk7aEpDgAGzVriYdZlE7SZ/vc8fQnphlSgQQn4ND09tSMLuPkduPjuwNBbq5V7UW7oVrDim2Gcr50agAtXe1bg7IgagcXd7PCHGKz/RCPf9E03CjkOGX9m+vWYIEcAwIWrYpABxSbRFJdepFoGABg0S/HOD//whDI25wfA4nmNRgXaWYRQOfTTw1asgKvBcIPME2bKvwUrWN3jSmBaAMYBYoIHiBaBnU4BR2a4+6UblRxnsgxw9gAOOKDIFD9Y4Yb3AgCAQVOVlFl0A3Cgb4Bjtku0pbrzd53GAt87PXOTE9jmr0nNvDfMlH/nLIae9TAALNkBohIa9q/ge5VLW8rwI+DcRzUSM9In3SZAUs+7LoKNv5kDuDB2QDGjnSVTvHYxfAYTAAyKCoADrkj8boa2jv41Df52CTxhF5oyfz0SWAuRv5QAzN8e0AoQCk369Sp9wiFPsz+i8V0+f3RTRyOp+/EFs/1RpJFfCRk3/mYNYHXkjOt+asz21XbW4bUrDPtpdRsADJoxgF3ew5H8P3tn09O20sXxVEHYISIOCY7kxo4TRzSKSJqyYQMLEAuEBBLQikpcCam8iCI2pRSpilqVoqpddN91r1h1xdd51t7kazyecXhJfM7YNHWAxwAAIABJREFUHgdieufoLm6re2OP7ZnfOf85c46tPstE+2W1v157NCtYlwgSjz/lB8lfd3p21N1AJTlyg+ZvKAJX3qv3x9/BANh1jwZ0i84PFZe0iIQzoBys8Zi0vuaiW/boEv8I3aYWpAF13hodLVr5vNsiCa2V5Sc0DBnA2aM9/INyGzJ0ZDlvOcsPHavstoPqv2Gpo0zOjQoACxumoXU45OgAHh0sF0ZsE04Pbgfkb0AJ7iYZZessgAQQOLwLfvEugYNIrToVHm1pkBcfNICPZ/yz49wawG63Wsmnj1NHXYtYsfvYk/lPMo+S8Vh4eeiG+zhuiTVbtkZVtTq9fToxMTe9PTtuKsW82zOLR2gYMoBXm+iMkyS39aA6frU9vTQxMT+9fTGuFiy3MUX/CicXmiMdAWBhsZrsgzoGTAAMNNjhN8wlqDk+hB9/70hwN6qU5J+m4R+FBgjvpL6r+1/cjUECSK3MwAccepCLDxbAtXPLln1ejjxyKxJKPk2cSY76m0iuIVD+XHLi6tLjjYAxH4d+65IDpOr0+rOfRjKZTKfTyaRhtDbmZqujpCUzPHPYQsNwAdz6lEc+KPLVyEX1Yv7gm+aMtULGmkxqRwfz44rlbZEik+7BIgIWFlMAj0c7ljHwCNiZ4uvAFB/bLHR8YHorwblGVSmfZjGEwPbMil9/GBp9M3/GbUbac3XJv1UxXQF9N6GPmz78BYbuNi1/MABPbe6zXw/VDJ2oZbSgElNGrW5rV4Y2MRMpEUvfLXi3BMFv65EA2PVxoLdC22xVTxd+JtM9PkuqnDZau1eqhR0cZgoNQwWwsViE/G3Jxe9oc3lDK+k9g82kS9rhPOkQ3vPhS1DuvwCwsNgAeCxuAC4CUzzzy2QfwqFtYeR8UTHHZ6ep4apU/0qfn/VJhdb8om9a/b0rALpG9L/RvG+3OLIC7vrU5a299KG/d+hEfKQQlh8GwJmvVebrIbfYkYvmxenEwTNiGxNLs1W3lbyMvRc7P61F+jKBJOjY1F0NT7fKJOiCUldFsraW20m9+8vXl3B7EejGm2kT647BEhqGCWCdJD1IoDJiS8XmeiNdvh3i7b+Vk+2JJm0SdfdqXqFFAFiYADBGRMtbGuTpKlsCdhf4QnV2bqNOJDjXiCp1obpN25jbjftzzO3G3A+lw24DTjrpKdX5rgBIjOh/E7NmIS+zHQBSL48tgVcmSXApMX6BKHK9Qyfi45VJGSw/BIBbVBxl3aJkqb8nPxjJtJ4hVk6XjJ8bS3uKjFaVIOkzuxEy9EveU0gjHTMmSdDh6Yb4OO6J3upyO43P4gxBMHiA3hUa6rED8NPVPdChI/PccvCrpxLQ/0r+Nl2foN1Swn3xwoQJAF8nyngBXDvP2wz+0gXe/H3QMtLlflVqY2nLB8F+243Zox1WeEcEQAeAixtaqUcATJXTycbnWdOiDjkjAJdfs7aBmcGl5C5Jyu/1vqET8bE9d9Hl230DeGqziL4e9xbz5umGlu57yOVK4/OV0h+v3H0vzeOng/zm45MEHZ5uiI9D0ggKJ6uVFOtSDoIPafskUGiw5o24ARiZ72Sw5mKbfQOp3Mq04lMrWwBYmAAwCuDtfgDr7BDUXeCfGXqqR5bqqlKVBqBK9ctaM3WmBMzACxUAm+utZLlHAOzehW6sLm2xuuOSFbA4x8gMYgWXbvijni5ovUPvio9p7fvVfoDSYVEBTH0Elnckk7dTTiT6LkLejnbWtLAByhHqVoH0iNG6G5ZuoI9DnRt7Zz1AMZlMfd4EqSRJHfOwHC8Ag/OdfuwjMwsBzu1ruztsx1MAWJgAMKoI998SJkjdMkg5OTIymPufSjsIzjMxxmJgjkjADHgTAbCOaGI0Cl+ZNln8l5gBeIURXLpdTz8taGXsxZdra03Z93hQVADXXn5BM6DJLVozG+TtgM8nlWlRMoBXc9jwKsP7zRv/fPHQQ74yHieAQR+nW1ByNRfoisbZJUglchauHi8At4D5Tl1d62Q10KZE7sUMMwYWABYmABx4chjn2ImE6zXoQMsmGMPwU6VITyiUgR/2GBIwaSx8sso+sJq61v+Qy8s2ngWWPUKDS7ee9NZko4wOPZVI6Suz+6F3xMIBWH+voB6KKxrWMyx9lJABzvKWbfm3xv3NP++MSP67G48DwJCPQ7/94kngY4Q6SCXX/UzHCcBTixY4WDnEYFuzeUbepACwMAHgoJMj81XFIUQJ2PZ3i9mqFGEgstKPvbVY4Z29NekvAGbq8wpaQpCcH0KzjbTzJ7aMux7SzLOSz6tP1OZMmx0DRwRwa0ZG/SMSXvmKhg4ZwBQ7+mTOdN5v/jlQh+ORAhj2cZyHqyw3QlDwBUgl0pgT2msfFoBhp5MMdjNE6xQmgQWAhcUGwEbcAaz9+cKAkG0Gm5YsVYqu9N91WPszO4xafvbMRqDKDtoao4g+yTZqhFh4b/hrnbSz/tceO/Op4hUNwOS4j4xXB5kJIBpmXyBpbviT+W8BuA6pMBRJWqjZ61BJ8h5NJ3vtY/EBsAE5nc5NF8INlkVgAWBhcQGw+TPSb98/gF0IoVU0dhaMAcxIVOw00BCUpD87eCkHu/gU3YFDA/AivKzVUN+DLL+FxXqgt587bDL3gaMBuPYPXp3YzgcTDfUz1YaPfWJPhg/A8em9GYpuoI/jPK9iSP52CewplwzvwAwJwK7LK3l18sVauMHS+S4ALCwGNvbu0dSC9kwOFEI0/t1ZqASeSSwCIyEwtBrcqRRx0g48izGdtSsCgoEe7nuQ5Te4Iqe/2WEdo44EYIZ/JAflbyKhzcNCv8QbAsMAjtp7c0gAbuwBGVjk6dZCU2QF+grhdPMhAXjq7RNvCVHZHjkJXTO3/RrzOwWAhT2o3Wc3pHsGMANCXf6GVeDChMBjWAAs4dmjqM6KFxNBAj08ACY1LJeD5yflzrYYR5kjARjdIAjDXwcMe0jlI7vwmWcX+G8CsH5Q8D5iLiTBaj8Ngb27wEMC8AdgB9ida2GJmfrWRL56AWBhDwxgtB+wsqDfyy8PCsAaesbFmZXmQriOOa4qBT+Jjgoch/yA7AC7JYRWs2EuruMUdFbACy14AEzrZ540QiwhU7uKLd1HBEwz5FCBIDghjOUittd9xZMI/TcBWPsjQwlYIT8/ltrvhMBLlXgAuASlQEudLZ44Ad3ZEAAW9rAAXkMBHHFNum8A4ynQzt/ubxoh1wHUJyZrkDdDB1oNbhbAnbALYAWnIJjui+8/y5L0KVxE4Gq80sABTAo+ysgDCkYIcoJar70/sbCClCpcJ+I/A2BgCpDEPOUgx3Vlw6v2kxB4rxEPANcvvXs+sl2crAxorALAwh7eSGs2BMARG7TdN4AZCOTZAysfVhEGSiOdavsptBog9FfDL4A4BWWg/lf2G5aAzUP/1ms5cEpKCABrHxGJQLLNgNpKZmpl8h/FkjrSAMth/UUAhnwcybZOeatqtrxOqPNnxaP0DwXAVG73tvT9xJcLT3c2ZAFgYUO27BsV28r0LvyxAjCKQBJhtcPf79RcEQW6Zx8WWg1usLBocKx9GAXJLlx/873cZhFJTOIJfzKv0JIeEQBc/qVgGn3AB1TWvi5WSdsIGS+S0g6/ViJZ0I/xGFLd++KcP++0eS9d/u4VYpx1YNaIA4Cn3nqUEFIQjTdRJbe2D33HAsDCHtYaZv9qdFv4MdJB4HsGMIpACiGe3es6zkBSqNBvNbg9n8qRAeNQEEuqlu3Cbn9600fM9+AKf6aWMNcjAoAxgUIK8ICI9lyqH/xRi6zOwJwnkZBzwNuPD8BQCla0xsbaO68ITfSfOAAY8DbI527wjrX2L5RCIgAs7IFn+3NkMR/pmJHant8zgHEE8mpwDgNhEdpZg8w+XbeOBY289E+MIZtSQAiS+QWnYBGAb/Hk39T30G+AG8CoAh2EEPrYh8XLgtuxGW+1QRwjje+T/ysiYDoFpP4tW876JOgUcBzA/i96GAAGvA2ymcF/UoOG+wLAwoY8242XXzCQRetRnpss2CN8hlbgvzM5tOf4FiPnrDTeIQyU+xcX8PjH9ZmlGt/zWtmxwRDYG4Lg6U12cZln3z63hvwgP4Czr8AUOV9CdBOvzmmvRrxVVIQ0LMjnfJwRcANQoCMFwOAUAJ7NMADs9TaiBcCIiygALOxhDY0koyam5Cb/15E7fGZ34FDwNkzBosAosxIPgWkQmmKuBjc5ywucXgvJR0ew2hOCpBIaUmGKBMB8+39YCMwPYKJ/yLAvwyYESbz6WHhCOmlIfgIKVxoW8TnznpJPnYtH1w0ps6B4Y8LOViPKxXXvLjDZav85fAB7HW7if0UJEUC3UwBY2MMa4yBwtKggt3Y5zmkmHAHfBTBtxgeHyVVuWQoLgaXeupzOEo7qq9xNehKJ4yqG/17MZF+YWGmK4jLXmYxEBUlA4wUw+c/yiIpRZRFC176+pYlXAfBLKn7aVahZQHjARa58PgQAkyngiQn5JJBbq/0BqmH1S2FDADBVVAY42eiEA+aRALCwh7XMoYKm344bUX45nRzjMSNpbCjwGn+zUQdFMddBYARZKvNKxdDWswYRBI5ISPUSbp+8tITlNpPw7I5n86OA/XdV3gTYFXhPmx/ABrxDQJyJEqY9Z0v1H39UEvwye6bfZMY5/3TU0IqrM4Tz/7N3Nb1NZFnUrURUGabtUhJb8sTOh52MZXXSgQ0bekHUCxQJJEiisEBCAtJKR9nMNBkJIRDQSk8vsmcNymr+xPwYb/w3pl45H3a9e6qe3331qki/u078VVX3vHvuuee25ZzPdD63DsCgkF/k2deVZuSjmCctJcwBgCNGRTptzN3i/M5UDnEA7MJyHAEwEQ5Qh5U8PlHzZZ3O8SOJALWAfQYElklnISIHNTEEruvncdA2jerv4yC1aRCdPXQpixZtCa5NQQe3a6S43sf+as3WyebZjaHwqq8Ev167+vtcb/JsGZWO8c/FNF7NoQJeW5Rb2cyakKRXZCrMOgBTjEr8sdDLM74DYBf5Pu4tPNNCr+NWf229KC1sz4Mcf1nuEIwUalgxz/9UDlrdRO6IDAYQw/8YaiXx3/rmoc335JFCG4Cb70lexSMrzUmEV0OzJ8FP++3O6/uNWxrJkui6sI1X7QOwsNCRa1XNHkTSTShTYTkAsHzTi9NGi/dTE7WHA2AXth/3j0iFJY+/5pWApCQJaVjeXjnUXh0bisbKcaZwHPprjJ+EAGXBO3uskV9cG4DBjg9JzXaOJRMIr4SQetob+PX1B8dTej+2OB14hbXCUkU34hjBHVy4uAllfn681MyBgpZvevZpI3yO5ROvA2AXliNS38Lx10oOCQiUeKM04QKoQX1WJYOL0NGh6DLiv5nld6nyAq0vGK2/icqHffZAPXVNAE74K5lUKTcbnycRXoV/480vfvnl9FZQ0kuVwQuidizMQmBVdJMfAc9EJ5vQhEgPlX0AJm56n09aEFnEAbALyxGAtG+Ag9aMLbrEC9NLLy3Bc91DMLCP9AgjDVbanJROYGAfGZJBsnXCMGGCWCZpf20Abn0lNXKxpHkhvKoqCq+E7tnr+/N7D/7R4uTeNbmcitieQiReNXSj/4rkF/g/Tvzd7QOwfNOzH/US2ShxAOzCdiA9U1/PaYgdxHxjbFQkTABvFKDKzCN5nl5G0A3XoCwesxztGKaPFd83Us8I04PaiT5fQYvh9SvgH4GqenHsMwrhVVT8qgmvvEh49eXxxjKHmCEbisWRQSsDMNEV5R+YKV5WogfsA7B8PjQxuk3UHg6AXdgObMXhDRZf2Oegl7fT+ocRCTxNT7m8ZtWgZVjcjqQXoNLmt+DANxfYeqFHTyr+v+eclo6oL67dA278SP6MV59RCK9mGr/tTCi8mhfCq2a5xMmR5EGnODJoVQCWHwGPxYHgdCDJoG0DMHXF2HTTxW3qOQB2kWtQavxLDpq3klDvCA5GfEfO4YEKTuq9OUT2qyIAkcBhFbUVcCmxFAIcsrs8/hEM7uoCMGhreCOvt7R6vP2m/sFPtHseE175s9X1uY0pA2Jl4qBTHBWWIroRj4CZQwTB9saLzRwAmHg/drkf3vTP4mpKB8AurMfRIuSgmc52WrEGlMijU0grNUACM4wwwCMpu/WjEp1tpySSkZ88YATZXZ6MCACrNgDT12d4SAii4vdKeKVa/C7+6/7pLV7xO3LQSXc8LjgAyz/xlUjC7CnQi98GOQAwYd/Nc70u0RMgDoBdFKXk7OsufOPFEt0CHjvfiy5sqlbKHA6N5Wfcqu2zhTxHqYU9tcvHSAl3k7Li0AXgykoVm4mWK8u9uWcTCa8G/g0hvFoydIsR1aMYNGsU5HlUQrfKEwq4DAjJKiuUMqmVOwBLC6z4I1eEnsIBsAvrgewn2NvNNB+KNhI4n16d0uuIBD7hkXDQZuqShUsCaV5XakiAp4FrA/7NY97ujHlzAAyuT/QLBY1Pm5fFr9rUUbsmpo6MtWhJvt0bGEjoFgGYZIpNgAepTBofBC4CAE+b4NvlH9EBsAvrAd39cymBwSLZsfoSd2G5ZQxykLh6MLMEYIXqNoDDwtztkTfMATC4PoJHOHq/U1MTXg39JoXwavNJw6xNFVHu56F34AHwfBayJPKEFyeW7Kug0z+TA2AX32w0BAeNusCWS+Boz6C+DIr7+KS/sgpNzQBgLwXdKqBPzK0IrADwYLq2V51VFV5d2D1vLJguTYnVjznN3JmsgEd1CkZPgdN5AzBdlfMb3vIpxgGwC/uBddD2S2DBQPtpPhMJMNnKEYC5M1Aq6BbQ7dVvA4D7EaOsYfdsOCVGCd0rwsydUQCeva4ArNCX1j6IOQB2kXusdRAHHealVz2bH6V3prASqKAVcJtHYl57ABbAKiJ7u+dUzkfucxSFg3YATFTAaobRk9NtB1UHwC7yD7SKNspLbZt5qflLnXSmHt99UlQAZouw0BDUNQHgvhL8GrB7TotIayeVwK/WCvAsOgC2B8CyWNABsIscItitIVJQbBiwRs3BbQje+O4TIJXKm4I20QOevh494Pl+usQ5YeqIbfecmnnlSWC/X31fgJWEDoAtUtBOhOWiENH4+gGXwLN3u7Y+R+UTvZQ+ZvMo927kpUV6kWCyYaECvjYqaHB9FO2ea1y75/Qgmi5Dm5BvGYD/YiKsDfaXdQDsohix9J8q0kH3vUH90Yylz9H6+B3tBTW+6S9DIw56O/KYEXVWFXDSjO+3NQeMro+i3fMTrt1zekyRHHQRZFicCtiImdfaohtDcuHCbnTBIlxxq3uD57cDSwUwmEiOGS0KHz76z7J3wgKmUUMjBKYVJaxuL8E1oUrmyNXByYNjRelNWvz6l3bPS9nfadTaKz8sIfMvgRXRTd4IYsqIg6J7x03Or5ERhxtDclGImHkEZVhiduSpHSV0AxTAcZPnEKmyWAiIdhLE6D3cgWautAOLGEeTTZIX9A/F8YIG18ee3bMWB12IEljVinIlKyvK3dQXzgeAPfNWlLLvnQNgF/lE79XA80F6FBMaNkqD5m9VUAB7g/XTZJrsogxkSra34Atf7V5BHU42K4aQPXzhk6ttSGhZlF+cbUjo+iTbPXceHBuze04NSvjv92fzL4FZyxg2DDyEcmmd5TIGcehUAGBi+TF7fRX1NRwAu8irBN6HrKEoDf5tQSC6gQ4B4QngwULyiTjeqtU8/h+gfUQjHVa0NVDsY2XlBLSZecT1B6+CYG4T2DK4DxiW6Wl2z4G9+z3Ylel+cZ/v5l0CK6JbObt1hLLHZWzLiEkAJsR/bh2hi79gdLEQ2lIbeHUb0eBhYhxNLXhgdnrQWTObfS5F2PebVwQrQmnORsDoW/npew6BTjv8jWqH+umXZr+1Abi180GpCZyd3XNqNL7KP7bf9790c34O1dCN2lztjZrFGX332HyTbQCmZBdGJGcN6Td0AOwip4iE0MA+QSDwndsZ1waVz3Av8ZgLB/1AUtNKGhAINjNOD2oja5YEwZq8Mkm/Ck2t6zEBzuHkaFjXr4DB9SGqX2H3/NiK8Cp2v78n/Fe9wb41xT8TgClWlu/lRZ0CpYOlWQCeVwBgoiznPmw0C+IA2EVe0dj5DpXAAoFn725k+/4P13EXekyCVUryOuQRU71FZIR5xe+GOeoNtMt8yDilzPxZV6isgxVUf8/endLMHejkod0DhlZYtN1z047wajzWXslXMTxorm/9/VugoAnZOrsBA06X0oSbOQAWr9RWAGCyMc3ueBMPnANgF3lFsNvpw8adlzECl0sb72b79ChUeNi9E5MXU1MkBnbaREaY9AFktAsG2rCiVa0P/7j8JgROAP716fct8uShDcDo+sTtnqvZ2T2np19K+C90WPkuRVJFN5mzEA2YU+7bE70IiVaiP6JO/yW86b9+UABg4tQ51hXSC2L1uANgF7nFaiQMRZaUQ0esclZZp7s53wcb2gmPCbHCGLDAnEmSm0AFFcsusP72BE5rx/GiggtYmLLAyLbfr7/UzUig+NYGYHR9xu2ea1/uny4HpbwSXo8ogcMbqPoyVxJaFYCJFWa+gdGchU2CEh4fA1ZrFKsCsCzXo0CQqsvZu08asubCAbCL/KIHSeBhatr/IyMEDvH3f/WEhUzxncRlap2NgZ02xx30qmPyFqiVZsG/6HORrxorbFbhKUHXShEW37oAjK/PkHu+tHteyvN2p0tgoTfMUwmtCsCEawu/CUyB0tBgJhsADk9qNUl9L4MgderkN4HFKdFzAOyiMLF0sJgwPRKmpvrPvWxyToS/sAFNmCxCFPIGe9pE7PI2hMCRXYjD8zgAaoYOuvvMTwDWclLpw4X/4IT+QtoVMLw+51pjG3bPaiWwT9nOZKt2qLydMgDAQsIrm2n+zuTPiTshvP+kPdeUKllrDp2iXigQlO8nruJC/b1duLAUrZ/amIQWqWk+mz7wOf56igWweHgACokSWFsMHO0ihvLm9IIxsqw+0tTwIBcST+osHwF6V7/6X91s0xZc2gAMr4+ogC/tnnMOavbdixwpu1km4Yd3kpgk1Tlg4iYMb7/aAY9UmJHOoOH9V5cOwIQqWc+HizqoUSBIEu4swSX9FDsAdpFnbCSQ0EIK3c9EiZWEv2K8htgyUL4N9MpiratmmQ45YNECXlAplTnbk7v/BXPYYVYd7ezhJrCo/vWmtRH1rg/A6PoMheobeQmv4r85Nfse9VoyzMJv3/n1BARWroCJm9DnTaKLsvoNwcqOjuBdPCrE9K6OKplqVVAgSIgK2PU+pblwAOyisCR0NDniP71tOnkefdxPwl//3RqRpRpoe4Q+Bh6fge/ux8egogFCAP+a25Nn5vYHiAHojOeZmXsQ/vWsFFEBrA/ACdfH69fF2l2NJDezbJwMPqgRs+++MH5bzuoRe/tu1hskILAyABM3YcTAcOAjomHk+69VSgdgLR+uyueqEgiSogJvUOX485GnaAfALnKNmz9DMfK5fHWwfrBq7v3KpeDhu7YP+WdR/92nEB+ikEgYWnVg69c2fsXT9IP7BQbqbU8+xjacsfKbFI9cwL8OBRkcdmjqnVEBJ16fO1oUxer2vV5g+HZv/UBd8/AB2MsKgQX++kkIrD5kS9yEPlMaLNMwMv1zwQh7BhahLFBHPxIEV+X9kUzr7t6Zivu5CxdWo3d3NqENHCHw3iODdn3Ln9Z9z8O7EPvt1+RDhgddNDGw8rkGQVUi9pb/AGy17vbkRgL6x+Ydz6tLj9bJrU/OA3bRDioOAAeQgxa9Ow2QqHzqtJ/urhq+3bf25HNPZPyWEQIP8TcJgdUBmBAmiQbMkb6RCKVDIOdtxcok34ARa6+jCoLEZHkWQwcOgF3kG8HJOuaDhwjsV/+5YaQUCW/07lz4CPpJyuvnb+l/jbx8PRoD9+9NnqgnMeIawj+2zZ44K8z8WUUtU6LTJdwofXRe+aml9d6eWQBOOCUIQmGlond9OqaL4EiHRQixpiMENp6Jh/g7nCgACKwOwBQm8cbwCB0CQf+U6BkojbGgSUCQ2B8p5HLaXeCNMyXrGRcu7MbSwV7CNPBQDD27ftAy4Z/QfLiz7yfgb/iEVB8DXqsJdbZhdutMyMSWS90dUPl7BAQKAx/YtNYYYwkOn6PfXCyCkmqxow6G69qEfbHgEC6i5FTAiacEf9L90pFRmjj7zZsugrt/I677OQKvGk7FlUPh9uad19gAgSfweVw7o3Yad7TXplA6BKDrktcY6IwFdZ/5nioNPCVzRBp3ewr2OwD+P3vX19LIksVbJliVrKRD5w/0JG2b1mwIN5rkxZfxQfFhCYxwNxEHVhBGc1GZF3UcEFlRQceHfZ/3i09+if0W8wX6JV9jq6o7iTF1qqs67V4H+sCFmcFrdfWf+p3fOb9zTmx/uVW28q5glhw9PBC21xpTV3Fmqg8HGAtaf7AANOji1qHMJT3jlpVOIVqI/BNSnxEIzE2cftxW/qO22YplLJdg1AEl3MXzia28W3Ng50NxbtUlawEaPQCDXkKI+dKDRmn0zYuYBGfueP4HQ+DFrSibUia10vHywNsUILACAAMzjVdDZojef3zkxeP1SQ0GbxREiLKg0kNBnoWWvus8udxyI+Re9+Qq32OL7f9tpliI5YWhneXv5nQHYeq2WxClfxmQti7B/7+8WYQxsN9SgKGkZoKNQCgB3uF85LxW/mFbhrHAJKjp/jpJQNLbtguBm9LWCbJRYoFeA4DnN8HpkoS57CsQ2VGjtFcgwca+zrmX7Ebq91HOJkydPY6yLTACKwBwZvI18EQI4dLX1ZvsJMcEan0mR0GEaMQKzP8GQLB6Melwh0m5QHuNATi2N2K11SwSIjA9srHe3bbCQ7BxvmFfY+EyVAoj6m3bBimwGgwR/KVpUOzKx4CBPoajlmEqCOwlBoGQsmvzijusEwd0PhLyW6fI1hM0P5sKgDOQl+A9WflhXbPvAAAdr0lEQVTY4VijtOhJsMkNJ1CExD+7jchGI1U79nO1A4jAKqOGzO4kjNB7G0qaVMlx+Cg3/KNxx1cqa6KganoABHlfHF0zTOuRMt2rGzPg2N6mNVazQg7szZLL2idhIJiOnis3cnsOdoW5ZnIY9HIiQQlMsZhYWx6Bq//VwRAwJcBcFl4DKfDgaFXCXzURuEeBp3U+xC1ApwXgAC/hsSmNwM8ataBXIMGNT7wyOC/V0lqKRgyd9tQOz1aBEFgFgHlhWRY3aqtjSImO48Zy4R/+uCvFNiBe9ZsCC/3CcbhpEFpd85i+XQRe+xiAY3sDlrlr9QM4sMtmqRMINhc0BT0W/cGFyvnGY5HCrzjO7WZPxSjWXgQx0ENguXogYSMuxCfAIgrMjtbeiVxyqnTcAuMA1Ee3+d0NQHAbbL009c6nBmBGgYH21gSB977Jgej7y6PxRi1Rk+AkX/jPENiruZv6RLZ+LOOXKI/4jprSsF1OK6+Qs7v5WjwMvf28MgBFAVi1e+0qgSDH4UYs56262fdwxUMMwLG9CQRuBiMwYhCc717V5ylGJANfW/YTGcP8cbRI2G8CI+HMdnJe/TtAKyugwAyG9vYlVDSEm/zEMP6S3wJ83zVB3RK5Nc7qnQT+p34cCG40WAVNKDA8vJlt/VtQaiw5iWwRAzDQ5mIkM5Z5PJpx/KJRS/QkuPTN5t8HulBvrj3teML05ZHNUTvwEVgJgBd4FDjM7O7MMc8JAcM//HFXSp0xUp0ePwoMgyAv5xRmswLNRQzAsf0yCMwgGGcLj5vbpj/ZBkJh/9/ThnnX2dVnPPYrjHHTQNrHIHe6fSBoXU0Oz3ywVpvHTcYFuzmwDkoHCJ4fvjzYDwpDZxodURk0OWz2oHtQCXA+7M1aWhHZIgdg1uYCgQgs83jeU6X8JHZFTIIrW3wNgPccCQmeJhOcNM8OHG6Ug73lhZwRHoCBbtbKtNDHX+nwj6aV6dxgFL4TW+nMVmahXIdbfbOinE8MwLH9QgjsTVbHxfzT/aFZMTJDuH1mQxpgVMzbzq5dxORQxkj4mz0xbyD++uNskICGLn+jWm3wizLOudxkLJ8KTjf0SkhFDUt+a5fhnvta2rptFWEdmhD9CbgtCwY40q1/OgS3nqQ1YLkdsQY9AgAus36UsI/itA7NpAb2ZNSSleMbHU86a0MSPB/R227e94CuLlRu2PszvNzQ3wLCgBfi7r3QGaoBsEeB0VSgxAqkeB877Rp6CUYNdO4wZcn0s1L1+eid59UOqSKwCH9jAI7t10Jgl4EpxkV95SS3VLdSRin94qzKpI1yyqpv5+ZWdIa+AewXOJiUMdCjL/mTbTb2Pfmyuzv5z6jlHh0sYqCEScKXkWmKWpYwmdriZns+M7E6+xuB3xsbOJkl0N8j4Cho62n+4iXr9qmH3aAHMS0Aa7VP2MXia7zjXKN/h+bPNxaz0PPxSPB/Inrbq2tQNRbCCYR9uaHayUw9iNEWEP81t9eNKULQxHXgigEYKN1JklEtdXbAucsIGETmW50nwCBPWwoL+RHvQBD0dBdcd6OdkXs6Is1FDMCx/XoI7CeD+3hmVrd3T3L725/NSspKDaz++Z+5ztyFrRdnfPQNpNUMf9f/JnWNO6L5iXQxxz75XjUWRuR88DFb5x1PCiZsBLLxLoCAI1GtFnIWN5tWKfNy8bRh/rixoZN5pGkROSHmb/Dw5uHWD00jPQpLDBavnt0E1YBFA8Ci6Vqcaxy/Q7cbi7BSHnltya9KEb3toPAfDeWGlqralnkQ4BYYu9Zz77SpABj4AmiEQGpqCmsHa3M/dP4gsoG940zypTt1/lUPXDJ9LBh7KgLBegvabOuzlFxdrLmIATi2N4jAwRhMYZV2psN4pljQ8ysrK7tzzMifbF2fZdjrkh8JRt8h/sqVfxhbOliPMwRB/YJGyMs+N88QSl6x2g9duyjMRXt56FowARf0zU64qGh395tmZRAZyKRLZRaL12eE9Je19f2HsKqjvSzsGcpwQ3/qfB5b3KiY252Lwkxg+DkSAPama4larQyvcfB4RncoL1TKMwHs16h6VSWFpXc+BB+apaQmw4PZT5SGHgSC8bdjatMBMJSGoe7J4ocgHQC5UANqB0sVWIIBg6wQiRO1xk63EXCPjNvlfjgWCjh0siNiAjQXMQDH9sYQ+FNW5pwexGtxgp0Efdy/vp5hdk3+zNgKSmCEpH6PJ+Jdly2/rJ44ohN+kKXWV046hJvXUxWzubSeO9q1Z7MYiTkgvQ7xiFN/coWoXDpBZWr2xUnuaolGBupL2w+dQSweCxt+uolTMZdIH9p9MYTTwARLDrDFK+bnpathIgBLPIrpAZgGoQNme3jXeEMfzxcrNXGHhO7RZYRvu4/ACFb8609bX6zSKEYOg69WqtQenqgHAYn9IfxVBmDIC6SXXBToANhSyXQ198htB+spEERfIetEzalC7mdXaf0fjGLVh73QLNRac4DN4l73bl7sE6WEmosYgGN7c9ZYdbDUUT0EYUaGEwyJKeclhtm/IunfQT6Qx3X59geNlriUZhghJ9xctyklz+tFB2M3AH69SRAB1+EXsAR0LPHi8ywyYOt6YRiLn1YFXvkgDIG7LxdfyUstHikAZ5p74ufz7PHk7Yk7JIxt7MjIBNQQGK5H8zwFu7v/xZovjSLmPhI/Fxymy1btj6NFoQfBwjwUf5NTA7B/h/lZ8rzfKyfJRaSF6tlTjxsLkXAAgSJAXzee5onr6D8YH31dXTgQbABy7YHighuiYPWP5YHg0o0BOLZfxWprel/ytJ5AYhXYHcPf1t8VKi/p+ZMIYOlehJySc2o+XUdBZc5ucSMwwpkKwkAWlUsgurq/uEQsnuHvznpgfpORHySRHPAX7w8Wl3wYEQAw8VHy4ulao2tUuEOUaeV/n4/2ZW+sFgV03YulZAv208bVF6o2nHSPWHKjvt3p2gXH9/DgKiw3z8NfdQDWjH3u9JRhjn3b9OoTXlQmLJQJ/BYgKQB1gwMcQKAVLLmDuPfn9ypv0QxtgZd97tNzDgkhCC7wwz5ooLhop0ra5LrJknVH8wEvnghCLx9QDMCxvS2rfrBduURwBOa3/1Obaga2UeCQ88SIkgc6Am72VGJoHguBIxl/BCPpxelvlIKXy08SUqrR4oxtKjzJKABYs+4DfZQQj4cs2LGiftlrmzp15oSulEsl/yyn8LnOtIbzBjEqN6yYze3cRtfWi1nyOiZEHgR9aDu/m/xYqSoAaxY4PcXrlfP0oWnOj/kLtCbwx8aFfg1RQlpJHuQAQn1w6Ft2rdNFy2OLLhgEBX3dY/gwMBj2YacU8Teu6lb5eSVGplRmio9JNZz0KMTYYvvLLPVtGSOFMPRURr4h5zS4/vfFJ7ml92Uz1QpEvN+SGlob1Dc7nBvS16XgRVqpHs4iAWBBiU/4W0Tek6/V6F/26n1e3CHVC2cMw/q7c3M3GzliN0xxaOuzDgFfH32RKC/hPq7PaxEBMJ2eAhZReZHzp419KkFgZqXq27mjC5EUQM6/AVrBerpxtugVWdQriLCs9rqnq0uMT6RADlZjoZDL6ysunILd7Rx+NAdVGFbzqtMdKj7Ge3GjnzhmwLG9cSs1Vx38iqf8uJSi8LWmfIXmfSFiBEZyjUBeBYFZNG22I6fvfV0EjgaAo/dRyLEvFZ5QN2t/J0j5jwY5BYJsVGtYnJ2dLTqe4pBFzwPlhizMA6VZwgCwJ4SAk9e0UL+QX1nxShO6K3niKIikAJL+jaAVrL8olR50h4tOZsWxm22d/uyrgaCgYsxPExQ934jaBV03y8sHYBcfbPb6MQDH9sbtfW3N7r86CWYeqbuTC8NrqhEjsAr+Ro0vDH+LX2XHGWaay6+HwNEAcDLaO8Ru0Cvhr6aVD2UCPoOI+ehM9xSHWCq5Qdjh6WVGixCAkyI/jOkdyF3rXzteaQKrCRSoIKT9m5qgG9tw0exw0Yk1aan7/9i7ltbGtSTswcaSYiL5ERl0LVl+dNsY2+POJht74ZCFCXSD3ffSFzIQSKZNbtOb25MEhtAwd0z3zCL7uw70alb5T974b8x5yPJLtnSOJLvd1LcLAddRqVRfVZ06p26OcoxZ6MZRMdZZDBob0ahIcNwPwPdmDl+okAEDvn8Y981M2EkwqR8dD3j6aiTCwDFxN/zr0j7LU3/OnjY8C9fxFoHfV7OGNgLKgDcf8eHh31JY/BuJFF6d5LwqVFiEx10WYWL2GhuMmYOA3SohVheAfTZhY6Dgvb5Ab2MTGISu9Dn2qm9YCdjLw9pineSOp5fsaFcKEDBgD1A4ryvh7gTjX89+epC5lie5b94xN4KxbEQjfgksAyfHU6oMTkD3W4UWHLpBAybgIGMUFKDEb2vh2fpPtbNyaAUfckHpcdeIBEzA3uaXeYgUBKb6vuZyCn+jUNLn+JhmzoA9lX02h0UCHbaWfAEEDNgPaNfhJcF070a87Ptoq8GbdzExGAePEqwHto+wdfJeDMRlYw2rb9nudyK+l5/drJ6ZUDNg+4hPQAqqhmrrBzfHm28J9RVmKrcPhUjgBMxwb12Q9X3XU/hudaZI+ijOToKFG19lH3IK7Pi1JAMBA/YEkn5eN0UhFLck0PT3dcLPAl/eN8UAkiyBL8GqflX8Z+B0G/xyyHq8Bt9Yxs1utOfrODYRQiVgcsTHr4aETed3AoRsFXyEwO1czBwPNZdqDh8BYwYWBd8fAL4/i6G+L79wP4W/iX9lPgKOFHyVfQQxNvlWKUSAgAF7RMHGza9xUYgFTsHksGKz7zer0ZED8pmjUwY0eRIs7c27se+6JSl+D4rs0mkGLnA+8iTbG6jjkAk4orXLY78EQRWUD9/YtetmadOgDr46vyCatw+623YKJwEjBma7t24NK6q9BoOi0tcqVw5s91nwEbCvcIOeAkujHwECBuwR5FoKuaVgKZg0S2bKpw9p/+trXfjcqKaNYF2uCx6KV/7qlnTG7XvObfDqV5OL/+lM+LfVlW6U4Ak48vKmKYr82wTWEOBPrwtbKfjUzsqZwNoeSDeQIMY/D1xti5+A8XEFxVcZmpxDYKwvGBwnEEiga/U5chIwCTd4Gi8t2eQUGBAwYL+Q+Hj2rrRwlt7/3i9OCyrRQJZXfXMp+iBBqxLOOeEu2fLVqIY9NOcpLOIH75tc+T/m39PqqicKgYAj8vlJ1oeGsOMs9xrbco/Rq7oqBkTBeC6WmGv2G+7RlQ8CtuswAvfHmGGvL/CcQJjrc+QlYBRv1xWOj50+Jb1sDwgYsG916CKl4EA2yMiFBhkFpQVyQMtLv6IunrMwJWR8NYKRuiWfxyaOJPe5wl9dLfCwm0BG8lQdNsPCIGASIfG28uH0t3Q8iG7P1mXtP0/K5plMHkMrfCC2dHnU0D24dl8EHCle/ZrjM0HBahBj/xSnJxAEBqYX3083mvkJGFkTe7hBn9KSDQQM2E8KxnfaxESB3y1NL60pmZ+6mhzg6qpvKAky+kx6s4J6668RTP/YKfMkTbQOf+klQdroj5qMRVOy432kRbZGwChCQmklc4Q03UA9rclbtfWCRcE+TF2w5mGWey1vpuWPgCPJWpvHBOm8RbcGsXXVl+tLhnNb5KaMWanHBwGzhhv2aYvpUwIBA/aRgvMPqZFipcGc1S78FU6QWzqtGIVgV5f+SDbvmKrk1EnGP3cNn9+edPALc9JEbzYs4fYcf9KlNG5U905vtCm3G0UOJ7ktAo4ktftmjrGCItAK7vHA2LqtYwpWuU2dXgclZrLNfiPh8eX6JOBIJH91oogsQY4wbcToPXDuvqRJ/4MnIiSi5ks9fggYhxvvPEumLR7zpy2AgAH7ScG6dl+nA0+FTdfOr/VKeKhMSRkdtfJyJGh7l6JXdXPzNLhVAqQ7dAHEAjJT0iRYPhrRb8XwrwfJ+MWr8GnKT8+kMhEwGay0jHHWK0UUGqmmdSuwwFAqOfZZH+BTKFqucdWZM3VW9sWTED51HxMMIh1U7F27zCaILYEGgD4aMZK1jofQb8r0l0dzrzJ9lB0vPS0LCeanO/Vu37pARzUsnLZIvlD9yAYAdgY9+rH9bBLHFHO/fn7uY8fp3kQsZcunAy0RjqnLxtWsSi54qRCWlKd+Qw9mNXbSFHONTSzuL5UR/QbDLsT5umdsVl3UbvhmIeCSrwwY/0iikRopGdHLUGa7VNJ7SOzEztHTy9GH1NTUPVr6zM7VUe+OqcjjpGKmDHhaOveQtwt29Gn6tUDj5inrElXZpZ6FfR6em7DWhhuCy2f+rleb/8rhHDBgX3Ng7EeN14iDs3Suits99Pbt9WRYSbnTfcwXwlueXHxoW1XytQuzFkTc+21XC4h+SdKk3XTKcTIUdq3Hns7UQdzf7N1Fg0vukHCrOOEsW7Azs7mU3ysBRyIHv5uqE5TLPkOWp2v3J3OU5qIh9cl7BTdMU4/TUYNuNynbIwtz6qiDokzWd+ugYibtUiu4n7eCDfaPvsf4u57/AFCuXj+TqMr57uVprImZPrlQvn5zqSw+rKmMoiwkuBDxbjL4cq9VXPjd5NXfFdOXbABgh5CRYxp2yiodbjabB7MMPGmdzm8rIfI9aQ+0oh6JhGroUgKzIJmAZrPw0pLI0JRS1nzqt6J6kKKRT4i2rk/KJDaxPbaT9FwWhyLFZMDCP7af1ZyzbJsbFlJ+ZwIWHAhYfl1ZgwbTU+g2pblq6HQQWHTkz9RTJyYebYfvDBOcLX1m6DnFfOohO+eIMh1VzKZdaVqiojGDw2pn9l/+NHxMBBAAzqKqVe3QSCoTxz0f8nL1evVhvzBqjWwTZGm8vSLZMnjTKYoz/MsGAHaYGyDHlDc+pDojU41j37RuPOhEzJTiilmutweP0cR2bLwQfRycPds+c7kIi52Peng7vDPwdykFrBhJNx5wbJJ1lk5CEXN01n3M68G/FRR9DNrOT44lx9VRb5HU1hDwOHNiLGsmKa+BxLhISmkoesuI6zX01Au3VMJm6sbjoH1xaCrOS7YMvZSLq3jdLYOwL4dhJf1qd5a345gh7vRdWvZf7gxbhh6UimhU5WB2U6ZvOZR6JIenZQ868417HG+vShZFEmQfoc/cKdjxKxsA2LVjQp4parQqqbOLw0NTVfB48oyNUjweV1Tz8LDe6Q/ODYt8pS0trVA0Wt32xYgsy14VcpHIRx4+d/pfjKieDG0Bibz2YXh2gpSSnZdOFIJCke65UdTDEl5IoCcnstH7mD13VjVH9f4XbSkGSr5QnQm4Huq5W0xplVT9+VBV561mRUPSd2PqBWTqd128ZGJSs7dKjCpLDP2sX3mk5LvzhaMvszFIXYwOyWfpZP/5AIsLNKpaNTtidYTpw9SHHqXhkTp7K8SQ0HPiIDsZAQB+XBLGqXA0qn2odFOpdt3GxW0qlepWvmjRKOLeXXwEko585mOl20917DW1U/0KCgaitPIWpleQ9Tzy2JVhKlW/sMR3Uv1upWaEqw6JPDmSfV7pp85mzz0kkuXlp5YHyg4IeBq9RbUvV/05q9mKhnxYOrYoFHEOUnNvtV4/SyHtYkPPWwVd6ftYbwEr+MPANoMV+w/8g1s2OyStFijTr486qeTOTHIXvxESZMPOLuBHJ2Fc0tETCfTFz4D+1O26jrSrheFlLaxJTm5jQfTnk8vSdXkL6pjKTuDIaEnysuD0m7gjAZc60e28HjmxAw3xrdha0k9yYdHSi7s1dBcFF+bMIFT7dzS7LdZ1seSoq8EDAD8iDUvs/9lmeLCTJTnLkXYm20ny6lkQntMv+6ihoC1dkvZltSGu1OGnd/exSUC+AADge8bL30rOBNxPgHIAAAAAAAirQGD8/C9HAlYGBVAPAAAAAAChEfBfJw5XGIhjtQKnMgAAAAAACAvJV+ok5nQPh/kIygEAAAAAICyk/5sdiw53+E1GBvSPAgAAAACwEXL+gJcs1/VghXwPBwAAAAAAe4+C9u/T33nn5Wr/dNoCFsa5NjRBAwAAAADgDHzrb7E2/NnMmFd8LVPyn4pzD5bS1UG/AAAAAACsSX4P7t5+y2bEcanOlwLnT0tOW8CxiXmeBPUCAAAAAOCU/Ka1P/8wc2QS24QzBa6VHSvQpAcLAAAAAADACuRi7ehvyl9EMnNcHGdOqhw/gu+hdBgjKYxLt9CDBQAAAADACnDjVRlPQEf0iwlTmCjXaY4E+Bv6Bact4OwQtoABAAAAAFiElK8N/6eS2rNosacoTJqvkkElwLGJeZcEPQMAAAAAMAf94O70WxYlvzFxLnmlRWjG08B335x2gFFCLT7BFjAAAAAAAPPQ/vGHWbKSX2Ghb+r91wM2BtZ+c2qBxmSe6xVB0wAAAPB/9u5mp40rDANwIizO2PzYsg0SsieDoQGhkAIbNnRBlEUUqZEaWpFFJKTmRxHqpk2CVEWpkkXaLnITVF3lgnoD3vg2OmOHUILH2EA21fNssGVmFmfz6vvmm3PgWLWe1HqDV5+nZugkByPFZvXPvu8Ap2HemXEUEgCccDdpF6J+uZlWxLujJHBlf68T+hXA2UtIcxYaAP6r9HP/vnHIauAsgYfsQlf2b2b5G/p2oOv2oQSAE6Z/SNohZ3SqMHwC5+dvKHQW16wzAJwU55TARwk81PxyMzd/03vbhQMATteu7xbbfWenel3o5PflK4OL4PTH+Pnj6NM7xKfuYgQLAE67drvRvwTuJnD0z+TL6oAITn+YX7uVdPLyN2pHh0awAOC0lZv9x5d7CRxqj+8tTxfz0vfK/PLzxwu59W96i/K2AhgATms+Kuc0obsJ3I6e/PXHcrMbwcViL4mLHz9UqsvPP5Sjdk6Adwvg1wpgAOhn7kY2h5VXwqZF8Jvyh3s/xdXKiasqzWtz73Yelt9En+2ideId4HayP22FAaCfu7lN6N6WHCFEjeT7+lercanUqlarrVKpFK//duth0oi6pxfmXmoEGgByTT9LBiVwFsHtqDZeTn6dfLtTr9d33k4+/HpmdiHqZvOg6zobrywvAOS4vvUk7zHwx1ZyVMhOCY6uLjTGx8cbV6++iTrZBh7RgKuy/T3KDgIGgHzLk7V2NCCBu3GahvCnh72hkG0hPeiK0G1Am8ACgAFePYgGNZM/hfCxs/43C/SNFSsLAANU1jfyNpM8l2wjy/bfSyagAeCMBB44Cn2e/E22PQAGgDM0D3Y7hShcVv6GdnkntqoAcJbWpSVwt/4t7xjAAoChEvhm/qbOI5G/ADC8ZncSK1x0FCu7RZLmb9GKAsAwKusb3a0lw0Xaz1n+7m17/gsAw1vbbESFCw1DZwm+cX/CUgLACFZuJ+dvQ3fL32j8l2/nLSQAjCR+tNcJ55yGDqEQOrv1VU9/AWBU1fUHjYGHDA4avgqN10vXrCEAjK6ysrVXyyI4jNh8DqG2992q7ScB4Hxa6zeSqBfBYcjecyiEsJC8eNXUfgaAcxfB8bPDcloFZ2cOnpnBvWOBo0byYikWvwBwEdNzB5vJQtQOg8/9/XhMcCca37uzFOs+A8BFNeMfb+/OZhkcCt0UDqcPB87Ctx3VGsnh07WW+AWACyumVXBr9eCbxXKjFnWyTnQhzeFCT/Y3ZBnciRrlxc36y9izXwC4xDJ47P39rc2pmdlGLY3h41eT0s+1hcbsTHJ4Z3stnqhYKQC4XPOtsbn9p1s3NqemkpkjydTU5outp0vv49a8JQKAL2O6OTEWl+KXS0dW0m9jE02PfQHgiykePd+tTB85/s3yAMCXjeFi7jcAAAAAAAAAAAAAAAAAAAAAAAAAAAAAAAAAAAAAAAAAAAAAAAAAAAAAAAAAAAAAAAAAAAAAAAAAAAAAAAAAAAAAAAAAAAAAAAAAAAAAAAAAAAAAAAAAAAAAAAAAAAAAAAAAAAAAAAAAAAAAAAAAAAAAAAAAAAAAAAAAAAAAAAAAAAAAAAAAAAAAAAAAAAAAAAAAAAAAAAAAAAAAAAAAAAAAAAAAAAAAAAAAAAAAAAAAAAAAAAAAAAAAAAAAAAAAAAAAAAAAAAAAAAAAAAAAAAAAAAAAAAAAAAAAAAAAAAAAAAAAAAAAAAAAAAAAAAAAAAAAAAAAAAAAAAAAAAAAAAAAAAAAAAAAAAAAAAAAAAAAAAAAAAAAAAAAAAAAAAAAAAAAAAD+V/4dAD4F+hH+Pex7AAAAAElFTkSuQmCC;clipPath=inset(20.1% 15.33% 12.37% 15.33%);" parent="1" vertex="1">
          <mxGeometry x="680" y="579" width="140" height="88.17" as="geometry" />
        </mxCell>
        <mxCell id="uI3OphNUKf_lqw-jZ9q1-29" value="" style="rounded=0;whiteSpace=wrap;html=1;fontSize=16;align=center;" parent="1" vertex="1">
          <mxGeometry x="480.4100000000001" y="918" width="120" height="80" as="geometry" />
        </mxCell>
        <mxCell id="uI3OphNUKf_lqw-jZ9q1-30" value="Public API" style="text;html=1;strokeColor=none;fillColor=none;align=center;verticalAlign=middle;whiteSpace=wrap;rounded=0;fontSize=16;" parent="1" vertex="1">
          <mxGeometry x="480" y="918" width="120" height="40" as="geometry" />
        </mxCell>
        <mxCell id="uI3OphNUKf_lqw-jZ9q1-32" value="" style="shape=image;verticalLabelPosition=bottom;labelBackgroundColor=default;verticalAlign=top;aspect=fixed;imageAspect=0;image=data:image/png,iVBORw0KGgoAAAANSUhEUgAAAO0AAADVCAMAAACMuod9AAAAmVBMVEVChfT///8+fORWkvQ+fOM/g/Q3gPQ6euRSieb7/P9dj+g1f/Q2eOMxduNBg/E4eePz9/4tdON8pOzh6/3p8f7u9P1CgOWzzPrZ5v1Ch/SVuPjP3/xQjvVGifT1+f60yvRvm+ptn/bL3PxelvWlw/mLsvh/qve80PWNru6rx/p0pPfE1/uRtvhlmvVWjOedvfhqmOmBp+wib+Kuk4qZAAAOZElEQVR4nNWdeWOiOhDAEQ1Iwa0WPOrZWlt7bNfu+/4f7oEIZkICOSbIzp/0vS2/TpLJnDg9MwkW89fntWNf1s+v80Vg+LaO0f8dL/th6BHSAi0hXhj2T/HNaONX4rUBSiF75NWEV582OG1aZs15Hw/661mbNnn2WkfNxXtO2qZdbG4Fm+JuFu3SLh7bX8RXIY+auHq08eaWsCnuRu+s0qLdft9uGefifW9bo13eGjbFXbZFu2jlOlEvhOhsXR3a59vDprjP7dAew1uTniU8tkG73dyaMxeyVj+o1GlP3VBtqtyTfdrE6cKuzYQ4yjdIZdq321ufQrw327SrDlifQoizsksbfHcHVsMKKdLOu3JE5RLubNJO111SbWaFxhZpO3BBhuKpWSEl2rgz1qeURyUrpET72TXVpsr9tEW76tYRlUuoYoUUaIN+59ZxKuTFDu1HF1WbKndug3baEd+nIgpWSJ72d/eOqFwUgjbStLeNqdaKfHhZmraD1qcQeV9Ilvarm0dULuEel3bbSetTCHmRTIRJ0h66u44zCT8waZPHW/M0yGaKSNuh8AxfvFc82kWXj6hcPKk0mBRtp8IzfJEL2sjQ7rq+jjPxvnBotx0Lz/CF9CVSBxK0nUkO1IuMFWqmjbvq+7Cybg7aNNN23voUImGFGmlX/wqsQ7xGX6iR9uVfOKJyabZCTbQdSw7US9hkhRpox//KEXWWxgR2A23nkgP1Eh5MaDuYHKiXhtRBPW2HwzN8abBCtbT7fw3WIaQ2dVBHu/2HrE8h9VaojrajyYF6qS2jqqFN2miOQBfSr0kd1NBqJAfqVn5bu6IugS2mjZVhH4/foYjJ2322tC8IEVshMa167WY47x1EjRXesjdvSb01qQMhrUZyIDsPFy98XrJOV0tLjRfiBLaIVis5cL7JnPgqPLtjH61U6JNvUepARHvQ2WXeuXxpxd29+eERP7exez1RAltAq5ccuOyY4MQpDywqBj5ayIwKy6gEtK96O2x9SVCs+lUVepejMhYf3GgiskJ8Wt3azTKoGywrSNf6iIP9ytBHfuqAT6vbOUC5ICv2cCbf5c9S9SIQ1b4I3wpxafU7B9bX03C7hCok5JqHC6yr1+NaIR7tWD85ENJhv1UfvgB9X08PZ6u8/AQ2j9YgOQCPBxjCI2B1cQ9uROGWUXFoE4O2WliZlkx+0T9cw5Ry/GJ19z5yInIcWqPkAAGH4R+f/hmbhgtONldz+FuG1iw8A6N+h5FLader/P5YcKvGEEKqVqhCa9g5QNmZjGY0oHBJv3Jy2Ny9pFrMW6GdG/opIbi0/fEH7vVnvERNxS7jiVcpo2JpjTsHYGPDMnIpXO6Fzp56yQt7ULG0J1MXFK6f1chNcQuaqysGQmULzq0aRTw2gc3Qxua/4pG2M8HMda/aJU6xlB9+QDhlaWk1swlshhYhOQDtzHtE45bVAvv/XLDiV30rvKwVgLR7hCUFkxP7iUvhlrHtre+Pnug/fLC0sntDaIUALU7nAEgrTrOlXOJe44FP9240A+rdv1iIWjGpA0CLkxyAqZiHiMYtI/m7TOejB1q9Yxu7FyawadopTu0mrHzf5bQX3PLETlw/fciqt4+uXrKmbzQ0LVLnAOMZ5Ev5YoiIUyzzn/vz0+iJPsLHr+g3Z1BGRdGiDXaAwxme7t1CHGplfUzyZ9EIHs5rbPXSCWyK9hPrz+oBz2A+cSncMoQSjy7P/MkDrd7tb+TdS9uIK+0X2h+VPNN7Jfb9Ajbbu8WJHdyVj6MZuFp94e5eeg5ISYvYOUAcYOWuWBlumbY4jcrHPjycp6+o6qWsUEmL2TkAoySnyKVwyxN7RT1mD+cv1N17DYgVtAlmYRT0DBY01sDtXx6P//jU83T3AturGb7nv05ZzFvQYv7r6Vahr1PBkMZy/WIb/aX/CtXd+4j3RmVA5UKL3DkAix/eAVZU/Or9yIUyATfn7Rva7iXhFNAidw7AYOpqQjPd/1xO7PGMoa2oF232XGH3ctodtju9AVEDHyzlQXFiP0UsrmvrcL6kDs60+J0DsLMO7tDy8nRkl7JbOZyPSIfzJTh4psXvHIBu9BdYytHD5XECdZ6LHwH1Jm8475afJBmtjc6BNU07BTvUHxRhyZ/qUq7u3qODod48gZ3R2ugcAOmvwsm9yKT0DDhL+fwfAMdoilJ7dI53OpY6B2AwdQewor+Xx7GA1o1cqF6Uwzk+01oZasc4uXCHDosTe8jZuLmM/tLqjRF2b+YLOZaaQq7B1HyH3gOU4sQ+THyRTODu3RmrNxs15uDeGa8CI9cf8FR+vzxeDO/EMjzRjmNivHtTt9vZWqpUZTwDsJT9YfE8qJUekJ3hzTndXI613lpQ4k/57pn8pzU01lS9Xux82Ko9hJ7BCV6nGno7RGJWGBoenVdb+UToGSyg1zcU8TSq10A53tKx1ze9oTO5W2hs7nVntQdz/d1LPh17gyw46a/rUpYc2cCR+FM75txv/k+0BXoGjJP7pE2bmjNdWpuNErDMIoC++0BuQAVfEt03cuw1xTNVHkNwTN0ZfEQj/vF/Nf96zgttLJ5SsCZ6AR0D9fm4hQRzN72GauG+OJYujpURuCdIqzpB9fpX+8n/IQ1c8uZYaydmEsXwMjXThT3MirNdHdc7ObEtWjiRYeHStKVboCjxHbVClHHDvWNtbiHMax5g9EJvIR9c4Dgq4hJn6phXSAn+bdCmEkAHd6BzIsc/wGQr46Y2wunFdkrRYKgmHoCF/CAiqpG5W43ZKeGGX1mkxs6pDGtNdkAtE/Xh+/ETN4algJtddlLa2MZgMGZIzhNYyDPV8ezBfMANxqrgZq1ZWYTVxuADWCM2BQtZ+ZKccHIoqrgk+w5LRmtj4jVMjcAcyEhxfvcHZ8cq45Lshc6ZEfwbBnHAqQuj5yOlhZxUjmIoAyncPMuX5/jQxwHAwAXMjEQ/KrC8o1gd93KNzWkxqjmBwKAUzHqpBKUER7HyYr58peOSrUYe48F4BCCj6bvyX/bZzZoUK4l7qVu60CbItM/gpWEw+U722y+JlGIzaVrMRfl/UWWyRF3LjEfATxRgKbYZt0xKFbQGvXs8WhCHYapM5DyCpqNYBbfsVSmrwzCtEGwKYiqIZlIewU50eRKKGPd607nWOSKGbGDD1wKq9m+vWeR3rIx2rzmaK+0ejxa6tkxSRGKmpsqOpYX/NpQ3RlXsohUkMF1HTIymMbRadyuu1y4Xlx5cQ9GiDQqDpfZxBDyCRtdWV7EiXI+6ldOV9li+EOzi/lDyCMYaO7YWF5yYNC3Wt+egawtjNFH9Qj5G2ooV4IJOSdAhg2OFoGvLxGhqPYLkwUSxXFz4MrDXC8UXgrm9HQw21i1kgx0rxIVDACEtyjdx4MR1xrUV521TxQrribRxmQGPTNcighWCrm0Ci/7Eya4jhmJZXNj7ZKMjFSa7jtC1FSW7puY7lofLDmZlu42NrVCdayv0CPAUC3ArnfMsrbEvBD2C7YB+C/8PdyEnD0rujjQuU4/HoTW2QtC13Uu4tsiKvYjDG1OKPQHCCcFCfm9MdiV/cY5iRrLJE9VB6NjTPUif/rcCUH7gzqojvY5DG4o9i1eN9nEmtxhF5GCyi4nRVFzb8UNkQ7Fn8YfVQwJ5Kg8zwGMJT2Q22XVsjBUbyITziSTexCUDK8QMZ4FVQ0yya4xpYysS8ZJNyNO0YEUYrKNhkl12juJCfJ93R+VOStNvhgJjMmPYEwJc26mdo/j6y7jGjj8FT9sK0T1euwHwbP17aiF/WVWsyz3+hbS6VogatVcJG/p35c/GlhWbqpY/rVMwvVLTF7rewneVIMQ12WVdsW4kyL6gTiZ1Nkmh2OrNd3I5Nmzv2DOt4AN9oqmzWlao8Dl4QYii3PzL3uXpCisKbIpotaxQ7trGXJcmOoddp+8T64p1fVcUIRFOi9bwhfJZCILo0mjVkmJF1qeWViMil7m2wgzOLNux9m7FtAyECWIxrXpELnVtd6Kbb+ra7q0fxbnUxDVrJvirW6G9+OY7OraxYzO5vxMj1dAq18g91imvJcWKrU8DrUaDuTsQvkQ7im2oGK2j1bBCNbhtSV3pWe0XczTmdt4aVxixbqbVicjdFtcf1uYQ67/9pNN3fUvYpvRww1fMdHyhG8LWWR8J2kSnDP92i3nUUFTY9PVBnRq5X7fCbexXaKLVa6u/Da5fa31kaDUjcjfBnTSWAjd/EVZv+McNYHnJAWVazW+OtE87au67kfiSs2a/UNuw0VNzuagErWa/0K92Yf1IoqRd5gvsmp1+7eJKFXnL0OrmhVrFleofk6HVr05oD1auEUWKVr9Gri1YyeEocrTaNXJtLeaJRI23NK1+jVw7uNzUtD6tfqV2G7hS1keB1mDkYwu44uSAJq1BdYJ93OZeBUVaoy/pWIaVH2gkTRsYDEK0q91IfuaNNK3RJESruKOa5IA2rVGltkVcWeujSJuY9AtZw5W2Poq0ZoOHbeFKWx9V2p5Rv5AtXNneZWVa/a+JWsMVFEZh0BqO47WAe682cU2NdmVWl46Pq2B91GlNJ/hg46oOM1KkNZ3gg42rOPJTkdZ49hYqrvLkQFXaselgNUTchtQ0Aq35ZyvwcGsbPnFozWcnYOFGDalpFFrzrlUkXI3Bgeq0CF2rKLg6o/Q0aLWqE9BxfbWZXNq0vYN5B7Y5bn1hFCKtsRVCwPX/cJtCLND29ggDL81w/UguOYBBi/JBISNcrXWsSxtgfKPIAHckkYfHo8UZJKeNO9GdEa9L27uhdic6Q2vNaHsfCCOLdHDvXc3PdhjR9hbP5t+PU8b1Rz/aI9ONaHvB8cUz3b5quNHo7mgw+t+INpX92yYMTVRMfkk2HPjRaDJ72JuwGtP2etvF/PfnS99AhjJy9/Q+X+hcn4D8D3rILl7MWLppAAAAAElFTkSuQmCC;" parent="1" vertex="1">
          <mxGeometry x="523.74" y="958" width="33.37" height="30" as="geometry" />
        </mxCell>
        <mxCell id="uI3OphNUKf_lqw-jZ9q1-17" value="" style="rounded=0;whiteSpace=wrap;html=1;fontSize=16;align=center;" parent="1" vertex="1">
          <mxGeometry x="480.4100000000001" y="758" width="120" height="80" as="geometry" />
        </mxCell>
        <mxCell id="uI3OphNUKf_lqw-jZ9q1-18" value="Provar App" style="text;html=1;strokeColor=none;fillColor=none;align=center;verticalAlign=middle;whiteSpace=wrap;rounded=0;fontSize=16;" parent="1" vertex="1">
          <mxGeometry x="480" y="758" width="120" height="40" as="geometry" />
        </mxCell>
        <mxCell id="uI3OphNUKf_lqw-jZ9q1-27" value="" style="shape=image;verticalLabelPosition=bottom;labelBackgroundColor=default;verticalAlign=top;aspect=fixed;imageAspect=0;image=data:image/png,iVBORw0KGgoAAAANSUhEUgAAAO0AAADVCAMAAACMuod9AAAAmVBMVEVChfT///8+fORWkvQ+fOM/g/Q3gPQ6euRSieb7/P9dj+g1f/Q2eOMxduNBg/E4eePz9/4tdON8pOzh6/3p8f7u9P1CgOWzzPrZ5v1Ch/SVuPjP3/xQjvVGifT1+f60yvRvm+ptn/bL3PxelvWlw/mLsvh/qve80PWNru6rx/p0pPfE1/uRtvhlmvVWjOedvfhqmOmBp+wib+Kuk4qZAAAOZElEQVR4nNWdeWOiOhDAEQ1Iwa0WPOrZWlt7bNfu+/4f7oEIZkICOSbIzp/0vS2/TpLJnDg9MwkW89fntWNf1s+v80Vg+LaO0f8dL/th6BHSAi0hXhj2T/HNaONX4rUBSiF75NWEV582OG1aZs15Hw/661mbNnn2WkfNxXtO2qZdbG4Fm+JuFu3SLh7bX8RXIY+auHq08eaWsCnuRu+s0qLdft9uGefifW9bo13eGjbFXbZFu2jlOlEvhOhsXR3a59vDprjP7dAew1uTniU8tkG73dyaMxeyVj+o1GlP3VBtqtyTfdrE6cKuzYQ4yjdIZdq321ufQrw327SrDlifQoizsksbfHcHVsMKKdLOu3JE5RLubNJO111SbWaFxhZpO3BBhuKpWSEl2rgz1qeURyUrpET72TXVpsr9tEW76tYRlUuoYoUUaIN+59ZxKuTFDu1HF1WbKndug3baEd+nIgpWSJ72d/eOqFwUgjbStLeNqdaKfHhZmraD1qcQeV9Ilvarm0dULuEel3bbSetTCHmRTIRJ0h66u44zCT8waZPHW/M0yGaKSNuh8AxfvFc82kWXj6hcPKk0mBRtp8IzfJEL2sjQ7rq+jjPxvnBotx0Lz/CF9CVSBxK0nUkO1IuMFWqmjbvq+7Cybg7aNNN23voUImGFGmlX/wqsQ7xGX6iR9uVfOKJyabZCTbQdSw7US9hkhRpox//KEXWWxgR2A23nkgP1Eh5MaDuYHKiXhtRBPW2HwzN8abBCtbT7fw3WIaQ2dVBHu/2HrE8h9VaojrajyYF6qS2jqqFN2miOQBfSr0kd1NBqJAfqVn5bu6IugS2mjZVhH4/foYjJ2322tC8IEVshMa167WY47x1EjRXesjdvSb01qQMhrUZyIDsPFy98XrJOV0tLjRfiBLaIVis5cL7JnPgqPLtjH61U6JNvUepARHvQ2WXeuXxpxd29+eERP7exez1RAltAq5ccuOyY4MQpDywqBj5ayIwKy6gEtK96O2x9SVCs+lUVepejMhYf3GgiskJ8Wt3azTKoGywrSNf6iIP9ytBHfuqAT6vbOUC5ICv2cCbf5c9S9SIQ1b4I3wpxafU7B9bX03C7hCok5JqHC6yr1+NaIR7tWD85ENJhv1UfvgB9X08PZ6u8/AQ2j9YgOQCPBxjCI2B1cQ9uROGWUXFoE4O2WliZlkx+0T9cw5Ry/GJ19z5yInIcWqPkAAGH4R+f/hmbhgtONldz+FuG1iw8A6N+h5FLader/P5YcKvGEEKqVqhCa9g5QNmZjGY0oHBJv3Jy2Ny9pFrMW6GdG/opIbi0/fEH7vVnvERNxS7jiVcpo2JpjTsHYGPDMnIpXO6Fzp56yQt7ULG0J1MXFK6f1chNcQuaqysGQmULzq0aRTw2gc3Qxua/4pG2M8HMda/aJU6xlB9+QDhlaWk1swlshhYhOQDtzHtE45bVAvv/XLDiV30rvKwVgLR7hCUFkxP7iUvhlrHtre+Pnug/fLC0sntDaIUALU7nAEgrTrOlXOJe44FP9240A+rdv1iIWjGpA0CLkxyAqZiHiMYtI/m7TOejB1q9Yxu7FyawadopTu0mrHzf5bQX3PLETlw/fciqt4+uXrKmbzQ0LVLnAOMZ5Ev5YoiIUyzzn/vz0+iJPsLHr+g3Z1BGRdGiDXaAwxme7t1CHGplfUzyZ9EIHs5rbPXSCWyK9hPrz+oBz2A+cSncMoQSjy7P/MkDrd7tb+TdS9uIK+0X2h+VPNN7Jfb9Ajbbu8WJHdyVj6MZuFp94e5eeg5ISYvYOUAcYOWuWBlumbY4jcrHPjycp6+o6qWsUEmL2TkAoySnyKVwyxN7RT1mD+cv1N17DYgVtAlmYRT0DBY01sDtXx6P//jU83T3AturGb7nv05ZzFvQYv7r6Vahr1PBkMZy/WIb/aX/CtXd+4j3RmVA5UKL3DkAix/eAVZU/Or9yIUyATfn7Rva7iXhFNAidw7AYOpqQjPd/1xO7PGMoa2oF232XGH3ctodtju9AVEDHyzlQXFiP0UsrmvrcL6kDs60+J0DsLMO7tDy8nRkl7JbOZyPSIfzJTh4psXvHIBu9BdYytHD5XECdZ6LHwH1Jm8475afJBmtjc6BNU07BTvUHxRhyZ/qUq7u3qODod48gZ3R2ugcAOmvwsm9yKT0DDhL+fwfAMdoilJ7dI53OpY6B2AwdQewor+Xx7GA1o1cqF6Uwzk+01oZasc4uXCHDosTe8jZuLmM/tLqjRF2b+YLOZaaQq7B1HyH3gOU4sQ+THyRTODu3RmrNxs15uDeGa8CI9cf8FR+vzxeDO/EMjzRjmNivHtTt9vZWqpUZTwDsJT9YfE8qJUekJ3hzTndXI613lpQ4k/57pn8pzU01lS9Xux82Ko9hJ7BCV6nGno7RGJWGBoenVdb+UToGSyg1zcU8TSq10A53tKx1ze9oTO5W2hs7nVntQdz/d1LPh17gyw46a/rUpYc2cCR+FM75txv/k+0BXoGjJP7pE2bmjNdWpuNErDMIoC++0BuQAVfEt03cuw1xTNVHkNwTN0ZfEQj/vF/Nf96zgttLJ5SsCZ6AR0D9fm4hQRzN72GauG+OJYujpURuCdIqzpB9fpX+8n/IQ1c8uZYaydmEsXwMjXThT3MirNdHdc7ObEtWjiRYeHStKVboCjxHbVClHHDvWNtbiHMax5g9EJvIR9c4Dgq4hJn6phXSAn+bdCmEkAHd6BzIsc/wGQr46Y2wunFdkrRYKgmHoCF/CAiqpG5W43ZKeGGX1mkxs6pDGtNdkAtE/Xh+/ETN4algJtddlLa2MZgMGZIzhNYyDPV8ezBfMANxqrgZq1ZWYTVxuADWCM2BQtZ+ZKccHIoqrgk+w5LRmtj4jVMjcAcyEhxfvcHZ8cq45Lshc6ZEfwbBnHAqQuj5yOlhZxUjmIoAyncPMuX5/jQxwHAwAXMjEQ/KrC8o1gd93KNzWkxqjmBwKAUzHqpBKUER7HyYr58peOSrUYe48F4BCCj6bvyX/bZzZoUK4l7qVu60CbItM/gpWEw+U722y+JlGIzaVrMRfl/UWWyRF3LjEfATxRgKbYZt0xKFbQGvXs8WhCHYapM5DyCpqNYBbfsVSmrwzCtEGwKYiqIZlIewU50eRKKGPd607nWOSKGbGDD1wKq9m+vWeR3rIx2rzmaK+0ejxa6tkxSRGKmpsqOpYX/NpQ3RlXsohUkMF1HTIymMbRadyuu1y4Xlx5cQ9GiDQqDpfZxBDyCRtdWV7EiXI+6ldOV9li+EOzi/lDyCMYaO7YWF5yYNC3Wt+egawtjNFH9Qj5G2ooV4IJOSdAhg2OFoGvLxGhqPYLkwUSxXFz4MrDXC8UXgrm9HQw21i1kgx0rxIVDACEtyjdx4MR1xrUV521TxQrribRxmQGPTNcighWCrm0Ci/7Eya4jhmJZXNj7ZKMjFSa7jtC1FSW7puY7lofLDmZlu42NrVCdayv0CPAUC3ArnfMsrbEvBD2C7YB+C/8PdyEnD0rujjQuU4/HoTW2QtC13Uu4tsiKvYjDG1OKPQHCCcFCfm9MdiV/cY5iRrLJE9VB6NjTPUif/rcCUH7gzqojvY5DG4o9i1eN9nEmtxhF5GCyi4nRVFzb8UNkQ7Fn8YfVQwJ5Kg8zwGMJT2Q22XVsjBUbyITziSTexCUDK8QMZ4FVQ0yya4xpYysS8ZJNyNO0YEUYrKNhkl12juJCfJ93R+VOStNvhgJjMmPYEwJc26mdo/j6y7jGjj8FT9sK0T1euwHwbP17aiF/WVWsyz3+hbS6VogatVcJG/p35c/GlhWbqpY/rVMwvVLTF7rewneVIMQ12WVdsW4kyL6gTiZ1Nkmh2OrNd3I5Nmzv2DOt4AN9oqmzWlao8Dl4QYii3PzL3uXpCisKbIpotaxQ7trGXJcmOoddp+8T64p1fVcUIRFOi9bwhfJZCILo0mjVkmJF1qeWViMil7m2wgzOLNux9m7FtAyECWIxrXpELnVtd6Kbb+ra7q0fxbnUxDVrJvirW6G9+OY7OraxYzO5vxMj1dAq18g91imvJcWKrU8DrUaDuTsQvkQ7im2oGK2j1bBCNbhtSV3pWe0XczTmdt4aVxixbqbVicjdFtcf1uYQ67/9pNN3fUvYpvRww1fMdHyhG8LWWR8J2kSnDP92i3nUUFTY9PVBnRq5X7fCbexXaKLVa6u/Da5fa31kaDUjcjfBnTSWAjd/EVZv+McNYHnJAWVazW+OtE87au67kfiSs2a/UNuw0VNzuagErWa/0K92Yf1IoqRd5gvsmp1+7eJKFXnL0OrmhVrFleofk6HVr05oD1auEUWKVr9Gri1YyeEocrTaNXJtLeaJRI23NK1+jVw7uNzUtD6tfqV2G7hS1keB1mDkYwu44uSAJq1BdYJ93OZeBUVaoy/pWIaVH2gkTRsYDEK0q91IfuaNNK3RJESruKOa5IA2rVGltkVcWeujSJuY9AtZw5W2Poq0ZoOHbeFKWx9V2p5Rv5AtXNneZWVa/a+JWsMVFEZh0BqO47WAe682cU2NdmVWl46Pq2B91GlNJ/hg46oOM1KkNZ3gg42rOPJTkdZ49hYqrvLkQFXaselgNUTchtQ0Aq35ZyvwcGsbPnFozWcnYOFGDalpFFrzrlUkXI3Bgeq0CF2rKLg6o/Q0aLWqE9BxfbWZXNq0vYN5B7Y5bn1hFCKtsRVCwPX/cJtCLND29ggDL81w/UguOYBBi/JBISNcrXWsSxtgfKPIAHckkYfHo8UZJKeNO9GdEa9L27uhdic6Q2vNaHsfCCOLdHDvXc3PdhjR9hbP5t+PU8b1Rz/aI9ONaHvB8cUz3b5quNHo7mgw+t+INpX92yYMTVRMfkk2HPjRaDJ72JuwGtP2etvF/PfnS99AhjJy9/Q+X+hcn4D8D3rILl7MWLppAAAAAElFTkSuQmCC;" parent="1" vertex="1">
          <mxGeometry x="523.74" y="798" width="33.37" height="30" as="geometry" />
        </mxCell>
        <mxCell id="xoEMEb9Q6lRqkHzQhWVF-2" value="" style="endArrow=block;html=1;rounded=0;exitX=1;exitY=0.75;exitDx=0;exitDy=0;entryX=0;entryY=0.5;entryDx=0;entryDy=0;endFill=0;edgeStyle=elbowEdgeStyle;" parent="1" source="xoEMEb9Q6lRqkHzQhWVF-9" target="uI3OphNUKf_lqw-jZ9q1-30" edge="1">
          <mxGeometry width="50" height="50" relative="1" as="geometry">
            <mxPoint x="710" y="898" as="sourcePoint" />
            <mxPoint x="760" y="848" as="targetPoint" />
            <Array as="points">
              <mxPoint x="400" y="888" />
            </Array>
          </mxGeometry>
        </mxCell>
        <mxCell id="xoEMEb9Q6lRqkHzQhWVF-3" value="" style="rounded=0;whiteSpace=wrap;html=1;fontSize=16;align=center;" parent="1" vertex="1">
          <mxGeometry x="480.4100000000001" y="598" width="120" height="80" as="geometry" />
        </mxCell>
        <mxCell id="xoEMEb9Q6lRqkHzQhWVF-4" value="&lt;font style=&quot;font-size: 16px;&quot;&gt;provar-assets&lt;/font&gt;" style="text;html=1;strokeColor=none;fillColor=none;align=center;verticalAlign=middle;whiteSpace=wrap;rounded=0;fontSize=16;" parent="1" vertex="1">
          <mxGeometry x="479.60000000000014" y="598" width="120" height="40" as="geometry" />
        </mxCell>
        <mxCell id="xoEMEb9Q6lRqkHzQhWVF-5" value="" style="shape=image;verticalLabelPosition=bottom;labelBackgroundColor=default;verticalAlign=top;aspect=fixed;imageAspect=0;image=data:image/png,iVBORw0KGgoAAAANSUhEUgAAAOEAAADhCAMAAAAJbSJIAAAArlBMVEX///9Eh/pEhfRAe95FhO1AfOJEh/lEhvdEh/tFhPBEhfJEg+uArfi/1PiArPVDgOgxdOA7eeHw9f260Po1euhTj/lKivmux/vG2Pmiv/7o8P1ynutzofNJguNSh+Pf6v02fvT1+f7S4Ps4gfqLsvdalPfZ5vxgl/Wkw/lLi/ZpnflblfkrfPp6pvaUt/ajwPxmluscceyzyvctd+s2e+lpm+2duvCnxvtckOclbdpVV+1uAAAQuUlEQVR4nO1dDXvaoBYuzgDWtlbth7MfatW6urX2rt3t7v//Yzd8HDhJiCaBGPc8nrkNCSG8nJf3AIl6cnK0ox3taEc72tGOdrSj/eM2mzx9vZ3Va29fT5NZU/CGZ8uX+ZzXa/P5y/Js2ATI8ebnTYyO1G8xypvrzXjP+Aa3rf3AMyDp7WCfACf3ZH/wNEhyP9kfwOf1fM/4hM3Xz/sCOPrZBMAY4s/RfgA+/9w3Q8H4z714cfbajAeFze/3EDVmm6Y8KIxv6kd4ft0owuVT7QgXzXFUQnyrG+DoV6MACflVs56O101yVBhf1zt/+7ppHOHNV50AJ8umAYqgWOfs7a1ZmVE2r1FsRo1zVBi/qU1sBg3OZrDNX+taSA0PwoXCicN6AI5fDwNgDPG1nohxEDKjrB6xeW4aFjJO6lhGHZAL63Hi6OVQRqEw/hI8YozPmgaVsrPQYjNkh+RCMRIDR4xx67AAxhBbYZ3445BkRtn8R0iAk9WhuTB24irgGiM9IaXyJf8mMglh4i+FN1Rl4LMoM+cxe9ScYeukiTrN9eI6TZFFuOnpKLX7RGOLL8zg8kzm4RIsgU2fBGVsyh6CHAbvU3Waa9lMfh0uYqynibajTkZdTTRmyuxxnWZJb5O0+xOGvZQ5ps9W//N1KIBfhqOUoesYkGlvOVqYJbUGg5mY6AiTZrhw0uaBNjQmubtPGWi5+QzYxdJ8zqskr25sfB1GbAptcjt62tlGlzMzI5alEs4ekxC/hwA4SkYKmrykpah7/Bgh3Dr2dh5lMN6TxfgqhNhYmZH0ApVEWge008el0mIqan7qXKWKTNeEztX6LHNMDYwYPzIluQy7dB5AbEY2FIrmUa66UsU6CvGPURAhqnuaMpWpgwqjwE/1VzWWqgipAVP9R9dMda+oegxDoITCOfd24uSeq/5nzDiQMhsJkLoyTVTZqATzTDSh6nRiSthmm8bT1PADauq+oKiA4Kn3ve9bu/tkOMlMFyrWJRlJqRFMy1iVaY6qLPkPS1BXZDJTD7xlaJLAkhfl1DNiwCa39o+Zc1GYQplOZQwNEQZ+pJrbsow9Ew4xYnzCKPa4nvmhiZ5yPhWLOHtW/OJLPyfeT4ngpx4/qmFUjxFMLWvM6p7mKzVldNPkYDbzUxi4spu4ZLIZyeZMCmfDtImaMT2/9wH4LC5piElA7uQbDnrIgXtMZUNYF0pCoZisghNzuvSFnd8iD1LDYc6AuolZK3Qk0brAPHalBou57VK8LFCDXrvRdLUmIAO8xm8QFHV/MU0EbkRE85CZCUNCqUwZRrXmMR1/5LXmHmuM4QsXQ4gj/aRa0BAPgTloqg1NN/GeweBEc1GiGYlyNH5m69RdyRmqlZjLSfPYAh+vuZY74KiZmxHtKatsjNiSRj+51kmYJhjZtPkElh8Uonn6cobAhrR26iFT1W+avnGipUJpg3ILZ5a3pjvR5IZaPHoyYCRV+00MXThbTVQY45rltmamA7v2vOk9VYTh61a9uT+OQyGzwwuEkeqmK8dRKKFk0DSSwntBcvGHCqEX6kHRUaAiMXWLYoxqKPIUbmqWb80lpFbJARTztNITGrNYZpROcil6Kg0kiXMVTNV2iOx6qibbCREfxFaWpEosuOK5KsRhdIv8uLApz2ECQBVObstAq2Q+mW+qPEn0dM2VSHBNIdPvoq0yxBuf4ENyAHGqtVNPPqHnkeqqrmBQvzpLOVDXptKiJLAAyqi3miwis8pjNuPVlED71MVUdSYsGK2wVyIw1QBaUiCwesukS9RbCxvqpxziDsxjZB7Fl1S6Tiw2XX66Ki82t1KoWIIY+q1iCMRrE7i5LmxyOLGMkodgbsBsTEf1s2QOMFB3D7HMTDRGnUvobXkXcugs5QrEE8UrbiXGekYWBmGEwsZXLOU37God71COPqr9a66LSGHridfCJZ0428yh6cQkctqXkFAzhNJ0UjwHunJ9mjoFIcE5XEmxllPEZ9tl3FC4rNjEMmMFUDMny6tUAapHjTmaoBOmq1RRTLy4TKISNCKMVqevi7RdOLHcs6ezV44F0M0rU4Ajz1CCj2I66bQ9kWDiUds3NvpT9EYRNXU5I+DCx2dlnHiORdkk0rxyEBWxOkmnRKNBO1DHEZLOUecjMEq5kv2LNJmz8+IAB2srg4lEikVZouK0Q0WT0pokfDZH1YzOgomoo0lxSb4uvsY4n6JJokkQlmZRlqiY1TpaJJUWO5YkHZLN0Wqpr0DxWYb/yOHTwk4UWxdpHmLRdxBYERUXJjAFTfdUssJkPZlKcB+R3P5VdC6+oTFbcJLhYYpdWQJn2Osok5LTLOEdQ8BuZ+ExgoQXJFdUtygmNs/XnDj7KTvQU0RNZrI0o1KKxRyn5LpIhStY6GQYpKav/LpYxLifO6uALSXXIZ6aE+vxhoI+SiCh5+lW5gwBtcqCgUeydUqG04K7UiNG3ATLE9KsrFkhzalK789nmJY3BCy9cUuwkCoac1ZgC3zwyl0db3vXzaJ0AgjpogMskbNqkTsEQEv1KiTjZ908wgs8mLnh7sGTCcdbE4aQ7kEFUTMzELbVbOI7y/hAq7foiJ0fOXlacjcJiWMltSWxtQBX6/rtSuvgcG4ZO2fYvRZe8DzugZzs4ifQFBTCLadF2Y4S7kBvJEqQPH7DFztc+OHWYmjQbn6igWFW6C45RROdYgmkoKna0Awh/vuy1YnjizklbqrsEtJUwu7/bykM0bxYAmjhElJ7XTK/2LYWFs/nMRdDCEVbUoWoxXK4kJ2dFk3IjYV8vuhiMeYtW+Di4S5KMixH8lhISFUHb29xUbYnZxTELNRQVSk1bm17HGyDdp+yXC0upBCUt8pprmZuSTibl6o5LpQbMcZtrmhADRtxgsmznYegP+W9NU44gXW39oArIYuZ8qkEcV5F3xNwCin2bTtnJA5ep5S2ZDe04j8SKkpIY85DKsGnN/w60Is4ryIawGjKHO3Mm9mcv7R8jK03w9tRmNfvNfNqyotzLTx79aq19avENslOO//lAzB2omuh+OPUCyAJ+jHryZ0PQta6cTxAPF4RL4TsPuTHrcZ3kRdE4tgC30y9ANLQCPu96gBpi00zEWPkJzPePhw/Pz2hbh/c9aNex6c96Y+czBa+AP0Qjv88XnXv7HQr9mEUVfdii7XSu1LnS0+Efiwd31/GiPpdsyyQCH0gtth1QtsH936jsOXJ0s1VJKxvnqUcSIReROWJBv2e+sVCT5bOFn2F8B2GovKhnxenv+0VJitvgKkuK2eDPxrhEvY7AaHXWLRrDG+ZkfX5sPS3RnhmMANCL6IasXm6DgDQT2lWlwLNf0ynGx/6eJFcg3ItvGXGO+I/331cXv216ocQVodIp3pX6uvDH6B3xJ9NzvEO0gAh9CDqVD5APPZbqQRCmDLsQw8vMvlM39BvTQHmo6W7EFaHeBpPk2YXQVwY2ofvCYSVicouZieTZRiErWXID+b+/oiSVtGLbDk5GX6GAdgiN6PzYPYQpa0ixM9hkFABtV1dXYZ5XWYAViVqHDA8d2cS1nE0LJxV8iJ7PVmFAxjbwUFkq5OgAOuGWIWooREeHlFPvDZDXHZgEDuBx2Fs7XohlvXIKqiWKjsoosZaGjAeTrV9Xl36Wj8UxDgeBpvTsIBzmlF2ToMgliFqPKf5R+alFb0o5qX/xtqiKkSxtgi1PgyLcHK3DWFxoor14b+wxq/sRXYvN2BHB7hPswthQYgf+oPeQQKG/17bJdprG+xCWIiosNcWZL/UD+FgKVaEfed+qYcXzVN8h7Ln/a1/UQJhAYj2Bpv/fQs/hHDfIjL3LXazdDdRGX426rf/SKzn3pOPF/G9p8O7f1gM4VaI02SDvO8B+yHM3AMuxNLtRF0mn+/xFxu/aDH583jVu3PfmanoxfSnS0bdRhGmn8UojDAXYjfzuQTP52kCz9qKsjSXqNnnaU7GnhFjv/PSHV7stFwfC/Z7rq3DnA/L7QNh5HhA7NT1xZizMx+EMS+CPpu4bQWctU6KqR13d5/7bCzG5643m9H34e3t8Pvou19ic7t1Aewg6ikm4Gmr7e7tgYfYdATEz8/Hq4coerh6vPRM9MsBjKe0bdya6SZHE8btuKHVXgJk57Td+/btW6T/eiVKAoytewqt6XTynvOOI0bs7NNO1VdcebunG/ct8k2UdWLUbplm5H+6a1J5Axxc2e2V7/0wFkNUY7HDtn397vlLdZaKytutdmMQgahq9ynPBotpdZYqrM1BFEQV3bz1c08nT1V3pRRCMRaahdg5/djxAcS3Tru6CTltC7VpynpxG3Z8/vDkadWKG1rxFQ/DjlTUxiBGndXO71PaxG09rfpqx2O92yzE3T89N3htdSvTNAbYjonaaTdF1OiuwApnVJ2lcj4hXu2mvPi/Ql9Je+/F0rbiajMQ+3+KADx5XlbW01P9tymiPhT7XozZorqc2mQTRH34b8FV+GTZ8WVpM0R9LPyFu+dVaWpZ2gRR+8Xvsw/WFVnaTbzbM1H77yX2ws6rSo10HbJ9QuyV2SiaXXhATNgeiXpRarMvjhg+U3Bke/PiY8mvhP7xGQbg3iBelv3poPEqFMI9EbX8F5jeBmJpez9ejEp/f2m8xgjG0z1A7BdZU6TtaRXOi7UT9bHKl0EP3sI5sW4v9t8q3RYahwNYN8RuxS9l99qVSiOsk6j9qr9oOX4PCLHGsWgfUiltw+o7NvuE+FD92d3BIqDY1AaxUqQAew5J07ogRl6/nHsf1Im1QOx7/c6M2NA4cIj9O8/fI70NKjY1QHwoPyFNOfE+rBNDQ+x7/2bXySgwwsAQ+wF+PG8dGmJQgO/+AE9GAdcY0gJOUaO/QX5sdRPaieGIGv03BMCTSdDpqbBQ0/DoPdCPHn+FDfvCwiC8DPRbsjWITRiiBpEZZaPAM5t2GKI+hvtN58EiNMB2AKL2LwI+szsJHTGE+Xrxb8DfVo8jRnix8SXq5e6nLsrYONRtjIR5Iex5rinSNqwBoB9RQ37sWNg42P02bNUncN7LwqyNAi8UPSE+hHxuXlvILXAEsRpRL6vukG6z5zoiRlUv/vXafcqzcDdNvSGWvh1azCavoW58o3/bVYga3QUN9taCbIF3u+bfrq6vtBc9Nrm32yCEE7voX7CSEPsFfi6nooWPGJGGWI6owUOhtY0vop6kZk8mtCfleCzjxVoiBZjnGkN4zNAghoooURxiFHZNkbYvpRNVX4Azwpg1xMJErUtmlI3fO6LvK78gRkjAJmqUIWpU/XZoMRt9+KhNV/ktandVqIgAcVQYYrEnuT1stuioPo8qvdJxQjoPsooQteJTF2VMPWbTy7SzkAu7Jsz32ijiQ7qAFys9OFPSNp0uHkBlXjGMyJyoXApVKbQ7IfbDbl24Td3c9479kYHXxTnbidq/q52jwuQySophcRGVcMCPXds9mqA2c6sX+/UsmrI2WnUi6P1ut1gCD9yuISq4TuHcFTT6Ye40FbHnP9CoduEEGnXwFqY4NuxL8HlE7f/ZkweFTS46PYjaxRJo2dQzQOM0LKMsh/O8WNui0G2D29VnqSmqEVKcAwlskRti/9ttbUumHJv8eG9/It1PhQH7NgkMFZMITXREIzND1P7D44+a52oum02GF6uXz84u6+n/+85DvUyO/K9v7fLh8WK4V4ImQD7dvl3Ua2+3T5O9BMGjHe1oRzva0Y52tKMdrU77P0csX+rIHmoPAAAAAElFTkSuQmCC;clipPath=inset(5.11% 0% 5.11% 0.22%);direction=south;rotation=90;" parent="1" vertex="1">
          <mxGeometry x="525.9150000000002" y="636.385" width="29" height="32.23" as="geometry" />
        </mxCell>
        <mxCell id="xoEMEb9Q6lRqkHzQhWVF-6" value="" style="rounded=0;whiteSpace=wrap;html=1;fontSize=16;align=center;" parent="1" vertex="1">
          <mxGeometry x="680" y="758" width="120" height="80" as="geometry" />
        </mxCell>
        <mxCell id="xoEMEb9Q6lRqkHzQhWVF-7" value="&lt;font style=&quot;font-size: 16px;&quot;&gt;provar-imports&lt;/font&gt;" style="text;html=1;strokeColor=none;fillColor=none;align=center;verticalAlign=middle;whiteSpace=wrap;rounded=0;fontSize=16;" parent="1" vertex="1">
          <mxGeometry x="680" y="758" width="120" height="40" as="geometry" />
        </mxCell>
        <mxCell id="xoEMEb9Q6lRqkHzQhWVF-8" value="" style="shape=image;verticalLabelPosition=bottom;labelBackgroundColor=default;verticalAlign=top;aspect=fixed;imageAspect=0;image=data:image/png,iVBORw0KGgoAAAANSUhEUgAAAOEAAADhCAMAAAAJbSJIAAAArlBMVEX///9Eh/pEhfRAe95FhO1AfOJEh/lEhvdEh/tFhPBEhfJEg+uArfi/1PiArPVDgOgxdOA7eeHw9f260Po1euhTj/lKivmux/vG2Pmiv/7o8P1ynutzofNJguNSh+Pf6v02fvT1+f7S4Ps4gfqLsvdalPfZ5vxgl/Wkw/lLi/ZpnflblfkrfPp6pvaUt/ajwPxmluscceyzyvctd+s2e+lpm+2duvCnxvtckOclbdpVV+1uAAAQuUlEQVR4nO1dDXvaoBYuzgDWtlbth7MfatW6urX2rt3t7v//Yzd8HDhJiCaBGPc8nrkNCSG8nJf3AIl6cnK0ox3taEc72tGOdrSj/eM2mzx9vZ3Va29fT5NZU/CGZ8uX+ZzXa/P5y/Js2ATI8ebnTYyO1G8xypvrzXjP+Aa3rf3AMyDp7WCfACf3ZH/wNEhyP9kfwOf1fM/4hM3Xz/sCOPrZBMAY4s/RfgA+/9w3Q8H4z714cfbajAeFze/3EDVmm6Y8KIxv6kd4ft0owuVT7QgXzXFUQnyrG+DoV6MACflVs56O101yVBhf1zt/+7ppHOHNV50AJ8umAYqgWOfs7a1ZmVE2r1FsRo1zVBi/qU1sBg3OZrDNX+taSA0PwoXCicN6AI5fDwNgDPG1nohxEDKjrB6xeW4aFjJO6lhGHZAL63Hi6OVQRqEw/hI8YozPmgaVsrPQYjNkh+RCMRIDR4xx67AAxhBbYZ3445BkRtn8R0iAk9WhuTB24irgGiM9IaXyJf8mMglh4i+FN1Rl4LMoM+cxe9ScYeukiTrN9eI6TZFFuOnpKLX7RGOLL8zg8kzm4RIsgU2fBGVsyh6CHAbvU3Waa9lMfh0uYqynibajTkZdTTRmyuxxnWZJb5O0+xOGvZQ5ps9W//N1KIBfhqOUoesYkGlvOVqYJbUGg5mY6AiTZrhw0uaBNjQmubtPGWi5+QzYxdJ8zqskr25sfB1GbAptcjt62tlGlzMzI5alEs4ekxC/hwA4SkYKmrykpah7/Bgh3Dr2dh5lMN6TxfgqhNhYmZH0ApVEWge008el0mIqan7qXKWKTNeEztX6LHNMDYwYPzIluQy7dB5AbEY2FIrmUa66UsU6CvGPURAhqnuaMpWpgwqjwE/1VzWWqgipAVP9R9dMda+oegxDoITCOfd24uSeq/5nzDiQMhsJkLoyTVTZqATzTDSh6nRiSthmm8bT1PADauq+oKiA4Kn3ve9bu/tkOMlMFyrWJRlJqRFMy1iVaY6qLPkPS1BXZDJTD7xlaJLAkhfl1DNiwCa39o+Zc1GYQplOZQwNEQZ+pJrbsow9Ew4xYnzCKPa4nvmhiZ5yPhWLOHtW/OJLPyfeT4ngpx4/qmFUjxFMLWvM6p7mKzVldNPkYDbzUxi4spu4ZLIZyeZMCmfDtImaMT2/9wH4LC5piElA7uQbDnrIgXtMZUNYF0pCoZisghNzuvSFnd8iD1LDYc6AuolZK3Qk0brAPHalBou57VK8LFCDXrvRdLUmIAO8xm8QFHV/MU0EbkRE85CZCUNCqUwZRrXmMR1/5LXmHmuM4QsXQ4gj/aRa0BAPgTloqg1NN/GeweBEc1GiGYlyNH5m69RdyRmqlZjLSfPYAh+vuZY74KiZmxHtKatsjNiSRj+51kmYJhjZtPkElh8Uonn6cobAhrR26iFT1W+avnGipUJpg3ILZ5a3pjvR5IZaPHoyYCRV+00MXThbTVQY45rltmamA7v2vOk9VYTh61a9uT+OQyGzwwuEkeqmK8dRKKFk0DSSwntBcvGHCqEX6kHRUaAiMXWLYoxqKPIUbmqWb80lpFbJARTztNITGrNYZpROcil6Kg0kiXMVTNV2iOx6qibbCREfxFaWpEosuOK5KsRhdIv8uLApz2ECQBVObstAq2Q+mW+qPEn0dM2VSHBNIdPvoq0yxBuf4ENyAHGqtVNPPqHnkeqqrmBQvzpLOVDXptKiJLAAyqi3miwis8pjNuPVlED71MVUdSYsGK2wVyIw1QBaUiCwesukS9RbCxvqpxziDsxjZB7Fl1S6Tiw2XX66Ki82t1KoWIIY+q1iCMRrE7i5LmxyOLGMkodgbsBsTEf1s2QOMFB3D7HMTDRGnUvobXkXcugs5QrEE8UrbiXGekYWBmGEwsZXLOU37God71COPqr9a66LSGHridfCJZ0428yh6cQkctqXkFAzhNJ0UjwHunJ9mjoFIcE5XEmxllPEZ9tl3FC4rNjEMmMFUDMny6tUAapHjTmaoBOmq1RRTLy4TKISNCKMVqevi7RdOLHcs6ezV44F0M0rU4Ajz1CCj2I66bQ9kWDiUds3NvpT9EYRNXU5I+DCx2dlnHiORdkk0rxyEBWxOkmnRKNBO1DHEZLOUecjMEq5kv2LNJmz8+IAB2srg4lEikVZouK0Q0WT0pokfDZH1YzOgomoo0lxSb4uvsY4n6JJokkQlmZRlqiY1TpaJJUWO5YkHZLN0Wqpr0DxWYb/yOHTwk4UWxdpHmLRdxBYERUXJjAFTfdUssJkPZlKcB+R3P5VdC6+oTFbcJLhYYpdWQJn2Osok5LTLOEdQ8BuZ+ExgoQXJFdUtygmNs/XnDj7KTvQU0RNZrI0o1KKxRyn5LpIhStY6GQYpKav/LpYxLifO6uALSXXIZ6aE+vxhoI+SiCh5+lW5gwBtcqCgUeydUqG04K7UiNG3ATLE9KsrFkhzalK789nmJY3BCy9cUuwkCoac1ZgC3zwyl0db3vXzaJ0AgjpogMskbNqkTsEQEv1KiTjZ908wgs8mLnh7sGTCcdbE4aQ7kEFUTMzELbVbOI7y/hAq7foiJ0fOXlacjcJiWMltSWxtQBX6/rtSuvgcG4ZO2fYvRZe8DzugZzs4ifQFBTCLadF2Y4S7kBvJEqQPH7DFztc+OHWYmjQbn6igWFW6C45RROdYgmkoKna0Awh/vuy1YnjizklbqrsEtJUwu7/bykM0bxYAmjhElJ7XTK/2LYWFs/nMRdDCEVbUoWoxXK4kJ2dFk3IjYV8vuhiMeYtW+Di4S5KMixH8lhISFUHb29xUbYnZxTELNRQVSk1bm17HGyDdp+yXC0upBCUt8pprmZuSTibl6o5LpQbMcZtrmhADRtxgsmznYegP+W9NU44gXW39oArIYuZ8qkEcV5F3xNwCin2bTtnJA5ep5S2ZDe04j8SKkpIY85DKsGnN/w60Is4ryIawGjKHO3Mm9mcv7R8jK03w9tRmNfvNfNqyotzLTx79aq19avENslOO//lAzB2omuh+OPUCyAJ+jHryZ0PQta6cTxAPF4RL4TsPuTHrcZ3kRdE4tgC30y9ANLQCPu96gBpi00zEWPkJzPePhw/Pz2hbh/c9aNex6c96Y+czBa+AP0Qjv88XnXv7HQr9mEUVfdii7XSu1LnS0+Efiwd31/GiPpdsyyQCH0gtth1QtsH936jsOXJ0s1VJKxvnqUcSIReROWJBv2e+sVCT5bOFn2F8B2GovKhnxenv+0VJitvgKkuK2eDPxrhEvY7AaHXWLRrDG+ZkfX5sPS3RnhmMANCL6IasXm6DgDQT2lWlwLNf0ynGx/6eJFcg3ItvGXGO+I/331cXv216ocQVodIp3pX6uvDH6B3xJ9NzvEO0gAh9CDqVD5APPZbqQRCmDLsQw8vMvlM39BvTQHmo6W7EFaHeBpPk2YXQVwY2ofvCYSVicouZieTZRiErWXID+b+/oiSVtGLbDk5GX6GAdgiN6PzYPYQpa0ixM9hkFABtV1dXYZ5XWYAViVqHDA8d2cS1nE0LJxV8iJ7PVmFAxjbwUFkq5OgAOuGWIWooREeHlFPvDZDXHZgEDuBx2Fs7XohlvXIKqiWKjsoosZaGjAeTrV9Xl36Wj8UxDgeBpvTsIBzmlF2ToMgliFqPKf5R+alFb0o5qX/xtqiKkSxtgi1PgyLcHK3DWFxoor14b+wxq/sRXYvN2BHB7hPswthQYgf+oPeQQKG/17bJdprG+xCWIiosNcWZL/UD+FgKVaEfed+qYcXzVN8h7Ln/a1/UQJhAYj2Bpv/fQs/hHDfIjL3LXazdDdRGX426rf/SKzn3pOPF/G9p8O7f1gM4VaI02SDvO8B+yHM3AMuxNLtRF0mn+/xFxu/aDH583jVu3PfmanoxfSnS0bdRhGmn8UojDAXYjfzuQTP52kCz9qKsjSXqNnnaU7GnhFjv/PSHV7stFwfC/Z7rq3DnA/L7QNh5HhA7NT1xZizMx+EMS+CPpu4bQWctU6KqR13d5/7bCzG5643m9H34e3t8Pvou19ic7t1Aewg6ikm4Gmr7e7tgYfYdATEz8/Hq4coerh6vPRM9MsBjKe0bdya6SZHE8btuKHVXgJk57Td+/btW6T/eiVKAoytewqt6XTynvOOI0bs7NNO1VdcebunG/ct8k2UdWLUbplm5H+6a1J5Axxc2e2V7/0wFkNUY7HDtn397vlLdZaKytutdmMQgahq9ynPBotpdZYqrM1BFEQV3bz1c08nT1V3pRRCMRaahdg5/djxAcS3Tru6CTltC7VpynpxG3Z8/vDkadWKG1rxFQ/DjlTUxiBGndXO71PaxG09rfpqx2O92yzE3T89N3htdSvTNAbYjonaaTdF1OiuwApnVJ2lcj4hXu2mvPi/Ql9Je+/F0rbiajMQ+3+KADx5XlbW01P9tymiPhT7XozZorqc2mQTRH34b8FV+GTZ8WVpM0R9LPyFu+dVaWpZ2gRR+8Xvsw/WFVnaTbzbM1H77yX2ws6rSo10HbJ9QuyV2SiaXXhATNgeiXpRarMvjhg+U3Bke/PiY8mvhP7xGQbg3iBelv3poPEqFMI9EbX8F5jeBmJpez9ejEp/f2m8xgjG0z1A7BdZU6TtaRXOi7UT9bHKl0EP3sI5sW4v9t8q3RYahwNYN8RuxS9l99qVSiOsk6j9qr9oOX4PCLHGsWgfUiltw+o7NvuE+FD92d3BIqDY1AaxUqQAew5J07ogRl6/nHsf1Im1QOx7/c6M2NA4cIj9O8/fI70NKjY1QHwoPyFNOfE+rBNDQ+x7/2bXySgwwsAQ+wF+PG8dGmJQgO/+AE9GAdcY0gJOUaO/QX5sdRPaieGIGv03BMCTSdDpqbBQ0/DoPdCPHn+FDfvCwiC8DPRbsjWITRiiBpEZZaPAM5t2GKI+hvtN58EiNMB2AKL2LwI+szsJHTGE+Xrxb8DfVo8jRnix8SXq5e6nLsrYONRtjIR5Iex5rinSNqwBoB9RQ37sWNg42P02bNUncN7LwqyNAi8UPSE+hHxuXlvILXAEsRpRL6vukG6z5zoiRlUv/vXafcqzcDdNvSGWvh1azCavoW58o3/bVYga3QUN9taCbIF3u+bfrq6vtBc9Nrm32yCEE7voX7CSEPsFfi6nooWPGJGGWI6owUOhtY0vop6kZk8mtCfleCzjxVoiBZjnGkN4zNAghoooURxiFHZNkbYvpRNVX4Azwpg1xMJErUtmlI3fO6LvK78gRkjAJmqUIWpU/XZoMRt9+KhNV/ktandVqIgAcVQYYrEnuT1stuioPo8qvdJxQjoPsooQteJTF2VMPWbTy7SzkAu7Jsz32ijiQ7qAFys9OFPSNp0uHkBlXjGMyJyoXApVKbQ7IfbDbl24Td3c9479kYHXxTnbidq/q52jwuQySophcRGVcMCPXds9mqA2c6sX+/UsmrI2WnUi6P1ut1gCD9yuISq4TuHcFTT6Ye40FbHnP9CoduEEGnXwFqY4NuxL8HlE7f/ZkweFTS46PYjaxRJo2dQzQOM0LKMsh/O8WNui0G2D29VnqSmqEVKcAwlskRti/9ttbUumHJv8eG9/It1PhQH7NgkMFZMITXREIzND1P7D44+a52oum02GF6uXz84u6+n/+85DvUyO/K9v7fLh8WK4V4ImQD7dvl3Ua2+3T5O9BMGjHe1oRzva0Y52tKMdrU77P0csX+rIHmoPAAAAAElFTkSuQmCC;clipPath=inset(5.11% 0% 5.11% 0.22%);" parent="1" vertex="1">
          <mxGeometry x="723.8900000000001" y="798" width="32.23" height="29" as="geometry" />
        </mxCell>
        <mxCell id="xoEMEb9Q6lRqkHzQhWVF-9" value="" style="rounded=0;whiteSpace=wrap;html=1;fontSize=16;align=center;" parent="1" vertex="1">
          <mxGeometry x="240" y="758" width="120" height="80" as="geometry" />
        </mxCell>
        <mxCell id="xoEMEb9Q6lRqkHzQhWVF-10" value="Web Browser" style="text;html=1;strokeColor=none;fillColor=none;align=center;verticalAlign=middle;whiteSpace=wrap;rounded=0;fontSize=16;" parent="1" vertex="1">
          <mxGeometry x="240" y="758" width="120" height="40" as="geometry" />
        </mxCell>
        <mxCell id="xoEMEb9Q6lRqkHzQhWVF-13" value="" style="endArrow=none;html=1;rounded=0;exitX=1;exitY=1;exitDx=0;exitDy=0;edgeStyle=elbowEdgeStyle;startArrow=none;startFill=0;endFill=0;entryX=0;entryY=0.5;entryDx=0;entryDy=0;dashed=1;" parent="1" source="uI3OphNUKf_lqw-jZ9q1-18" target="xoEMEb9Q6lRqkHzQhWVF-6" edge="1">
          <mxGeometry width="50" height="50" relative="1" as="geometry">
            <mxPoint x="670" y="1008" as="sourcePoint" />
            <mxPoint x="890" y="709" as="targetPoint" />
            <Array as="points">
              <mxPoint x="640" y="809" />
            </Array>
          </mxGeometry>
        </mxCell>
        <mxCell id="xoEMEb9Q6lRqkHzQhWVF-14" value="" style="endArrow=none;html=1;rounded=0;exitX=1;exitY=1;exitDx=0;exitDy=0;entryX=0;entryY=1;entryDx=0;entryDy=0;endFill=0;startArrow=block;startFill=0;" parent="1" source="xoEMEb9Q6lRqkHzQhWVF-10" target="uI3OphNUKf_lqw-jZ9q1-18" edge="1">
          <mxGeometry width="50" height="50" relative="1" as="geometry">
            <mxPoint x="440" y="898" as="sourcePoint" />
            <mxPoint x="490" y="848" as="targetPoint" />
          </mxGeometry>
        </mxCell>
        <mxCell id="xoEMEb9Q6lRqkHzQhWVF-15" value="" style="endArrow=none;html=1;rounded=0;entryX=0;entryY=0.5;entryDx=0;entryDy=0;endFill=0;exitX=1;exitY=0.5;exitDx=0;exitDy=0;" parent="1" source="xoEMEb9Q6lRqkHzQhWVF-25" target="xoEMEb9Q6lRqkHzQhWVF-9" edge="1">
          <mxGeometry width="50" height="50" relative="1" as="geometry">
            <mxPoint x="180" y="788" as="sourcePoint" />
            <mxPoint x="490" y="848" as="targetPoint" />
          </mxGeometry>
        </mxCell>
        <mxCell id="xoEMEb9Q6lRqkHzQhWVF-16" value="" style="rounded=0;whiteSpace=wrap;html=1;fontSize=16;align=center;" parent="1" vertex="1">
          <mxGeometry x="240.41000000000003" y="598" width="120" height="80" as="geometry" />
        </mxCell>
        <mxCell id="xoEMEb9Q6lRqkHzQhWVF-17" value="Email Client" style="text;html=1;strokeColor=none;fillColor=none;align=center;verticalAlign=middle;whiteSpace=wrap;rounded=0;fontSize=16;" parent="1" vertex="1">
          <mxGeometry x="240.40999999999997" y="598" width="120" height="40" as="geometry" />
        </mxCell>
        <mxCell id="xoEMEb9Q6lRqkHzQhWVF-20" value="" style="endArrow=none;html=1;rounded=0;entryX=0;entryY=1;entryDx=0;entryDy=0;endFill=0;edgeStyle=elbowEdgeStyle;exitX=1;exitY=0.25;exitDx=0;exitDy=0;startArrow=block;startFill=0;" parent="1" source="xoEMEb9Q6lRqkHzQhWVF-25" target="xoEMEb9Q6lRqkHzQhWVF-17" edge="1">
          <mxGeometry width="50" height="50" relative="1" as="geometry">
            <mxPoint x="170" y="758" as="sourcePoint" />
            <mxPoint x="580" y="858" as="targetPoint" />
          </mxGeometry>
        </mxCell>
        <mxCell id="xoEMEb9Q6lRqkHzQhWVF-21" value="" style="endArrow=none;html=1;rounded=0;entryX=0;entryY=1;entryDx=0;entryDy=0;exitX=1;exitY=1;exitDx=0;exitDy=0;endFill=0;startArrow=block;startFill=0;" parent="1" source="xoEMEb9Q6lRqkHzQhWVF-17" target="xoEMEb9Q6lRqkHzQhWVF-4" edge="1">
          <mxGeometry width="50" height="50" relative="1" as="geometry">
            <mxPoint x="530.4100000000001" y="588" as="sourcePoint" />
            <mxPoint x="580.41" y="538" as="targetPoint" />
          </mxGeometry>
        </mxCell>
        <mxCell id="xoEMEb9Q6lRqkHzQhWVF-26" value="" style="rounded=0;whiteSpace=wrap;html=1;" parent="1" vertex="1">
          <mxGeometry x="80" y="893.5" width="80" height="120" as="geometry" />
        </mxCell>
        <mxCell id="xoEMEb9Q6lRqkHzQhWVF-27" value="Client User" style="shape=umlActor;verticalLabelPosition=bottom;verticalAlign=top;html=1;outlineConnect=0;" parent="1" vertex="1">
          <mxGeometry x="100" y="904" width="40" height="80" as="geometry" />
        </mxCell>
        <mxCell id="xoEMEb9Q6lRqkHzQhWVF-28" value="" style="rounded=0;whiteSpace=wrap;html=1;fontSize=16;align=center;" parent="1" vertex="1">
          <mxGeometry x="240.41000000000003" y="918" width="120" height="80" as="geometry" />
        </mxCell>
        <mxCell id="xoEMEb9Q6lRqkHzQhWVF-29" value="Web Browser" style="text;html=1;strokeColor=none;fillColor=none;align=center;verticalAlign=middle;whiteSpace=wrap;rounded=0;fontSize=16;" parent="1" vertex="1">
          <mxGeometry x="240.40999999999997" y="918" width="120" height="40" as="geometry" />
        </mxCell>
        <mxCell id="xoEMEb9Q6lRqkHzQhWVF-31" value="" style="endArrow=none;html=1;rounded=0;exitX=1.01;exitY=0.533;exitDx=0;exitDy=0;exitPerimeter=0;entryX=0;entryY=1;entryDx=0;entryDy=0;endFill=0;" parent="1" source="xoEMEb9Q6lRqkHzQhWVF-26" target="xoEMEb9Q6lRqkHzQhWVF-29" edge="1">
          <mxGeometry width="50" height="50" relative="1" as="geometry">
            <mxPoint x="500" y="948" as="sourcePoint" />
            <mxPoint x="550" y="898" as="targetPoint" />
          </mxGeometry>
        </mxCell>
        <mxCell id="xoEMEb9Q6lRqkHzQhWVF-32" value="" style="endArrow=block;html=1;rounded=0;exitX=1;exitY=1;exitDx=0;exitDy=0;entryX=0;entryY=0.5;entryDx=0;entryDy=0;endFill=0;" parent="1" source="xoEMEb9Q6lRqkHzQhWVF-29" target="uI3OphNUKf_lqw-jZ9q1-29" edge="1">
          <mxGeometry width="50" height="50" relative="1" as="geometry">
            <mxPoint x="500" y="948" as="sourcePoint" />
            <mxPoint x="550" y="898" as="targetPoint" />
          </mxGeometry>
        </mxCell>
        <mxCell id="xoEMEb9Q6lRqkHzQhWVF-33" value="&lt;font style=&quot;font-size: 10px;&quot;&gt;https://app.provar.se&lt;/font&gt;" style="text;html=1;strokeColor=none;fillColor=none;align=center;verticalAlign=middle;whiteSpace=wrap;rounded=0;fontSize=16;" parent="1" vertex="1">
          <mxGeometry x="240" y="788" width="120" height="20" as="geometry" />
        </mxCell>
        <mxCell id="xoEMEb9Q6lRqkHzQhWVF-34" value="&lt;font style=&quot;font-size: 10px;&quot;&gt;https://client-app.se&lt;/font&gt;" style="text;html=1;strokeColor=none;fillColor=none;align=center;verticalAlign=middle;whiteSpace=wrap;rounded=0;fontSize=16;" parent="1" vertex="1">
          <mxGeometry x="240" y="948" width="120" height="20" as="geometry" />
        </mxCell>
        <mxCell id="xoEMEb9Q6lRqkHzQhWVF-35" value="&lt;div style=&quot;line-height: 100%;&quot;&gt;&lt;span style=&quot;background-color: initial;&quot;&gt;&lt;font style=&quot;font-size: 10px;&quot;&gt;Email invitations, notifications, etc.&lt;/font&gt;&lt;/span&gt;&lt;/div&gt;" style="text;html=1;strokeColor=none;fillColor=none;align=center;verticalAlign=middle;whiteSpace=wrap;rounded=0;fontSize=16;" parent="1" vertex="1">
          <mxGeometry x="240.40999999999997" y="628" width="120" height="50" as="geometry" />
        </mxCell>
        <mxCell id="xoEMEb9Q6lRqkHzQhWVF-36" value="" style="rounded=0;whiteSpace=wrap;html=1;fillColor=none;strokeColor=#808080;dashed=1;movable=1;resizable=1;rotatable=1;deletable=1;editable=1;locked=0;connectable=1;" parent="1" vertex="1">
          <mxGeometry x="440" y="319" width="400" height="160" as="geometry" />
        </mxCell>
        <mxCell id="xoEMEb9Q6lRqkHzQhWVF-37" value="" style="shape=image;verticalLabelPosition=bottom;labelBackgroundColor=default;verticalAlign=top;aspect=fixed;imageAspect=0;image=data:image/png,iVBORw0KGgoAAAANSUhEUgAAAQMAAADCCAMAAAB6zFdcAAAA8FBMVEX///8AAAABm2oDmm7//v8Bm2wDmmoAj17e+PP8///9//0AmGYAk15etJfz//+v4dKw29EAlWfh4eGSkpJJSUknoXZcXFympqaMyLX09PRVVVUAlGLX8+09rIbq6uq+vr6Ghobd3d3C5t2cnJzLy8u0tLQODg6Xl5fGxsYAmWNoaGixsbG8vLzU1NR9fX02NjZycnIgICAqKio8PDyg1MTr+/cAilZRs5Evnnuc1cUalm/d8OuW1MF2uqOWzLtkt517w6/M6eCCyLPY/fVJqItnwqqDw7BbrZRfvaE3q4K16d8cp3lGsIyd3sqv1ssZGRkIWk5EAAARlUlEQVR4nO2ce1vayhbGJxcS0hkCAQExYBG8EK1oVQSpilrcp7o97ff/NmfNLTcSdIvW8+zO+0eVZJjLb9Zas2YSi5CSkpKSkpKSkpKSkpKSkpKSkpKSkpKSkpKSkpKSkpKSkpKSkpKSkpKSkpKSkpKSkpKSktL/tZyP7sAHy3EUA6o/hcHobj1Tl5W2+9F9+10qnmMvQ75PiFcqu8g0P7qH76+ibWSpUCjoOPCnF86fywAgWAVd10lnhNC/HUMeA2oJBcvSvWn7o7v47lrKgEqfFj+6j++t5xng8Uf38b0VMrCT8i3JQD/vfXQn31mSQf17O6ZvvcsOCSxhCJN/ebIkGSyOs2dgixsCuf2Inv0+CQaFSSIrZJlRsYA5A3z3QZ37TRIMrDpNCRNCqOwLBqWP7uX7KpcB3HMmFmOg17MCgrM8j47dNPNuPKOMgu+SuktfqGftkK6wYJC9fZL9gY69PGo+n3ybZvqX5cVWVi4DeoCwLhgYmQyKveurWWl2c3a7eNttV9avSqXS1d3C/nMkFx83ZxBmWGKUrrVYub6ZQa3Q5ujtFqslDBx0Ixj87abvIbc8tn2MLcvDhBj37fi0uL17wyYBpgrg7s2tY0bTf33OM5Dzi7w+zWQJuR4x33R693U7CGi18C+xH+6KLzCql2ipL8xFPOikrpvosW7jQphN6rZdiuas0vGwpcdESOcxcu6Rr8NXDMNL1xoWMCxWs/7gRHPtlic21hMifultFu1lDL55fIj4KnEZJvUHoblDlE9b+PyO9hemq90hXkEvxDtr6QEZfw+/P7NEZpqzGyv7xnQK9/0zHmaoEfTqtkhWmAp8R4cpejCxFa0hn4GJZpgP0f+ZvDPqBDCuQijoVDB3qPOY6NoG/7AsPa0A84zbdFDPLrA2vZy0Y+yx27onTMs03SsbFxZkYQsTv4KcVSNDLgMTnck9g5eMTe4E63EGdIiYbi4d5MwIQ7DIAEz3AvFg7k6MvNw01iPDm6FPosGOry8ikG549252YKILmzdsJFwBHGEMtm5JBjrPpi+Y2bolGialA9DZ12M0yH+ZWZvo0hPO0FtMAeAuDu9+YheK9RQBPfLCgqWTH84/WZv/AQP3xhduV7CLiSYufD731EBge+nBChDUAQ2UkVZA7QD7vgcFSBTIMGxAWfpVtAvMG6z7jK7TxExYCTfy0URnsZeNGxPbMzzPx3JbC22RmxVzhUUGrOXKlNC5pK2Qy4THjTxLRDw8vW677qh9Vj+vsBKXhE47ALAs3/9Rbo/cUfH2cmLL0BiAU7FlrsSjYsHLCMRtYX7eOuIQxiIUGHT5mUGtoNvLuR/Ioy4dgudKijFwBHhYhx7sQBcMrBlCTgzCjRySfyNH4PxkjntL+FAhXnvrbpTI9TqBCBD+mDKgUZE3CgFtQeuYo/eKvNlrW0y5YXnXbjQd7Vl4xGHlrTCvYkB73V6v+8KpoRHL+I5iCQ5yp1GIo/35RAU/kOl2+LfACDptuMcRsB93HKmu2xUWARyD27u+eETlTjFzMwy4KIORbcnIPC+GWTmzpkdDrN0FPF8pWYozoB/BdD0sAzuzA+8xno5VfLHWzcT4hWBZJwXOwJ+7UQDhxnUhw4JYCtYxZ+AtnFX2bIsxID36XXAbYRa6P4Nlh7cU9n0i8OhBeZWoGI8HbrkDMUw4WZiL4PPLGIMrEfgLfL2MGDhTFqWBTngU4YRCN9IQeJZQ9ESKkPJkyEkCxsASdtmWkZnu3x3KID7WkRFwBnjirs6ArtWVOgnDbSGWjxXsy6h8nadAeD0+RDrKHpFxYvEcGmawLtYGcRQxZhAK1jyR4JjmyNbZugL5E6v1intGwZoAc+dT0g5MdOvLiFB5CwbuzKa+HK672Ma+/GCXZaujc9ZHnUahJINSYIVxIqOdskAk8q2Kz8+u/Xay8M+Ar602j4gjj02EUeD2k2IAEO7EoqGX3oDBwz0OEw/6kInUz5wLGXlpl7huA87AcFMIYCfEGWTvs5Hr8XhJ+FLgTvmOC98ki3V4gsEtXxgXHSK3lzQDqMcQB79+ep/9CgaejLHcBuYVFyj3PCsVeCuEMaDPHFKu4POISJ0kUz94VMT3PDf8i+8NC9MEMnB/xoBUhCsEnIH9yG4vMggNgZTRqxU9YwkB+N4NWChb3HoiYdHBG9hMlAWDUprBunAFv53zePJSLCgdvmiydun8JR5erPvCzEZ8pa6LoGTQWJDJoG1z0w3u34yB7nulssO2BWxoZZGVenUHSQZg0sAgFsxowTnmvlCnCX75bvaf8VMnoYkImZ7LDyvnbAINfRZj5oidQSAioivyMTzLf+47FbOUdxrxTxlYpFOh6Ww4u6boKtzpsVHz0GYlT5ppURH3gx/oW4nADiIIsI4TEgxsfpDgVGyR+oSO7ECY5zPB8j6o9FYwIEuS4Zlg4L0+TYozCOpltsGPGDhOzxdZyEzaQRYD5IoR4rOeL1KBtETOQYTxu1PhyOH4TFgJ+R7gSdQqFxN7yXnRtS/D9hswMHx6KCMGJRiAnsT5jcc+5TAwR6K3+IefTSCUYGDyw8p4nmu6nmWIpdhkDM4kgyWPviuCAXn9niFi4M1EHs5/SAYX4kELT32eY6DjrOOTLAaQAook+Fs4HCLcwzUFA+FA3ih/joWhWlE1r2cAS7CZdSrVI/xglff9WQbPSvqCiR64Ifjhajpm8dcQOUOSQS4EyYCszgD2quHeOVVAMCi/mAEmSxQ9yT/j0+4ZotWib7E8FSIiXQEpA+FY9ksYrO4L1j1azoAfVOQy8EICgXdXWaZwHXC5M1jSMi4JY2BNkGQgN6l2O59B2X6zmOj3chh8lwyW2UG4NoLqz2WtMgSiK497Mk9vHJYng2+cIVMw6Pmh/+QO8E6uC69/nVLunT03h0HP5wzsfAZ0aR+HZ0VsK2/mKWIQmTE/UmtTM7DgUxQA23K1Wc9nUGLgDGv6+iP28PzAyWGwLvbT/LwqhwFs4AK5/nO/zIVgRo9UHXEGwvHe+Hy79CMaryPP7fKTQFhP+fFuInN9FQMrj4Fj6KKj7BFprh2UiUiN/DwGKM0A1l3MDwfokRrsANlWgfQiSLBS8ErPv6Ms0Xck+JmL7l2+AYMsX4CPEJp55JqjJQzocbNgQM5MJ5OBw56KJRiMPJHnjqhj8N3YQ/jIBH6eSbDZj6Sg0jmlRDd17defpi1lYKIRFud5+CI/V2aSU4Y7SKZZces30WzSE5ejL814mgSVoxk7meBPo8Lm2+G5fGagpVHTYgy8et6T/JczKCwyAMimOyfCFbziMwwqsruEZboL/g/ftDv0GCDeSI8fnMNyKA9DcHKwTzLlmKHFDI4e0bG81LL8vGOL1RhAE+4Yts587yyet+UycJypTJMNkd0nGLSZmZB5L/FnEXRJ5QGXv/tUgIiY6ENZbsCofSQZ0M5eydt28W3OleMM2MtG7TqWR4xgBuz0IpeBGW5wdFwXe68wGAICg9msHpBSFPbh1jV/morvSiJxTmYCplsP99x08Yjtj2nYWCcCe3C/yovlOQygxtG9zQ44Wdcued6yxBcQmkhDCKa3KMYATLYsHUV4StS8OLcVRziwyiduO/TwTshfT70F5s6IJc6/VzlNjL2nmkyz3N4MY3r4zRjgJ8fkeJYxuLUtcUhg+VdFFAXA9jgcSPCUstmxWBo4CnyZfBsN5n0cyBcvgnn8GMEp19l+g6Zm9JHoWzB47IX6+dfY8MOXHowCpgefzzNAdyR81E7w7LFIn3s4xbN57CWahZOAHinEZNP5jEclExWjnQj2n8rc79329d+Sq6UHJWelFzHCvbPnR4LUMHrCb1hG1PElDOjz5NgREg7s+tO4Y9hB7CJ5XIhssfPsgl5CzsIK3bPjlRKjMx4/eH7s3aRAxp+VGcQV+idbvCfFqIklDMBu3afYKRJ9BwGzoCovBPZ/0yucw9//E/IrGQxQ2Q4rYT9w8rAO0yl6i3cwsjhwBP7MRS9iwIZUyj9LsbBdZsfVSXBFOzKDqWtmMECPXs4RJUMwKa5G4FkG/rQcPkZ/ngGUu/NxTmcJrBbmwghNNJdv2hjs3fCsjL1dz4VASqOVX8qCaYhcPyXP9i5Ti84zdgDqTTJPVTG5c1GWpYs3w1lELJqfMutEzg1ZRFuwdH96ljgAfmMGlu/PL9y0pz3PADkX9SDdYeLP2uGRfaq8G7odbMuyGdB8rWQvuJnv3bGlZ0UEqHge+Iuyvcnsgr1ul6q8fM5PBZe+ze9WSh6RPhFgQh7WRV2Zvb0hvNHzch4D3tO7OiHyUQ32iTe+YCvp6gzcn5XKz+SB38+fvYW3paW+iTLP/YnTqHc9e6APcv8e/1Vusz+XdfIYFGXDrrmMAQy3Xfmr9FDwPOOhtN6LZRorMsiRmXnO/sJlOP0n86kN80JTi7/lVZu68C//OyslJSWlP12tj+7AR2rz6KiKUEMbpm8MT2uxT82j/d/Yqd+sTU3bQqamfU3fSGKpaWvv0nyr32Tqv8oQv3x5k04wBmiwf5i+0dC6sU/vxaCqCb2KwcbGm3SCM8jQ72GwqX1e4duNRu6t7dqw+0WA3eoPuwfs9+rgEFVrwz0545vNbnfH5AwOB/DP5mAbbfa7tW1ev9ZF1b2h+MQYtAYDnlJvD6rs5+GerPy1ijMwv+z1Weda0ObhDto8hO7QK61mbcCLDPp7rD/VQ9oJyuCQz+BW0o5bR9y6DujvDf57E37va40a+3AsRsW0wxisUef/on09YNc2TM5gyD4dbUoGYLib7LtfWYWtNVHF2zA41LS1I60BbX/WaNXQ4ap2Cn1vaTCifT6ytTVtDaB3tdau1kAbDbSv0c62tFqi2g3t5GD781Cj6ODLxwfNDY221Ifunvb7UOseR7A7rLFRbNHvdGnTEBr3+hucUkPb1Xa7Nfj0q5VmcEQZtL5q2vCgCVUM3oLBprZv0ibAxQfa8TG02dT2W8hc045hjoca/HN61KLlwAFqJxs0ilI7YBU0k/HEFH2iF/eEs3e1XVqOwQRyuxScxuJJM8lgjZemNTZEic+MWQYDKMY8YqgdrcLg11cQ2NJwl13YhsEOeEebdNzwgU5ZC1rc4u0NoBM1rU9/pfHghJY9Sa3cJ9raYcsUv9ZQq9WiTl+lw2WwtuhIdmQkbiQYsEaAzza7wUsc0zFmMNCgH1B5q/rKoC4YDNnSeIh2xVIMtQ60bc6Ad5eSMKHFHa1G1YU5rvEmKQNqAlX+hUjb1L53T/vMJHaZx+7SUTW1E9EsDHVPO+WldxIMRDeoJTU0EXS/0MuLDFqxyrNXlpcxkL4gPRqmfcCbkQy2BIMDzmCvX4XuIMmgBYFvuJDdtPqNE43aNTD4tcsFMFMMjkIG1eUMPucyEJX/WomBTHPWNsSFA2DQymIgLrdgJarthgxQYw2xEL0oGNuhiN9CCQY7kaVnMeC+wD8NQ1/Y1DS+dmncF1ZZEBYYHMjQ1cpjIII/LRGzAyjdXHDG/oEYyGfoPvfw6naaQUsESGCRz4CV2KZ+L3KkXW4bQ8bgWPvFrOLw9VZATStMdxta83B7n/pGDgNY2YZbW13eHfYVnidqC5sdMNjT5uBgjU50i2YDzf4+M+6+YFBlo4Yl46TfZOlDLgPtZK8J36Vf4wyatG66GtIeAUsIaP2GMI7XafMkWljp4r1GZ2v7hDH4wty1ekKnsXVKjW4HfPwrneImd5whG3xt0RebIgOnlW+KfKnRok38kgy2UJgj8cVA5EjxeLCh7e2zEjQngdIshh6zK90N5mPVr7yK/TfbeLeerSmrxNppRrmD4fGwKQpv146P+8whtna+iNs8vd3sw50W2qGfBjswl9Ud4eAHO5v00hbaHh53+TwdHvD4vd097h6i7QOeKw+6x8fN6j8Z5Ztrs9VML4wfoQ/9Px73NZ4u/ckyN//oIzAlJSUlJSUlJSUlJSUlJSUlJSUlJSUlJSUlJSUlJSUlJSUlJSUlJSUlJSUlJSUlJSUlJSUlJaUM/Q+irpAarCEvoQAAAABJRU5ErkJggg==;clipPath=inset(20.62% 5.6% 22.16% 5.21%);" parent="1" vertex="1">
          <mxGeometry x="670" y="329" width="160.41" height="77.08" as="geometry" />
        </mxCell>
        <mxCell id="xoEMEb9Q6lRqkHzQhWVF-38" value="" style="rounded=0;whiteSpace=wrap;html=1;fontSize=16;align=center;" parent="1" vertex="1">
          <mxGeometry x="480.4200000000001" y="359" width="120" height="80" as="geometry" />
        </mxCell>
        <mxCell id="xoEMEb9Q6lRqkHzQhWVF-39" value="&lt;font style=&quot;font-size: 16px;&quot;&gt;Email Server&lt;/font&gt;" style="text;html=1;strokeColor=none;fillColor=none;align=center;verticalAlign=middle;whiteSpace=wrap;rounded=0;fontSize=16;" parent="1" vertex="1">
          <mxGeometry x="479.19000000000017" y="359" width="120" height="40" as="geometry" />
        </mxCell>
        <mxCell id="xoEMEb9Q6lRqkHzQhWVF-40" value="" style="endArrow=block;html=1;rounded=0;entryX=1;entryY=1;entryDx=0;entryDy=0;edgeStyle=elbowEdgeStyle;startArrow=none;startFill=0;endFill=0;exitX=1;exitY=0.5;exitDx=0;exitDy=0;" parent="1" source="uI3OphNUKf_lqw-jZ9q1-18" target="xoEMEb9Q6lRqkHzQhWVF-39" edge="1">
          <mxGeometry width="50" height="50" relative="1" as="geometry">
            <mxPoint x="610" y="770" as="sourcePoint" />
            <mxPoint x="819.59" y="680" as="targetPoint" />
            <Array as="points">
              <mxPoint x="639.59" y="650" />
            </Array>
          </mxGeometry>
        </mxCell>
        <mxCell id="xoEMEb9Q6lRqkHzQhWVF-41" value="" style="shape=image;verticalLabelPosition=bottom;labelBackgroundColor=default;verticalAlign=top;aspect=fixed;imageAspect=0;image=data:image/png,iVBORw0KGgoAAAANSUhEUgAAAdsAAABqCAMAAADDRQtiAAABAlBMVEX+/v4AAAD///8vsZf39/f6+voFBQXi4uLn7+zs7Oy0tLQcHByqqqpQUFCUlJQHHxR9fX0vLy87pI1paWkWFhZKSkoqKiqioqI7OzuwsLAQEBC/v7/y8vIvspPq6url5eXY2NjMzMxycnJbW1shISE+Pj7R0dGGhobDw8Obm5tXV1diYmI0NDQ8PDxubm6NjY0ADwkntZMxr5kKJhsMHhcULCQ+e2tVq5M4p4g+nok2qYRSmYE2W04lb1w7u5MYV0EWRjw4hG0NMyUAFA0lYVUHOjMyh3gGGR4bVkwnuYtIh3gmODQ9upwumYAAFhIAHRokfGk5TUkleVwaT0gADBEOSjqWfHoCAAARLUlEQVR4nO2diXbbNhaGSYikSm3RvtLaV0uxYqdp5cy4k6aJm5lJmkyX93+VwQVJiSABELQsyqfGf7xKBAniIy6AiwtI05SUlJSUlJSUlJSUlJSUlJSUlJSUlJSUlJILPb7OfUtKJ4DqkfV/KM5n0qnQhiif+zafo5BpE3336PJOi384hhbHlvVAKB0lXIZl/eTqZvmogCKgdLLLZa/QarUKhUJvOR8YfMh88xBzs8ykcWeVsEryaWOf8cdUKmzzYrbIGZVq7S6VZDqrlZZZk4kMacvWXvA4lLY5I54tPiJbWJGHhwj+Wg29VMjpwdlWq1Vr1ZJXwfDYZgt+buDUHfzVyeXwV663HM2Hw+HANsitmkewSijksbX0V69fv3hsff/9K3xmXa9nBWi1+XjjZgF/W3R9n5U72She5DQij8/aiWOL60yvHUlXQN6b44c9tu6zgVAh7sB8+3JRGEpYl0cTYUsK9M0PP+52u9tqdberVvGv4/V2949/vnLvi1lvTTBRZm8CR3hQabbkn3yt1w/hRVqRLjdIVoovNacIh2Lp5Iv81fHYmg29a3mXTCDvqUUoF8yMfxsWuV7g8O44ZyOmLTqB3Ho7gYrz+i5zfZ25IMocpRuszMX1T2//BWgndQ5buMflpUQBVsYjqqONzGL0oJkda5N7jHPv620jMVcCa+jZ5Fz8sa6a5WxKza7LduWs4bLvbjFd4HokXIL288XP73Fx5Vf2hs0W2tmFFbHDEZG3l7Fs9VWcTTZYz9Ge7Swdtvgi9a2ZSsV12ZaQVmjiC7/5tsNwL45nm7m+qN79gs/YmCO7yau3o5lrtuJKAz8hg2AnhM22YYgLDC1ZZ/fZmi9TYeva69koTbYIzaG8Xn3YXR9vlKHW3r6DWyn3kdavMNjCv72mZAFaejHeJut6T9SO4bcmrEQFbwjjtFOyyUTTTgqN7r7e4rvbwlU/3t9cXB/J9iJTvXuBz9XOQctiM9iSprYrW5oWefgCqRls8amKwq4ymjOt/1nY4iu10mNLMtjDNlL/9UP1GvepjtHn3ac/8ZnW7viAxRZfdz6VLEwgMoxniw/ridCatSfENhW4+3pL/u7X4Mqfvvz0b6i40CWSrqqg6wzpH1/857+Q/5bpnpXNFoaoVvBuLapsAxjwnzOTSs6xyXqN2/1EBuqx0XlsNeNlpPxDWWJ2DbrRMZA/9LG8k1iRkZCrUZps4b8OtIHvf38L3eVkbK+htgPa3d33+BwNP+scm7wKlyT8rE+bm8q03t0Xkfd7EUrNYWvxuyhIqzGT7Nk6efYp2akOYtZbZqrwi5t+ymzREEZDv3zafSZwk9Vboi+f4Dkt7zPOZjuP9KPai+V84GDZg+yysChOA+8tpdhaes3kVtxRl5XkwNbMRf2JrQZlxjetTlQO2yaXVi3wOvaWy2WvlyuNi/VobssnHuWG2WqaWYIrv7+/wVVXni3pXeNKe3P/GhfHJhdwwTNt8lYPlDVOMW05Iad6P1fu6q412wzk6q2uz3leAcRzKbpjIPYsAiQKsC2ypwTcgqPZWnb4ILu3DrPtjk7b5NJs3ZdG4K397a6apLMMbDO7z7sPv+G0V/NAnllswcNHaTYP3yb8P+gAw64+Dr/HZTtmTy3gnhun2vrjW1bRaIi244IBdIRt2IEO+eqF3SPllNnCQ2aT6YN39xl5ujBsurkhg9r6yqA6tSy2Q3r8k19G7tGtSebyCr/dCRcUr731m7/Iycwyr+VMiS0p12FwqgLnpymYHnsEMeot3FUPerpfv8nXW6i21W/voQRGXiyNfzIW2x5d1FtkhO/S9A3gfNwcyLK1IlXcu0f8LHHgpsYW7mgY6ERAY1NIny1MRxInzv+qGVIffXqsCuv6sW52meonSDI2Qk1elC2+5oLqpNTZtc0/2AnPefJtMpyKdRL+BF5abN2jSvQjdnnS3hSbLQwIV9Cze3+Pre3NzQV/dsjvHt/cf8THVzrEmFJnYrGlOyltR3SL0UZJwBYPlxgVN8trbdNm69BtUSV27uoYcdkiNHIdzFXilbjm+phdtLu7X/HRNVJrQgaexfaKusVGOE0kL6EXBGytaMUVhpakyxZt6aZhfg62mudgtvQ/7sG/7M798dBmbsEed0taFC27vR1TNnlmJrNNIrak8xl8kKDnxvZLpM4WxiD01UVe0qPFZ0u6VBUd5uxdTyKbLXijqvdv8HFtthONwRba2+DzuxHaZMYp+WwtcPfQbMnVngrbLO3D4F/9ESRgS0ZDMATR/7jlzw3hCl2FmQGrzGk7mDa5RTuTc8n6i0K2+gqFHiRcbfmuw5TZ2ptAXqzYeIKjJKy3UEgtcA5+vIdWl+GmAmP95R1G2+zw8DDZhqbJr7i+QvYpRe2tjodM1MVMUbVNm60zo/K6PRdb930yZ299uP18fZEJ9pZJ7M319dvfX+P3J/xRDLO9zYZawBaK9oYFmQ6xXdBerhXNdhAwg7iVr23OzDZYb/kF/wiKY4sPMLw5ezeWKtDw4qb28+7TK/BEmXw0bJ9jOAaiFBuCSiWn2fY61L/tAcV2GyxzvWnSUVMps+0H50jOaJP3hyzBkHy9c/0U1wG0u5/BEzVbiiodex5oRbW3+LtYkA8Qo9jCnLxBO/NaQbZ9esapgBqh/7lXOXlfis7po0uCLT7mO7dL9SUT6FJhtBck3K38nRAKm+2gQt0jqL3KulMm8QsEKLa6niPRqYfp3o1zeNhCneSGjeg6nyJbZEamAs82BgqqA57QNz/cHHrLFxdf/tKJJyrmCuy5+RJ9k+5wtzwiVBKx1YGtRk+gHeJVUJautp1w3HrKvgu6LeqeyXcROm4IufoTd6l8uDd3MKhdC1zBXko2Wzs0y+cFrMxKo4T1lrClwsotvbFvvUOOoKJxXrYj2p+cdGCfTJJssTkxV5Crjz+7HshM9cMr8ETFN5KceCk0r+uBeKTAYqCiu25L0IYz2OKKGzxXwZ8yt/MBW03CXM/FFhxkxoSOxxufEq10vSUPHZTKi7sdhru7h5naxlKi+8Nmi1/v1XkuhcpiyV7A5yeN2uSQM6/oDZix6Q9eo6adkS0so6APIo/a6STN1p+zt/S/bn+8/eErPHVS4xYuW9eORvC68YGTXF8wrIqy1dAV9ZLbSUEDajCbJ0Es52GLr2xQaPFtNpIM/JJLni3xzJKlAC/efcT2OJ+DQpa4AoctGII2KzDUCx2djrnhREy2c2pQdQkVl/g2AzZ5raXINqJlpIfROm0Uq7xN1kgsRNbvkF4OJRejcdlCtbrSRWu9LnMOEy+TLZlbOpwKzF1opJWH6b8U2EImsoZhOJ4Mxx4uW2FvjSWx8vA4JWILx2vuFM7WQJK+BgFbWADPXKSz16zFMltstsN6qI6GPCTutH069VbftGftvTbNus88qJMObrVkbMlB8zU0FAmyJWQLIQA1Tr11X262oiXKZhsY7kD9xf08m1oH4mYiDbasG4q+xooQeVQlaG9Jk1sAH8Y4iTERsXVzMCznvbunzLPfEk/cdjfoR2Swdd0U/np1fKKJFphJtMjiBKSlVW+ZdKklMvrlaTtSWrIxkIb60D7WO4miJOLYQhnahRmjMPxCyrdCvio2Wy0UOjNyKsHzVAYpso0RRlscnDY4WUvEVtN6MKIAT9RjsvXi7kewoQlvHc1WQ6K11T7bAbVVyXpLHeT5IZ8EW2yMBolmNR8kaZ+jiewSBPmWwjGqsSnj2Pp47Rz0q6xwJDEZEW1l2GrUkMdL7P/e4MI00+tLCQR5GjsSUyLHSo4tiQGHkt8k96TE2uTDRczRAmoea1BERd1w2fZ5df+wG8aZ2ZLcbTrJ4kweKFm2JpkIurKTGxJptuQJcgprJpzmUIYtf5enhv1k2NbLQ9eEnFpSbBHqQ2B+vmCIPPi8xInY4rselqL7YNDLL/lsTd5uM/tJ8HPb5GkJyJ7eIGsybMkYFHqclw9bmSTP1r+eZnZe6jq1aN0iy8z3fDhs8Ts5tof60kmTLc/TVm+Ulw+oHQ+VDNs+dKL01QPnGpOyJYMtp0BHrOHCWpsybBm7AYIOvpZ0fBdWZbapNJvT6TTfrGxmxUlt2+rNBzC7ZUgXxLGSiIUjK+k3y7htJrmO/eRsQQNqeZZFLb/ks9Vg95uoJube95EO2+7ANAzPpWwY5n5RItxCart1CtkSl0EOOlFlsROF9IJybG9VYrbeGc1twLjB75UUW42e63MVtOeptLf1gRtdEJB3yhQ32RXGnoONI50o8WQUuY3hhLN/w8PYQuxsJEhBhi1rP5p1sB+WDttses0qV0K2eFALzVcjJiYKnkqyv0109bt2BFs0pAkVTSm2UHFDeIPhIYqt+xaJOre2gsBy70iyL1W+xWxJHsgWckav5DwsVhWyJWvkKY01TbENvUNCG2fCXRLdM5DY9CInHpMTCyfR7oSmX6cybDWyyzXtd8zSbyu2SCNm9koQtuSdwNlCUS6c6J4V7gGcOMdTscVjXHqmsEa/q9i6nqhph0RJCXrt3lqwlznuegA2W/4m94GU9N5x074kW4Ma44YW0j93trgCkj2miqJOlNep70C4yNoWzPOw1mj222U7MDbgpKQ3DjoEasewJeVMIuqgnx0Kb3jubJFTgkItiTebBoc36UR1V6LGk8EW9rvVmytHxBZFtkaV6ieTlE6ASTNkIZ43W88TJV6dB8dpZq7t1e5kbJHbkrZbomklMqkTZFuWGd+6px+M3b5ytzvNhS7wbNmaMAfv7nJBNtvkZs+EXWttEtiwcGIsK2O/C8Nb4THdDrVg6oPzCL8Mq7SCfqmWJFvSTxvMR/MsFmSO6i6kx5ZfJCmJZrt35NZb4ghVMjkEQ6RKLm4wE2VrwkcY+CpuR+F9LRH0uN2Nun1BwzmXZevlj92cp8ZWXCppKMKWdKIuh+K6uJ+sX8dHdLFs8ihQHXFBXK16w6ztHJAY9nLcDc3xXR5KNp6tIDvPl20Jur3lGDML837EJV8yYg7U2Gz9PQwOH5NUb25mk3WtdjUe19brRlNnOA4PJ1BsZXRgC19ZaAc3MavzgOYSPmwgzs/sHc5gy9mDnK8u7e9XbGUUYIvzB9VlHN71NJrGJkOkrVwEOoOtw4tG5msqEy8llZ1nyXYASwinjCUa4RRDuOVmbCfKPz7Kdhj7KQARUdtXKbZS2rNFQ9KJEvfdwbFoktq9Hsh28hlsC4yVmRxZ7jf9YRSKrZR8tuYK1uRshZWWuIzJZL0V47KiUkXZwtqOuE/h28MlHjJ6RKbYSsljOwBPVLMXE6iFvAXCs1GCj+hlsM0uprqsYOv3gim1HkguO8+N7QRcQFd2OMQn6lMAT1SXBE/FHBkQy+fodBoeODFYOKBGVnGb6be3pD8fyGKCWLgn5JcCYiVHM8Syc7Bd3nRlG3YCOXP25/EtyzMfL8s+W16TXOxFQ/CRUfQ+Mcv91Kwki5RhBtAKJA5/zgWVySs9eJ0GP4r3MGR3s959Ov5kyE8TAmqFmpLI226zWe/WE2jK+NxqUu+d+WIWqJ8htuTHesRaXBGaoT2q3grZ0jZ5JslW158W29MqaqI8e20OO4vJhp2ouV5xZpiQOd7sNxyYtTfJ6u2kW8/7moqeC1w0leDOBmP+Ih5shqaVvZrNzZNga2oLf8W6/znsOv3rEV7Y8EZMhK8zGLXKl7NNPl/vYuWn01lx3JoLHJ+IaiucZHfs2M5BtrBTaNKNkmi2y3SoQxNl6VTCprE/yJ5WA2HQ1b7TBUUNDbRjcOZwGGlijotPG+dePcGhaUm+u3ukkmYixfj7v6sOgxnNi2bz/6J/RV5P9EIM3H0GJJ8FJSUlJSUlJSUlJSUlJSUlJSUlJSUlJSUlJaW/l/4PFluAn3BE8i4AAAAASUVORK5CYII=;clipPath=inset(3.73% 8% 5.22% 7.33%);" parent="1" vertex="1">
          <mxGeometry x="491.8600000000001" y="402.08" width="95.46" height="22.92" as="geometry" />
        </mxCell>
        <mxCell id="xoEMEb9Q6lRqkHzQhWVF-42" value="" style="endArrow=none;html=1;rounded=0;entryX=0;entryY=0.5;entryDx=0;entryDy=0;edgeStyle=elbowEdgeStyle;exitX=1;exitY=0.5;exitDx=0;exitDy=0;startArrow=block;startFill=0;" parent="1" source="xoEMEb9Q6lRqkHzQhWVF-17" target="xoEMEb9Q6lRqkHzQhWVF-38" edge="1">
          <mxGeometry width="50" height="50" relative="1" as="geometry">
            <mxPoint x="569.59" y="749" as="sourcePoint" />
            <mxPoint x="569.59" y="370" as="targetPoint" />
            <Array as="points">
              <mxPoint x="399.59" y="469" />
            </Array>
          </mxGeometry>
        </mxCell>
        <mxCell id="xoEMEb9Q6lRqkHzQhWVF-47" value="" style="rounded=0;whiteSpace=wrap;html=1;fillColor=none;strokeColor=#808080;dashed=1;movable=1;resizable=1;rotatable=1;deletable=1;editable=1;locked=0;connectable=1;" parent="1" vertex="1">
          <mxGeometry x="920" y="879" width="399.17" height="159" as="geometry" />
        </mxCell>
        <mxCell id="xoEMEb9Q6lRqkHzQhWVF-52" value="" style="shape=image;verticalLabelPosition=bottom;labelBackgroundColor=default;verticalAlign=top;aspect=fixed;imageAspect=0;image=data:image/png,iVBORw0KGgoAAAANSUhEUgAABE4AAAGeCAYAAACKOkQEAAAACXBIWXMAAAsTAAALEwEAmpwYAAAAAXNSR0IArs4c6QAAAARnQU1BAACxjwv8YQUAAH2tSURBVHgB7f1PbBxXnuj5/k5QEil5UXIDs3oP45Cn+uHiLa5p37rv3cXgKqVGYUS6cS270cCsSmkNbFEFTIny5s3KSnnz3sqmCg8tygIsunazGFtqoCU1PG2n7qoX1bY8qwG6YKVn09WzuKYXJSUlM86c34lMkpIoMSLzRGb8+X6qkqTo5L/IyJNxfud3fj+RJjnz+kdyZuEjAQAAAAAAyMBIUywttt3ba/5jY9+Uy7euCwAAAAAAwHM0I3CydCIWib5yH8X+31bWxSSvyurtngAAAAAAADxDJI1gNNMk3v6nHB58DgAAAAAA4JlmpO6WFi+4IEn76f9gYnnt5z/KP/3hHwUAAAAAAGAX9d6qk27Ruff8OyXHZPV2VwAAAAAAAJ5Q360623VN9hBdk+XWYQEAAAAAAHhCjWucmI7srGvybLFsHKTeCQAAAAAAeEo9a5ycWTgnxvxP2b/A/BvqnQAAAAAAgCfVr8ZJpromu9AWxcmjY3L1i7sCAAAAAAAgdduq42uVZKlrsgttUTyz/3PqnQAAAAAAgKF6BU76B1ckW12TZ6HeCQAAAAAA2FKfGidLixdEzLKMjXonAAAAAAAgVY8aJ6PWNXmezUevUu8EAAAAAIBmq/5WnTRoMlpdk+eh3gkAAAAAAI1X/cCJjT6S8eqaPEss/YOfCwAAAAAAaKxq1zjRuiZGlqQwJpZf/LnI7//5jgAAAAAAgMapbo2TswsnxZrJZIQY+6ZcvnVdAAAAAABAo1QzcLJd1ySWSbCyLiZ5VVZv9wQAAAAAADRG9Wqc+IKtEwyaKCPpz6RYLAAAAAAAjVK9wMmDFy7IJIMm22LpH/pIAAAAAABAY1SrOGxaDPZ/kumZl9d+/qP80x/+UQAAAAAAQO1Vp8bJ0onWYItOCSTHZPV2VwAAAAAAQK1VI3Ay6WKwe6FYLAAAAAAAjVD+GifTKAa7F4rFAgAAAADQCOUPnDw4dE3KFDTZFsvGwWsCAAAAAABqq9zFYdNisEtSWubfyC/+XOT3/3xHAAAAAABA7ZQ3cHJm4ZwY8/+T8mvJv/9vevL7P3wrAAAAAACgVspZHPadxXkX0vlGqmTz0aty9Yu7AgAAAAAAaqN8NU60g86MfC5VM7P/87T7DwAAAAAAqIsSFoc1ZS0Gu5d48LsDAAAAAICaKFeNEy0GK6YtlWVi+Xc/Pyz/9Ie/FwAAAAAAUHnlqXFyduGkWFO9LTq7So7J6u2uAAAAAACASitH4MTXBom+kmpu0XmalXUxyasueNITAAAAAABQWeWocWIizTSJpS6MHKbeCQAAAAAA1Tf9Gie+ron891I7hnonAAAAAABU3HS36ryzOO9CN99IrVHvBAAAAACAqpreVh2tazIjNSkG+zzRNVluHRYAAAAAAFA5U6xxYjpSp7omzxZL/9BHAgAAAAAAKmc6NU6WFtsucHJBmmNeXvv5j/JPf/hHAQAAAAAAlTH5Gid1az2cFS2KAQAAAAConCls1fFtemNpGloUAwAAAABQOZPdqnNm4ZwYsySNZWK27AAAAAAAUB2T26qjW3TszDdibLM7zLBlBwAAAACAypjgVh1zrfFBE8WWHQAAAAAAKmMyW3XSLjrLggHDlh0AAAAAACqg+K06Te2isxfdsnPw/hFZ6a4LAAAAAAAopQls1TEdIWjyNN2ys3GQLTsAAAAAAJRYsRknfouOEBx4ruSYrN7uCgAAAAAAKJ2iM04uCPYQXZPlFkVzAQAAAAAooeICJ0uLGjSJBXuJpX+IwrkAAAAAAJRQMVt10oKw9wQ5JEdk9XZPAAAAAABAaRSUceILwiIXQy0YAAAAAABKJnzgxBeENacEOZmWLJ1oCQAAAAAAKI0iMk4oCDsyCsUCAAAAAFAmYQMnZxbOCQVhx0GhWAAAAAAASiRccdi0IOxXQuBkPFbW5eD9I7LSXRcAAAAAADBVATNOfEHYWDAeI4flwUG2OwEAAAAAUAJhMk5oP1wA2hMDAAAAADBtgTJOaD8cnDEfCQAAAAAAmKrxM07INilQckxWb3cFAAAAAABMRYCME7JNimOodQIAAAAAwBSNl3HyzuK8zMg3ggKRdQIAAAAAwLSMl3EyY6nDUTiyTgAAAAAAmJbRAydLJ1puUt8SFMwdY3+sAQAAAADApI2RcWLaggkh6wQAAAAAgGkYrcYJnXSmgFonAAAAAABM2ogZJ3TSmTyyTgAAAAAAmLT8GSdkm0xRckRWb/cEAAAAAABMxAgZJ2SbTI9ZFgAAAAAAMDH5Mk7INpkuK+ty8P4RWemuCwAAAAAAKFzOjJOoJZgeI4elf4isEwAAAAAAJiTvVh0KlE6blXMCAAAAAAAmInvgZGmx7d7GgunSrJOlEy0BAAAAAACFy5FxYk8JSoLWxAAAAAAATEK24rAUhS2fzUevytUv7goAAAAAAChMxowTWhCXzsz+kwIAAAAAAAqVNXByVFAuWiR2uXVYAAAAAABAYfYOnFAUtpx8a+K5eQEAAAAAAIXZO3Bi5A1BSVEkFgAAAACAIj2/OCxFYctv7v6LstJdFwAAAAAAENweGSdRS1Bu9w+2BQAAAAAAFGKPwIk9JSi3iK1UAAAAAAAU5dlbddimUx1s1wEAAAAAoBDPyTiJWoJqYLsOAAAAAACFeE7ghG06lcF2HQAAAAAACrH7Vh226VQP23UAAAAAAAjuGRknUUtQLWzXAQAAAAAguGcETtimUzls1wEAAAAAILhnbNVZtFJL9o77k19yH8RSN1bW5eD9I2zXkfKcv/qYXLn5oqA4ZdpWuHrTCAAAKIelRX1dTqQ2bG/wweC90fffuz+x5z8317/LPOAJSwtr7jjVOyHAmnUxibu599a6927+Yc237uMfxNhvOS/C2ffUZ5ZOtKS2jJtgWTepNrHUjZHD0p+bdx91BeWgj4k+n1ZvdwUFiVoCAABQeyYefBA//vnBBoL+IZEzr+sk+q7717fuOrQrP/3Uk6tf3BXUl7GH3ZvD4peNjaTv5aQLpKT/fuy8MHdcoK3L3GQ0TwdObHRSartuan8UH5mtK3NSCJyUjLkgPCZFuiAAAAAYTqJb7qOWm0Cfk5n9mnnTc593k+boutjNO27S3BM0y87zQqIL7pxwH9qumGiNcyK73WqcHJXaMjVPUzLUOSkdN0i988t5QXhpdlwsAAAAeJZYrFtctXbNb28+u/iNnFk4l253RnO5OcrwnFha+ErOvk6N0z08HjjRJ5ARJnnVFcty67CgXGb2nxQUwLQFAAAA2Vk31zNmZSuIohNmgigNNwiiLC26IMriBc6H3T0eOElMvYMmiV0fFFKqr/4hJullo6mSBLTC8gN6zYt9AQAAFEmDKFtZB4vX6l3rEhnE7tYZnA8EUJ4QPfGvek+6o7pv1VGWjKGy0SKx9w+2BQFFbQEAAEAobXd99RXbNjDQ8ecD58KWx4vDWvNKfQvDDmjWSVTjP9LWuUZNVsnbu37amp+58/vVqWQqRKL1Z1YEoUxhELfdQTXyngAAgJJLtL/IsV3+QzwolHm0lp02x+a3bbRkabEjxnTk8t99KlUVmRVJkrUnPhvz+GcWD7bwdNzz6VjTi8huRxDaJw/L3MMfpNbcAy5R7D64JnU2d/9F+nU/h6ad2egjd/ZPOMPKDzhdwXiWFtsy0eewBkzs21QcBwCgJpZO6Fu9Hlx214PnBM/T84uSdbuGTee+y0KHxjw6snrzojTUzNZH/yH+D/Uvtmg/9X2upeZbkn6a+Xv5/R96gt39/g/r8k///D/LL35+xJ0Pk9za9KP72bcF4/nFzz+a2AqBlety5daCP2cAAEA9/P4P6fXgv/9zvS7TheSW4FkO+zniL/48ll/8N9/W5pro7v/el9//c9f9XTz+2bXk3/98Xv7b//vfyz/2+tIw2xkn7y4sS2Q+klpzK/6JC5xE5nOps8Sel49vsS1kLxppnn10L+1tPgFW1uXg/SNkA43BF6mK7slE2J7MPXiVxwsAgBo7s6jzoY+KzTxx1xRiPnXX6HclsvmvK3T+YuQlMeZF96+X3PfTFsPzvo7e5NUv68BvRSk688R2/YKcsT/KuHz5gameC70mbt3ZDpycXfzcPZg178iSHBG/ry36SmotueFOZLrrZDGRgXIHglrjWVpYm1iNGpO05fLt6u7rBQAAe2vrJbN9UeYefl1ARqt1137vFXLtN9xupF1RI58x8cqgdsck9Go3cdaiuIUcPw2a2eK3OmkHz/7cvPsbTrpAylE3yy86q77XtODJdledxLcfQi1ErwiyiVzkd5IMLXTHYyZX/PinzW8FAADU25q7FDzw8Ac3F/qthKXFaU8XtmC2elv8pPXjW9dl9dayzD04JrP3X3SBmjd9eQLNdC5O7DOAdcdCbZjwi2VG7vrs5UnUh9EMaf05ei5cufnqIGHgYhq4KUScdmFqTsviNOOkEYVhJS2a2p87PLlU/ymiQGw2E936MUSR2JFMuijs6s269xgDAAAqzd5wE83oOwmjuEyTLJZb+hsclo25k2mmbqGZKGtu3nG+8vOO4PNhn2lSjoyMpRNtdw5cKKhGYK8pmSdpxslcf5IFMqenSYGEP+2PBeVkDNXbR2LJ1gEAAOH159xtNuA8wXanujV7pStyyWcgrPnJu88+sEVtP25L/9A3lc88WLseeJ5Yoo6Meh6s3hpkoAQXi4k+91uFai4NnCSmGYGTJpnZz2NaVtacbMLgEpR/MZ7Yvl0AANAkul1n7lGoibMVm1ySshhu6Vm91S4wgKKtnTV40hKID5yVMbt89WZncA70JCQr8y54VvMmM8PAiTGx1N1wn19jCthYAidl1j9Uoz2hk2A6AgAAUAUHN+5IGRUZQPFdXaKv6lX3ZFSmnI+/8nNhe8zNje9KWO26P/aDwImtfzFRU2iBpBKysaC8rLBdJyvdczrJorAAAADjKHt5gO0AytvBsw8i85EsLU6uY2U59aTM9PHfOHAs+GNvzIU6F4tNAyfWNGvbgDUNCKLQWafUNCpPOmM2cw+1T2AsAAAACGerBkrw7Tsdgicl52u62LDBE591ZCbXyGHCBhknhfd5LoEdJ4WxTcg+iQUlZ3hByYLsHAAAgGIMs0+MPR94cZngSdml23belqBMq66Lw1GTei83Do9tAUKmtLmBhSKxz6cDbyMCuwAAAFN0+daKmM1XA2/fIHhSdlrE1krgYsb1XBzWjJNYmsY2pN7J5iaT8uBs2DZeFIndg2kLAAAAijcsHBo6eHL2xClBeW0c6ARfHK5h1kkkSVPqm5je9oeN2KpDS+JidIMOLGxDeba0BTEvtAAAAJOiwZP+7KtBu64k0Yq880vmJWWV1jsJvWWndlknzcw4aYrEknFSCBOugJYWUTqz+IZgF1FL8lsTAAAAjE4n0tp1JVTwRK93Z/Z/ThmBEku37IQLllkzX7eSBJFETck4sT/u+Mf30gQRQbFC9A+sBC2eZSzbdXaXM1LtM4HuCAAAAMYTOniii/Um+pz6fiVmbdjF4fsH21IjkTtCsTRCE1oQP8n8TLCXWPJK09kCtm0zLdIXn5Dui4wlD2M7AgAAgDD0mtckbwbbpm5lXh4cpFhsWT2cXQu6OBxJrbLqdavOS4KaSl4UFMMk1yWkmX1twQ55i8K6F/TLtwMGswAAALBVMDbUhNqYZYrFllQaKAu7XadGImmKZGdB2B2FYmuNjJPC6D5AsV0JxZpTpC4OjFQU1nQFAAAA4WnwxGyel1C0WCz1TsopkRsSim7XqVFWfeQmbM2YrEWN3KoTC4oTemCp2T7A0UUtyS0J2yYaAAAA21Zvr4mVSxKCXveKuSYon8gGzqqvT5fXKD1xGyZpSDtiFIt9gEXJWxS2m6aRAgAAoDAbBzrB6p1ojb93F2iQUDZ6TR1yfiO2RoGTxkh6Wx82MvsEwfl9gDZM5N1zLyBpUdTmenfhpOQvCrsmAAAAKJZe+26aNyUUYy6wVb2MQgXH/PeKpSY0cBIL6ioWFEtbEwdlTkqTzeStbUJRWAAAgIm5elOLh4bZIq07H+iyUz7GfiuhWFObRjQNyjjZga06CCVtTdyVUJpcJFaLhFnJFzhKJGDGDwAAAPbkFw4DZSVol52mZ1yXTsBGKqY+9VSbEzjZ3NwOlkQEThCSDVeYVCPv/UMN3e9pOpJX6AJWAAAAeL504fBtCcaQdVJXtj71VJsTOJmZIViCYmhr4pBFlGxTi8Sao5LPGkVhAQAApkCvf4NlXVPnr2R6EkqNGtE0c6tOyJMBUCGLxBqZb9yLx9JiW3LX5EmobQIAADA1AbOuyTpByTUncMLKNIqkez2Dtu5q2ouHzV8U1q90AAAAYCrIOsHeelIT+wTA+HSv59LCDTfo5wwAPIt78dAisSvd+m8x06Kw+vfmYWxHMHn6WBkzL4m8JEaOuNtL7sGIxdpBGqb7+EkaUDSJnsc9d/91sfK9u93zFdvn+ncbcY7X0WPngntv3DlgZd7/Nxsd9v/e6anzwHzr7nNXfvqpJ1e/uCsIT19D/rQ/lpkZ97gYvf1s0BYyTu9g4qe/aKvYI8/Xslk6oW8Zg1FCmnWS8zrumfzCYVcwbbGEYutTW3RfOqDaenfxsPL4A6bZJ0uLUntP/t0omF0LFzhx0iKxHam9nEVh9bye698QFEsnXf05N9mKjrqD3nKTYfexnxzrdrKUHd7ZPPv7+NcXX1E93rq/GbzpHxI58/q6REnXTQS6/kKeTKJy0vPhwcFTftJmtW36k+fCjnPA2Ke//unz4KT/mpn9kr4euxVLK9cl+ekOgZQR6WO0cdA9V6XlHqej0neBrJkn72T2+CYmHnyw+/P17OLdNLgSXZefHn7LY1WQ5VZaUHHjiTHYMAajhPScWVrohgmeDLJOOA/rw9RnPrrPDZL6x9Q7cFKjByyXpv7duUSxhBL0hUP0guicNCNwkq8orHGTK1bIipEGS076AOCDwUW6Z3afDIfgJwJuIm60FbXRSXRPxF/A35DLt64LUluBrF0UtWq8FSxxj03fjWvDuVkh54L//q1BIKXnJv4dsZt32Ga7h52P0c7nbEFP1zSrSLNX7Mmtx8qvDie/k3KwlZtwtVvuOTwn2rNTZh9osESfb7/aCpR4jMEouUQuSeTG8CA0OE/WyXRpduJegfasArY2njK26gAhJXIj2AuHVqGue9R9tKKwAQuRwdPzzEbn5IFOXgcX6kVdpO8tdre2u5Bv+5VQoy2nk08bvfq0tHjBPTbLz8wO7R/SlpBrEkq6fW7ZTcRPTSkjVbcerPkybEuLa/45TwDlcb4OgDn52GM0nedsLPp8lagt5aAHofz1+zru9kMrzfjwqVeaUWLOSf+Fo6Uag4dBlM1Hl8guwnM9nO3K7KMwuxisW7xZbnVYJJuqlySUxH4rNbHPp72HCiiV1tae3Z30c7HUWY32lFXGw9k198JxIdxko+Z7PTWrJtf4Y7vPn0AlveY2C8tpuFIt7uJY3CqyfxymdqG+u/R51PaTMr9FwKzI5b9rTjclPzmOromva/Dcx0azttZk/J8Xp1vnBlsOTSnOh7Z//M8srPjuZU0PoKQBkwtbmY3leIyQVcfd1lsi/3rQyIH+4bQwuj7fTDnH4GEQZWa/jsHfuN/zUqPGYGSntf7OLOq5cU7GpQuH9w+23UcrgulIM94kiMjWJugaDbbqoI7YqjN5+sIRsjXxsEhsHf16cd63Xs7D6Cr0hNT1uOvf5TMYXrgnxgUi8j4G06JbBDQLYWnxnpx9PVwtoTJ6xz03lha+ci/R7pYhwG81xX4Mw3PCznwjIes0hWTMsj8edX/sn0UDJlvnRKgijJiod/9S5P88oavpL7rbBekf+s6d1x9VaAx+9bExeGnRuPcCbDFJuK1dkbzha/1g8nzx90ALwJqgUaOMYd2q872gpuyPgsmLtMChXJBQtEhsmrIotZLY5Xz7J21PLt+e3EpXf05fNOoTfFxaMINaFR/K3hkMZRYPLt47btJx0Z1Hn7qLNa1rIJV2ZkFk7sGL0n/hfffY5HtupNv64tzZGGded+fEZkv60SdSjXMifezPLMxLZN4TW4PH/Xn0nDD2iHvzCcGSCuu0RP6oNUw2ja8lsnGwHmNwmj/TkbMLv3PjsJUrNX4uIhtf689v74plbKblCyTX6TqsKhIzHyx52yR3pEYaktO+WwBh1+07NRP9IJi8v7l5N1xPe0m3s9iaFXDWSZ6N3sj1NWJIDx6FdixZOuEmX/Klu2j/TOqzRVEv3nUby9fudqSyndK0xaiu3Iosu6DJd2nQZASJyZ514n/mgv5MN4GLvpSqnRM++2T4uJ+Q2tl+fJbFznxN0KTC2u5p+cdD+ljWdQxec+8/862Rm9CtElmEu1Z74LfrYNKiMbNYdzLyudRIVKdKt8/W2AAC2URTY8MVMNXV5P6hfJ1nSi9q5U8DTNYE2enk66yfkHfc8f6utpMvn+auf5/7OzUAUZWJ9Pbk+Ji7DVL2x0iNjWwr0/3S45NO4kYN0pSB7+7igz71Cp489viMeU5gejTLRB/Lgw/1OX6h1mOwb0/ux+AL/jXnTA2Dmcgh6UoobNeZPP8aZMLMOXSbzmz/htSIZpz0pJnqH1RIqF8zNZquaE24468TnLpMDtK/I+9WpjW6auRwdkHf6uRLV+XDbRsrN/079eL9SKn33etFoG6RGU6OQ2V82OiovPPL59/nHb8ifCT9mbWYxMVbwZM6XFynK/bHGpZlYqWEFVHHorVM/vWgftS0Mbjjbv/ks0/S1yA0UdDr363tOpicloTKijNyvW6dkfb5yXVU+7Y6zcy8MMk9wfSkRWIDXTDpRbRfUe5K9bUkfwtitulk5Sdf9k03+frEvS/ygmPHZMf2/IWSFhv373VPso133Nd9bHb+u6gXHd0C9rX77ud9G9vVm1IqWrPCPnjRffS+m/CHzfYw/uJSi0zuXr1eA5ab8qr7uSG2Ctgn/rX+dKF5E8uTv2ExYh88sfKa+7i62aVp0KTj/pYLBda+2P05+7h4Qs9V8VtaE/mt+wn/tbu55655yWfYWN9h5smxqxoXqro1Z8ZnmZyc8hj8o/vcznai8UQeV+vHGBfMtDoGXy/dGIzJiNxz2wba7rFxSL/PmqB4abZJW4JJwmXfl8Q+2Wd67oULdZQkbNWZpv6BFZl9dC5ga+KTblW1W+kisSMNyvZenSpyFyqtlXHBd2wIP/myg7d33fe+4z74VjSQlycTSLvFGBdQieSo+x2P7ugmEe4iXidcae2T2AUqLsqVW2VazdY6JhcK235h9rVkt8DJcPtHZL4cYyJnfYDEB2/d42/dgoS2GHze46/devpz8+6xfmWQ+tsaTIhDT9pi2Tj4mby7cEw+viWVM3zeFpOZYAeBrbvu/Q33/luZ69/dcxVQn6uRPTrIfDlazOPmvveM/Exs8lfud7vnnqvb/0m3exgf4IslMYfduevGCvuzUgdXNNMkckETq4/jRMZgfa7fyTwGpxlnxY/BPoBttK6Bbp+8SPCkgTbd+RnlqLv1XHZeMClxwM56tcwU3yf3D/Rk7qE0TwNqu7zwqCeYHm1NfHYxXNTdusHM+lTYKqe9xbkHZROwXkydpZMv7Y7SlrCsXxnWSdfBB5+OlXZ5VQsn+4n9df9vLRKsk2kb/WZwAR/y4l0noT9zx+U9d+FejuCJ1qwocleC7gcXWXnsc1s1M6IvRwrYWPnBfd2n7oMbciVnADM9V7qD26XB79N2B+JXgwl5wMfbZ+Wdl3d++ZFc/UIqI800Kd/zdvu5emlwDrXTsdsHwMI9bmmGwj+ISf7CBUvubXVmSd/3ZHs7+fWnvvZZwZVp8EGTRI+LBm1DTTyGho/ldfdY/m7kMfiqD2Bsj8FpLZJYihuDO/7t0uIHpRmDMRn7TDfcorzROifLtessWTbpwmZHgnALnlLPa/d9fnJ35vX1mhcg60nT6ApTzfaVVZJN3GQhChM40dW1tML4ilRW1Mpz78EK9x3B86VFRkNPvtKLdbEfFJbxk65GrPmbrnDP2HODwFqYi/e0+8phd+F+uhEX7roKrxc/j7foPTJSHRUfMJHfysH7K0FfS1Zvr4k+3mkA5X13OyKhROZD2fRBmm+kCra255T8eZueT/qYraVbRs2FwAGUI1vBk3Ote3Kpm+2rsgRXJuHXi5rhW0TQpNgxePv46fi7JpqNMuNbobvAZrDHtiM69jRlDEZKu0uGm1vGtCWeiCPBsk10wfNyPesSDtoRN6E1b8MYe1cwff5iJ2BrYl1RrmqR2FGKwmphKYrCPl+aaaIT47aEoRfrX7mZwHFZvXV8YtukdIV79dbb7ue+PGhfF+oiuy0aVEqPU72lWxdaW//WIrQmZ00T6+uEXHQBk5fdRKdTWABeAyirt152Py9sIHhm34eVGCPP+OKZHQm5PUcfu8S+V9jzVgMo6WvaMfc8PZ2uKgaTBk9EXpQq0UyTRIMMVsfgUEGTyY/Bmo2iY7C17cEYfF0YgzEOk4Sbh/RnjwqK44P4foElhDUXNPlUaioNnBi/V72+7OZuBeN6Umv2R8HekglkWiUSsBWXT29vSTW1JO+qdw0LSwWVdmf5REJ14Ei3Zbw10YDJkzRQdvnmW4EnZm3R43RmoQEX7lHLv0uzGT5M2/ZmZOQbd7H7WqEBkydduXleNFATTAXGyDSwc06C1jRxE2197D6+VXxGogZQHsyuucnMa+78uiThHPG1aqryPP0f/rsd23OCjsFvTm0MvnI7HYNt8iZjMMZiTbi5pZl5VVCM7SB+LGPT8aLe1+2DjJOa1/swpoFBhIiMkywiU3zg5KG7wAzZmjgtEiuVMlpR2HyFR5tmODEOlmkymHhdvjWddPcn+S0d9ni68hpEW/R4pcdtSvy+3yduodux2qNbNSm0jXn2r1uR2fvHp/Kc00BNyOCJjT4qedaJZld0JAw9dy4OJto9mZRPb6R1vIwsS/rYBTqHfQCi/FlD2j1n/z7jXts/kjCZJnbHGBxwsWVEGhyzuo3Sj8FdCaMt+ti+S6viRjAScB6SZF8AQHZnX9e3OoaPH8T32ar2eN2v2weBkwbWAKk7u1mNPd5NoBeXYsOlraVFYqtWkygeoSjsmmB3ZwcrBLkmxs/jJs2Tnnhlob+P/l6hJtVpzZPO1CZlujXlqdvNyKfkiz/fx598ap0Tkbcl+4XQcOJ9fqp1sTR4EmrbTlrksiVlNEyJDrP336Zbc3zgaTp8x5Skk2YnBAqeGKPZOC0515JS0u05B7XlsNXOOedkfBo0uVS6MXiYfSLmmIQbg/V4LVd2yzGyi0IGTqJXKrdgWHbpIlI7LVo/Jr9NVGofNFGDwEnSlTrb3NzlYjDpSZ3RirhcZgL2oNc6BhuHAk2YJyVqSy62V+c9kmNJLzi14HCoNP900lxmYTMS9LgdK9WFu6bka32XTXnNBT5+kHH4OieRFgqOM9xbJ7qnpzrx3mnjwMVwWwPMhdJdaKfnXEeCpER7pyeyNWcvw+Kx4YInZnAOl2+BoNNyr+eb7gMbagzeDlyWVdpOuCNhxmDjizhrYOwMwZNa066t4cRSxvGgivR18YyvN+QWK+w1GdcwaJJ2Yqu9NHDi9zOa6a00FW1mplmVmLUTydUv2KpTJlphPGSRWFuhIrFpVDtnKrPpCp7lyCA9PISLpZk07yVk8MT6gqnhurmEohceUfKBTI4GTdakLNLsvNMShGmVMDNPz7mAAc8SPXYaPDFmTYx9T8I44hcIypZ18sc5d4paHYM/lPENgiY3y18TIHTwRANjJlgAEWWk43nIuWV/jsDJODRgotfj1hfg1mugMNtzGhQ0UdHWRyGrH1dBFNU3mEJHnZIK2NO8zKnoT2sLRWHD8EEokzWbYC/VCZoMhQqe+KwMdxzLuNf+8q2VCS1klGviPRSyE1navr0ctp+7AejWuhI+dy/fckO3uRSsYKyV30iZVpm1rolEJtAYXJ2gyVDY4Im2Pr1GvZOaMzbca5m1rwjyezxg0pH+C9+5a6CTMjZ7z9dkalDQRG0HTkJWPy6b3fZcJUmds1Dq3SWpqnRCELZIbPlS0Z/ks2Js3sJ5ayPvk6xzQHQrzT9E94aSTryy8L93iPo3/jiWc699FDA7bVdlf/wDBZm1fXt5xsh2oOfuvVJv6+jvt7Kx/6Lfbjku4y70y5J1olt05rSuia7Sjv04DmqaVChoMuSDJ/r8DFG3zWiL2WW27NRYyAKxNipflmhZvfPLtFvO0oJ5LGCi49f49bUG7dLrXwh2N/u2Pgpa/RhTZZNQXSgQmrG6EhcoVXsrFb3MwYI4/0VmMvoFmQ+IRlJTsQQ5d0o+8cqiP3teZh++4l63xmtRaFzwUax2sAhUVyMQq+3ki+raWYHHX4PMSwvdsSeoWii3DGNkul0xzLhvJNRWmGJot52lE1qn5233y45/LZJmnWgdl+k+hv8yp5nZsXt9YQx+cMC689CNwY/+7ZhjsHFj8Pvuuui60KSinkK+lkUV3NpV9MKM1QQ4k37g3+kn3QebjzQrXQOTb7jgc8vf1wSp3Z0WJC9Dba0p2Q6c+AKxtZ1wPK0/t+5WD6SWTI2zh6quf2DFnXeh9rjLoEhsR0rLdCQXvaDUVH08xk+8bEfGpftRjbaXrDjdO7104i2xM1+7v+dFGdVwy87SiWODApclYXpSmIo8/onccJckLRmHL6Q9pxeQXZmutoTZXrdWmnbhz6PPpaWFO2lWQs5uak8aZp1M83Xu13/tzsc/mYBj8F9IlWlw7IwLjhn5q8EYPPoKtj6+umWndGMwwgj5WmZ+JtWigYuiVkCG9JgcHtxecjd9vYtlZr+Ep4Xb7Wn5uNnX6NuBE023OfP6eqAWeWXS2/Wz/sJ7UerH9pqYOlUZet6dXbzuLp4C7C8UvQg75y44OqW84EifX0dzfY0JWAemXtpjT0CUtR/IlZqMDzrOnV34YPxCuZrVYLXdZhMy9S5W5vXh4eyaCzKPXwQ5MdMNnGxtVwxx/Vyh2k/WalbCxTDjlvxmqq9zyZ/0bdv9Lb+S8Vh3XC7WYgzWVsVnF7TGwcUAY7C7TrAtmX6AE6Eldt2XBQrzzUZfJJmOdv6OkjmZHR+EaQb/NB/sld/K3IMVWek2q9nKLh5PMTHJDUHFWbJNys4mYQrnKb9iXtoisW3Ju8pq5Y7gccHS/N1qQd3SK7WQapBColE5C8UGpdlcFaprk3bY6cq4IjPtgoJxoNom3UotiujE2kQ99xo1fobMNF/nNNsknZ68L2PzY3C41/9p02LAvhDw2M9T04wxuIGigHX9rHlJMEku0Cuf+wKweu1A0MR7PHCS1LDOiX1uReee1I1xJznKLWTXCK+ERWInXRS23toSJM2/Blt0dhUkSykWLVJYZ5XM5jLjB1KtnZdpslGY88qEKIg8YTaxgRYKdGJ9aipFYreyTUJ00an4Fp1dWcsYjIkwpm47IkpM5yjJcRf4ekuoP/SYxwMnkS3/3tm8TKkLZ4bHin016P79YLaKxJZJnHuVdfNRfVbiQglXVLK+Qak0ELkm49JCsWdfl3pyK92XbwfogjFhiR1/MWeaF9saQDbyhoQw269eRrDfWhPpNUlPxmX9cZzsYxk026SmY7B/jDXAGSDrRAvF1nYMbqqkJ6ggE/tgdRo0PiJnF03apYcOWI8HTtJBvSeoKOqbVIbu3w/ZmliL55Ul66St5VtyF4XtytUv6pfxNr62BMk2qVBthJEEWPFMtwOMX4+hjKpaO+jhbFfGF09xbIwlzPP3RmXTpK2/jR/02S70OzlBs02SD6S2AmWd1HkMxvjKt0BYZ7Ho2GftNRcq0DbGX0uaEZYGUTTA2dAgytNtdKzUrM6JtsJ65n/rSa2YriAnG8s0pPv3w60Aa5HY8ryoHBYb5VtlrWIaetHSFyWyTbLwf1+A7W82adfvYsC9zlUx20TpOBkmwDylsTFqSQhJhV/bTWID1c/Tvpthiqpn0W4NfibZJnsKmXVSyzEYQRgCJ1NjZV6MFoHeCqK0RYMoSy6I0rDn6y6Bk5C1F8og+kGawm7Wb6tVnZkk3OOlLyj9Q/k62BRl7uHJfN25KjyxK1ZLwqxWN+TYhsiq8NvLWlIrVQ+oB1jg6M9N54I71DadKMCWpWl5MOuO/2yY39/Kf5xYnZO5OfcmaUmYbJPfSe2FqnWiHXbqNgYDNaJBlO1MlE/EB1AWGhNAeTpwoqmxIbcQlJmp2d95cIP6JlUSukissctTH7hGypIgU2p3pi1j89v3utIE6d/Zk7G5Ve2yFVseR9VrB0UV3T6sWxaTEIFPkUo/hz+9ITL7aN1dbIeoV6NbdSYUBDOGMTgHzTqxM3cCzB/SzKJpFAIGkFd7EED50t2Oydn6B1CeDpxoaqxJ6lRr4Ptn/hf7vG08VeMm4LSKqqCQtQdKsVrektwrdHWvvzECbcuYd7vTbhJpWsHd8bNrrDlVn73UbtJW9dpB1X2dPuymgOPX5LAVzjYZMlZv30oI9/fHUrR3/1LHAR2D/5OMxzZqDDbWutv4f681vxJhWwZQHTr/iDR48ploBsqZ+gZQol0/m9StzkkDUCOimnQlKmiG1xRXy/0gmXeFLrlBQeNd5dzu9Ax17JT2XMmajGsaRSiLw2v5tBx6GEsItegM6CMnPQlhZv8EnpubGrAKNQY36DmY6K0r46rXGIzGsvemcxuU5H76Vjyrdah8BsqH4rfw1C94sm/Xz2rHj7mHH0nd6YTVSD3Qhri60hWanNtbniFdLe+4j6ZxsR27P+ZUni9I90niKZGMXwRRV6qvNCwopUG4pcWejF2XwLfh60rlNS1wViJJcvhZa1P5BAo4TN/3Mj69YoulaJH/OYzBeel2naXFYfvpWEZn6jMGo7ns6alu01tuHZY/HYplxr0WWfOKe1bF7rOvDLLTVXEzYGOW02LeyWk3JnwlqzelLnZ/VU87fnSlHnrP/C+1WMlR7rFi1b66+gdWJBRdqXlwsC1TEbUkFxcZv/L3rIg/SSP0IbbpmIYGU0N0hrNu0lSHlZKm1LcppSiWMEIEHKYr0fqoNtT11n8tRdJuOmG26TRzDA7VftrKG3TXwRN6guy0fMPVm3f9dcCVW5dk9dZ5dzvughhu7p8cd0+ylR0ZKkWIB9t3Or72SU1qxz17OYTtOtXBNp1qCx2ojKZwwTFKUVgTsr5LrbSCpIg3NdsgRLeqtO1hSyqtbh3yKicWpCKrt0CBk+RFKZJ20zFJiDFYu8w07zraWhukO2ctxmAEDCAjJA2mpIGUlwdBlDUpLoCic4PP3Hd/sQ7Bk2cHTnS7Th3Yzee1I+5JHbBNpwYqXyS2JXknCpy3u0tMmL3dc/06FfnOrj8X5u8O9ThMT5hinMC4okhvgQIn5mdSpMQwBo9j44CbPxwI89pe/TEYIdlgWWvYKQ2ivO2ecC8XFkDR2icPD33pgycV9+zASV226xhTo845u1pjm04N+CKxEvAia4JFYkcqCst5+0wz5qiMS/fWN7XLlr52hXguRbYlVZaQ1gzkNmMMY/AYtP303CP9u3syHuPG4PEfB0xbLKHUprxCSek1+XYA5Z6EZmXeB0+0406F7VG5jFT60rObFP+rC2vHb6W69b0m2lI1zl0UdvNR09rkZtPWWlpbhbtGZ2z16yKMI0TrUxsdrXRaaVSDNraohyQZFMstuU5nmHEy/oTdmAY//3yhk/GzTnQMPtcSIFXZ1vTVkgZQXPBENAYQNvtEgyfacefdBamq5wdOgrdKnYLNzef8/klPKs32KK5ZI7o9LtTzzbfzO7Qsk2Bm8nUfsPYbufpFMReV1c9iORykvkliutJkSYCME30OTS74WISeYHoS0sorp+eGjY19h4PUN0lsc7fKJfr3BxqDpdJjMMTGEkxtOoxVw+rNjq9/Ys0PEpLvuCPLVS3+vHevvLRVanXNzNT44qXhk6O6SbfHhcs6ETlV+MCkUWNrz+X6mqjiY0qR5vph9nSTbdCTEPqz1U0VZyvcdEWhFp0sE8fHFDh5muu720aoMbjpNYZ6EkKVx2ColyQUtp9OniZQmM3Xgm/dMUYLxh6RCooy3KO+W0GCFSubloStVOMyBReayytER5BtsRRfJPak5NrDanty+XbI4FC9hCqG99xMuwYIFTiyUSVf2FECwTJOSvYaNRK91KxAe+aQhWGbPAanXZTCBI4Yg6vNmnCBX5OEr7uBvekizKZ5K2jmic8mM59UccvO3oGTv7l5t9JFYp+36pYkFX5hc48JK4rjsyVbzdPobtDnm4vqFlWnQbNZIsmXbUKW1PMZE0sIRW2Fqor+XJixPapsS9meYLqCBe9smIn8dGkxwFjGp/vtiwucGGPcLcwKeZPH4AezmikSYgw2bgwOl7GAydJrRCPhxq/6N/sor6suFmA235KgNU98Pb/lqtWS2ztw4lEktnRssiKop0QCbmVxA1NxdRriwcCXA1lSzxXiItFSeT7trBNiq0QdVvsxFcEWNkxc6SLFyvjbv5UgCqxN5xNjGIPHpp11Zn8KNQazVa26Ygmpie29y8Rv27HvSUi6ZaditeSyBU7qUCR2N6FWJSfO3qMobI09nA37fCusSKzpSC5kSe0pSAaU7Qm0PleA51DIwnZoHEuR4rRTjegtlhCKnDxZyxgcirGhxmAyTqorllA0GNnE9t5lc/mWW7S3X0kow0YWFVocyJhxIlUtEtt77n/1xTgryJABVGt6XoZ8vlk5F7xI7NKie5OzZSNZUnsLsR/YkHGSCjF5MbEAozKB6jxUuUBm7xsXvN9/OEjKvrV3C508WcMYHIxvSdyTsZlYUE2h6gUp0/iC9yViTwdd3NU5SoUWB7IHTvoHVmqZdVI5FNdsBH2+hZK29GtJWG3JVxSWLKksDK0XgfoIVNPJRMekqg481FtLQjByR4qUbiliDAZCCFWzLdX0LlXloZnjIRd3dcx9cLAtFZE9cBJ6FXwSbKY0wZ5UiiFo0gRpa+KuBGMuBMs68d/Hnsr1NWRJZRXL2CwF1FLjF5Gs8hYJTF//wHUJwcrRwlvLFyXyBT7fkPHpPppJBN9jGVuBLZOrJUQh31hQTca+IqHYJNz2EIwvdDKFvkZU5DUue+BEVS3rpJbpksmaoCFCBht8EddYwohzF4W1Ba8UYocoXMu4pmP1GeMIFQA3PuU9lqr59V/LII0jwFYj20u7zgEoPT8Jzts84DmMIeOkTIInUwSdoxQqX+Ckilkn9bJGcc0G8UWZAxQX3BK1wxRgylsUlvMWQEMlEihLwo3fVZP8Sd+2JUwWR1cAVEVLgvFB056gXCIJk1E5lJiTUgH5AieqdrVOqlT9nFaujWMkXGpyiAJMoxSFlaSq28tiAYBxPJxdC3LNpOP32delMny2iaab2F/J+KxsPvqtAKiGkIVhxZJtUkZ/c/Nu0JICul2nAt118gdOKpV1Uqt9pqzaN1HIQKVuO3j4wrh7zduStygs6dUAmirdrjN+8DjdNnaqMm0bt7JNQqTru4vzq1/QVQOoijB1jVJGPheUlAm3Dd+6YFsF6srlD5yoOmWdmKr8HWSbNFKoi+4hm7RHLsD068V01TMPisJiWoz5mQBlMOMWPkKwtlOJgsVtn3GtxU3el/FZ9zqyJtVipOmMYQxuqtD1TaiRV2JJV0LRxYH7+2MpudECJ5XJOsnQXcJWogPFRbJNGswkAfcR+hezloxm3g1sOdIvaZ09gp6MzcYCHdtDTDB7AowrTWlek/HFsnFoWd75pZRWpyUy91ADBxckTJcwfR35nUxOT8ZmX5Kms5YxuLlaEoq1d5n/lFh/7m7QRIqZ/QG3eBVjtMCJqkTWSR2yYuw9Ouk0nN/qErQ18cnc6d66gpDY5VxfQzE/VF22lvZABvZioGsmDUi8WsotOx13+z/3uzfJEUl/z3Hp7Pu0oLkYgyvItCUUQ7ZJqaVZ8T0JxtY4cFKXDjtlD/7oVgeirQi6XcecGiHdO3Yn4ynJhe1l+YV4ATKxQM/z8Vc7a9nSHlOhr+Ohrplm9n/mxvAXpWx+aIns/8n9XtE/yPhc0MTXduvKxOiPZAwOwhrG4CZKt+kEaD8+sPnTmqDcTMjiveXPmB49cKI066TcXWl6e96j1IOyvcdWh6KZWKqgP3c9aJHYBwfbkkvUklxsl4DfSL6XcWlQrCoFJAtlYhlbJbZyoipWb2qNkm9kfLFsHPxMlhbLU0vj3b8U2ThkpH/wmoTaoiPJBzJ5Ycbgcy1pNj01TSxjYwyumJYE60joxgCKQpdfyAQEa0q/zXG8wEmaosOqclEorImh0BleWvE8a5HY9H750q6nW8yvJ1UV4gUo7b5R/gKSRdJCxibE/vpadWZDGSSiW0+sjM3Xq/pEzrrgyagFv0PRoEmU6Ez5mht/QnTT0IKwnYkH39MsCcbgcf31X+v4yxjcNGm2SVuCMSwcV4ENmEBhTOnHzfECJ2r19lrY+gsB2c0f9rxPUtb9k/Yrsk3wGJ/hFUquIrF6v1gyoyjsyEK9APXnmh04kTxFjJ8joTAhArt6866bUL4nYbTd7Wt3OzKV4IkWgtWfOwyaaLvk8Wldk0sTLgg7+MnWBhuDNxo8Bv9Xf9LZRYgx2DIGV0qcf0v381DfsRKikBkndW1H/JSSZkYYs3eKX1TWGicURMMT0gyvroRizLk9t3SMsoKQSPVrH01PT0Kw9hVpsiQJ8+IbWdKEEd7lWyvuAjFMINzqBDX6UjR48u6CTEy7JfLHOfE/1/jgTaAJk70ncw+meU3ZkxCaPAYnScgxOGD9BBQrakkwbPduJNOUwIkW7wp1EQDxqy0MGNhVwCBlYloZortx7hWEyF4XjObhbFdCsNERabLEhMk4mesTOEExrtw8H6jeiYrdc16DF+d93ZMis0+GWSZzBzXL5JjYma/T4E0I2kXQ/oWsdKezoLVxwI3BB8J08WjyGKwJSIzBzbK0qG9DdNJK2YQ5JUopUMaJ6AuOttrbe2tM2ZRuq46/cGDAwO58kDJgkdiNQ8vPv1PUknzWCPqNQbOKQjy+kWl2xslMiKr+tje1CRyaYePA8WDBEx3PI/Oh++g78Vt3XADlnV9KMJphogGTfzlk/PcX+dJnugSpYyGaOfNfZNO8NdXXj09viMz+FGIMNo0eg2eMcbf/KOOyss4YXBltCVcU9p5c+fsbApRQuMCJL165GWrfbii9Pe8RlSxwQvth7CVkkVgr5565OpmmfedcQUiobTKuKMB2LGvnG9tZp31St4vFMjZSxFEwf92UvJUumAQTu0FEgyefuNurvnjs2ddlpCyUYXbJmYXtDBORz9Pv7+tkhaFBk0T+wtd/mbbIhhqDX2lkZ51OR8ffMGOwScJk/6BYobNNaIxRNbGEYsvffnyfhKSFYpcWfuXO+mNSFVG07gf5clijqCb2pEViZx+dC7LSl+4nbLlbd5f/6maguYrC3vMZMRjPpr3jVitPyjiMmR9sw2riat1hd16PnyaemK4ARdOFkvbJ12T24ZfuvH1VwmnLzP62e6/BCA2233FBlJ6vvZq4N7psZp9o7rO56a4K96UTX2OM/FH/u43dmzfSW9SS0A2QyxQ0UZv+oIQZg6WBY3BPH8b9h2Xu0bhjsGUMroy2hMw2YR5ULdZfc4Vhyj9ehss42WJPl2bLzlx/7wcgSUryIOmKU0KUFXtLi8QGfGExF57KTtBVxpmctU1YJQgjVEHSjblAdQcqZq4f5u+mMCwmRcf0KzdfK6RWnNYfsfbaIAtF66B85m66RfNNSTNIjuy4vTr4vP53zVj5zn+dMR8FzTDZ/uXuiUn+XWmCJirNOGEMHtVc3902Qo3BZP2VHdkmMCELYQdsbVyQ8IETXT2Jkg+kDKq0N5ItOsjDJNclmF2LxMbuczlW3NxgN9tnT2oIwerYjLliWlU2Gv/v1nRRsqcwaVowVkQnDlaK4IMoblzQQIg1n6XdeKLvtm4z+7/2n/eBEl1FNrEUw6adeOzx0l33rN52v9bMnSB1Tpo4BtvIMAY3RLr9ryNkmzSXngM2Chggtnt3w52yAjJOJG21J/YrqYL+XBmCK2zRQT7+giJga+Ini8TamXOSi+lSxC0gk4wfhLJytNDuGmWU/r3jF4Y1EjAwCeSwerMjm/JasCLg5WN958DLN/9daReLTBJqDP6PcqZBY7DWxEmNXxiWMbgKYiHbpOniYAXCvaj0mb7FBE68KW/ZyVpgxm97mCa26GBEiYTL8NhZJFZTL43NuWLEORyWXZNxpXvsY2mWOEh9E7vJRTumQ8fhfTbwxWgp2MH1znFZvXVeSk3rnAQag02DxuA/zmnAKcQYbBmDS85v0TEdCcXYz1lArqKoJSHZzTBd5gpUXOBk2lt2KlBgxmOLDkb1cHYtaGvitEisaku+orBdzuHA+nN3wzy2UVuaJDFhUsRphYjpOeKe+x9JvaRZJnMPXqvE9osHs24Mnv02zHadBo3BiQk5Bv+toJzSRba2O73z1cF7HmvL1pUVmdiWhJQk30vJFZhxIumWHaut60pueimxbNGZvliqyreyDNiaWIvEntUWxDZvUdg1QVjhCgCfasx2Hf07I5Nzi9kuSBHHtKSruFqUNZZ6sOm27UGWSVW2c37q4qazj0KNwb9qxBjcbun4a9ztNzIuxuCy00LS4bboaF0nFt+qR1+vbPSGhKIB06tfNHmrzsDGgdNpeuak5ajMa+wUXszZooMAtDVxML5rwpv5uie45xnBv2KEKQAcy3YmUd21JMiEM+F8xuS947tTdIrpXjNxOwMmxytZ5NMkljE4h7k59yZpyfhjsPbL/p2gnHxwV4tKBywIq3WdUEXtoFtKTXJHKqD4wEm6cnpa8IQSVpNH9aTPr66EkvjVzhwMk8yiBCsAbC7UfsXT/32mLWPTizg6OWDC0uentgIOuYo7DdUPmAxpdx0xdwKMwcaPwXUuEuuLwhoTaAzuMQaX1BnNSA7ZRUe5uRCqx79m5cxO34upwA4VmUTgRKWDYHmzK+zE66GQloaAAlYiN5IzepysCQoUIlXcr2DHUm9xkP3WVPXHdMQyI5/JSKxuiV4ZZPYW08Z4j19g8LM7Mnf/zyofMHmMLxIbYgw+Wusisf+i2SY2dn/nr2Q81o3BHUH5pBlx2n2RLTpQcfDsSCtknDzGp2JNskWx6WW/6wS36mjNF9LSEJJepE6nTs8aL3oFW729FqY7WVTfrJM026QjY3OTP7adYdK2u1PEkptmSN06L1dunnfvX3aB7NODunJWigmi2O2bv57rDLJLXnbXNRdr15Jes07szKeBisTWcwzWbBPjs006Mja/9ZdtOmUzzIgzAYtWMxeqrmDXXDslN6oyn9gnE+W37HzpDvgRaSR3kWOoHI0CpEViJ5zmTS2IidDuZON32Wi7mz5eXamfI2SboJLSCUlntPNXszyeSHPXQKsGtJdbh+X+wZZbGjvq/v3KM1YGzW7fdJfPrKeLS8YF6O1d9/H/JnP9u7ULkjxLlOgxuRhgDNbHuH5j8B99tokbgyOyTeooHaOOSGS+DBeLZS5UcWGuuXay9poUKT2PW+73PukCgEclMfFWfRYNjJtEi9J+6/5xfa+MyckGTjSatHTCBU/0Cbjri3ZA9sccd55E+yNLXRMURovEzj46F7RQ03OVuRaEFoY2sdSFdidbWvjN+AFnc0HeXejKx7ekNvyea/96MiayTTBhyy03bo/RnUIDfZefcT2RBjWuD26pdxbnZSY57C4YD0ukrxNR/NTXWfuD+74/uvusu4vJnrv/ulxp+DXLZTdeLi24hQl7bszXFVO7Mfh/dOPvI802kX+QsZFtUjp+e05yxBeDDXVtaUXHGOZCVeUzJCXANddO7vrryt/fkCKkdXnOiY06W+dwouU5fAOZu+58POyCJofd6928G6Fbbow+5/5GF9gz7vX173a9Jpxwxomk2wrOLrwXIHq/B1Ou1ZDERVc/ZqBAQbRI7NLCjeBR4GdhdX7CNFvPjLnVUVed7bILXq+khQ8rTlcQrGj74VjGxfmMSbPy4qA7xShfvJI70Hf1ZunbPJaX1jqRtwOMwUf9GHzGjcFXKj4G6xadf/ELoOcC1G8h26RszroJ50/yqtiZL4MuyEXuWuYyc6FK2sqQDFyvqYjrr2GmlDGfudFl3g3hGhNwPyfpurG3+9T90xo+bnHBah2fo+5r1lwA5UK6FfXx83VyNU520hVUX8ysMS66FYYm/b2YCrsmk6Cp2xUp4lQbaYed8WtEGaOr20f8anf16UpYR8a3RrYJJkpXwTYO6uJRLLkN6ppgckJ22DHmfff2iJxrSaXpFh2jW3RMiC3Ca2SblEi6Sv+m354TNovZreLfCtHiG5M2DEQELwlQQLavBkE2Iw36fe2DJrrQcPD+EV9T51mZ8ldvDhYXbNvdjg2KgqfZVu/8cn7nXacTOFFazMzKN1KUJE/B1xyFZHNzkx0KIGESgrWv3YOR66RZToNbqRm3UKx2TTLRZ+lqd4Wded0ESR/2HdUSsk0wOekF6LmRsgM1zZ32ndNhfYed02MXijVu7DXR/+I+mtC22gL8D/+dezOjY/A/BBiD3TmdfCCYPl1QWVrULKJld55/FjxowlyomraCJlHgLTqi42HYWjf6u84kR3YE/S76hYasNbk0SO7nN761ul4bHpGZ/Z+57xsP7zK9wIkyyVuDNnbhRWXYquOLt50WYFISKWaf4OM/hInmNOhgHgW4wNQI/MahDwd7Vasn/b0/lCBbdOQSQUBMTJrpNXqmVJSc53ydEt1aY8w99xiM//pn5VU3Bn9UyTG4fVJk/z7j/oYRM6YeYxmDSyLd+qoLKp8E7Z6TImhSVY8HTWIJay18BlK0c1EtPe/0dVcLpmvwY7fbblZv6tuODIMnuuA4/AkyTX6wdKsnQdptjiEpoh3xoOI9LwiYpIeza8W2JrZdzukp0m2OYdq6t0VfFKp24Z7+vlrka1nGRjYgJkwL0Y2cKTVCXROEpYVirVwKlNnZFk17r9IYrEGTuYduYmIvuHP4nIxNrydushAzTTqp9BmccswF876W9LwMiaBJVRUaNNE5cuBF2HQs1a1EcbqldXDe9Q/p7U33d9x77Gajb/ztzOs/uK+99lQQxQdPtP6KG6c02L206L/fdAMnSidhZvMtCdfnaiDpZb5r+OwUK5vmLSaYmDgtEpu2Ji6GmVAdFTxHgC07KX2BqU7wZBg0CbLHlmxATJiev/0XBhd1ebnzde4BE8wy2N6yE2IM7khVgidbQRM//jIGZ3HmhJRWui1nmGXyYUEZBQ0PmuzSuawqzr6ub4vKNJGC5sg6PukWWPvY2KIBkP6Ba9Lf/2dbC8u6RfDKzRfTrZN+ztT2f+tTGSh+vP9g8DW/0cyV6QdOlNZmqFdP79NUsK+ApRK/qI0jkoKKb/l2gax4Ttt2sDmEagRP0hWxjgQrTOZeVAlsY1LS15r2SJlSw7omWfdoo1hpN5x7AcfgjpQ9eKI1TeYeBQyaDCY2dR+DTQETznF03E2LEmvx1zRg0nHB3O/CZHA+RhfCyTRJgtaImYztDKS2L64qhZzDF4PPkdPxsy1ptknvqSKwa9d1DNOF5fR11Ej6Pt2So4sSPfGBIvN4Jp0vDB51/X/XGoEPDh0tR+BE+RR0mc6KStitOjpYrAmqIJY6+htfGborwZmuoBzSF4VQ4+UgeLJgShdM1N9Hf6+0pkmoau4Xn1lZHSjGEbfSNVrdAOtWuwjylcv2xXSoMbgjPnjixroyZSloy2Edg/fPDGuaBAqaNGIM1loL7VJ0T+pIOiH+V30tNRowWR5sy7kQuADsINDrFo/ZnqOLmG9UaoF2O6D2oXvduRb83EgVE1Az/n//afCvnLUedUhywZbUK7v/Z/899We8UZ7AidKDGa5NcS/zPaNggRMirCiJAvqiUxS2XMKOl3pBrCmZRwYpmtN31rdE1PZ3XwZcEWOMxmT5lbCRO0Bdk49vhXqOIyRdqbRuPPE1T4LoiB/rSjIGv/uXbqJ9UD9yY7D9MkxNk61MhHJeS/z1X0tgv5Jpdk9qt9LAlwZMrAuYWHNB+oe+GxR/jSU4e08SOV7pxWPdkhaMaYnWjkmLgpeXvkYNuykVk4E0YNcKu/5K/C3WHyI26Uou+qebOP3Y/rjLf9Yi1t8O/tXaJ2WjbYqXFg4PWgFVCRfkKA9dzTnz+nrAiPEaq54lFHS81Bd5o8GTiy5o8anfy+9XVifMr9AYfSU7KXbmk3DnsL5o3+oIMCln/QpeR0ara9KT2QfvVWLFUp+udkeZutm+yKWu1N6Vm9aNv+fFT45HaC/9lK0xuOPOnd9J4g7qlQmPwTrZnpsTLUIgYcdg3Z7zqRuDy7sA81/9Sd/O+0lYGEcG3ZPeHmwJKFbH3X5oiWzo4xeZtHJk0nLv33cBk3n/OJrA5SRT1mc5zz14qwZbCgMHuqJP3NF5zY3jP0zleupZ/OtK5B42P3i33T/ed+N4HLzc6BZ//fW2FMX4t/PiO3WZHzN9jQa0tGB732jmVSzpH3/+6Tv6AaGXHi85XL7AidKDe2bxZ+5AvCmjmuvnefL2ZCxckFdSFB3O/QK5uVmdPYtpwaNA2xuSatQ28S31zOHBIDqmihT20vFySbMzggSb4zRFU95wH7tJ22JPNh9ZufqFFG4rYGJboi/i1k0igl3kFfyiHZqRV8a6ftGLAT2eZbpQG5UxPxv7Wm5647YuX444BpuumwCNfg00WeuDm+r5j5cW1/04PAyoWL2gtfU4J3davaXBk7fTa+4QwRM/Bq+5Y3fS3SY3Bm8FTAoZg4dBk3KPwen14LyE1RZ9TiwtfOAXI0IFwjrutt4S+dN+d6myP91E8K/uMB94oGOdjjtH3Sfd63iUjn3FBEyUdQG+92qTGTf3MGTKiYrl4SEXDE3ekrOv35PLfydTsRWAN4OrY/8cd+eIaCZZwa+PdsU998/LpGxuZpn/H3HBxPRJ4Z8bg2LVuy0QR35zzrofH0xZAydq48BpmX0Yu1/yVRnFxKKeFbsgx7ZkhBfImf0nXZTyrju/pPT6B1Zk9tG58VeLtK1XZfYj65gR6MLHzvuIdBUe67DBEw0+uYsHvcmau/1Wzi7e9a8udjPsxEeP74OD6UXf8GJdopYEVbExWi9wEn8ej874C6GWu3WlytKuD+M/n82+lnt7VyYpDeKOVtck1fY1EqrAX37uOGE3Dg0/0mOu12Ka5nzPv19avDMIMlg/U61DICV88OTZY3CyKUEn35qh0C90DK5G0MRv0fBdg96X8Dqi47GR0+486aWfyhXJ2H5y+S9z//yjezd7X8f52B1fDZLMuyN91D334sfvWyAj38hP2gzj1mTH1qJst7MNy7+GRWk279Lip/5xsYU+OOn54n/O8J9JLOk1gdbweGNrYbDYc0S/+QcTSSyw/k/WLPufyczM3nMe416bbPJbnxHki327IPXlZ8xzEh9RPTxsRBxkXbYw7ZOHXfDky5GCJ6s3s/9tvv2Q9nXOi6BJZaUDpD7mseTTcy9Wr8qliqQjnl383A1d40XQTdKuRDedNPUwLXQagnWD8Nz9l91jHaLt5GScWfzIjZfLEpq+yIi55AInd8REPb+KrInAP/0kuVZCd6566MLHAXfh1z94Ks1w8fuBA6vYGK2BpP7cscFF1rguulf8TmUnpunzuS1a52Nstuvm6MfcqqhMzNKJlvv9vxLsQouXGxdA0b3o0Z30c4mtfBDljK8ToGNwiHogj0vH4BU3Bv/nkcdgLfb6x7nhN/ShEjnQd2PwXFFjcHWCJkFbLT+PL9zvAokm7zXkS/6tXwgzsSTuZqbUtUULwBoXzKtTeYJ0TtCRwh9/7c5i3aTdfCvF2T5XfNDGxDJp/hxJ3prYomtao+U7Sf/207vW2dm+T+x+wa/cY/AX7uPPfHZf+vu+tmvGybu+3t6bEpnP3Lj7TbkDJ2qU4IlOeLQ/cx5LiznDbgRNKktbbRk7+guktSvumuP8RPasjivIxXtypPT1TdIJ+RHfPi3kxYSx193g+pYLoNhKZJ6opcWOpKtmxYzvPlJvXQBF7riL9p7M7L/79L5Ys73asVX/YOeqh3nFff5okGyC3Q1WOip0Yafn8Gz/xUG3g1iCSI6LmflqaunBoxo+n9MAUiwhaDp5ZD6a2LidPg+Lvgivg574zCjdDuqCKMYNHFU7X3fanoAxBpe5EKzqyKAmyAt6gCYQNKm8tJZJnVpJ+6zXF8abE2Cn6ZwjaffFa2nG3zO2Bj0ZOBF7XB6bN7jPrd46/tTXPR4Qv1b+wInKHzzpuYnOkcwTnXRlK0fghKBJqe1WTG9zU7fZ6EdaXfzDAFWjL/qb7ll9MtWtbKtmSwtfjbGSpFWwy3muP7ZnU1OMfcpdLOGtyez99+ThCz/ITw9lIvU+xrV0ou1eDPQ8zxdAHplv5dbb/rfpDVY7DruHx70frJJN5FdxKweRe9G+fOu6lI2uXDz5UqMppmmavFtBjD4LOpHRRYTIBXmt/dT/a7eiTtMar9IJ5hPsjv3XhTyfLw5ug2PxRGPBkEGVpYW1YNs2msONG6bjztffVTqAkr42NX0MftuNwTnbghZgq3bLDsNAko67BzYOS//QhUBdg+pqOBn+oJJtpJ+cE2wHEo3MPnCP/wvvF9dJpkH0eW/dOTKNejdpVshJd73zufjdBMnLW9c2W5l20XbgxNpv3MP/2uACbBg0s36xSQP5wwLnfvw4tJ3NYpJ2eWuc7LR2fd0FT45nDp7oC0Xaizpriv0RyYygSan5iKJfUXmSZiFowctTg+rJ47rgv5f4VoSactfb8Tv03AV4zgymAiVyw80PWjKKzUehWi2Oz0eUd8Z6/eOsN/c4REVOUNqycajlfrROuHSP/u77ecv0mK/eXnMXC920Q4PJMb6NysTy5CR3aw7s/7tMhO651iJsl0u7Gqbb5p6cSP1M0j3HreAF7bXWiRb7TccrDZ58v8u9AmyFGUlbng6M6Dj9Svg6N1uG4/bwWLz0xH/vCKYpLYyaPg4dN9b+Tmwy+c4y49IL9jMn1sRs3nFPwn9o0BhsB2PwX5VmDE6DJsee+Oxhf7Nm3gVNfjW1LS/lV+2AybbdH399rem/cIrHf2w6wqzJQbfAOK2uShsHxGfgzf60PpjjtWRY4y3dnug+p8ExE6df4N93XOBsRX782SWZe/irdJzWBZvkA/e9dOFtPR0/klZaE8bec+Pa76qRcTKkmSdzGx9lLIC45m57twDTibaRr7Ot8k24MjDyy73lqhAaOJnAhVJGPmPr0b38Lw7uBXP11jEpi7Kv4OapqzRJRW/dKYdqbM0ZL/urGNM6b+t+LN5dWPZbgzAOXTn8C1+DrgpbY3czia075VDOrTlpen64BsPNUJeASaoc84I6Ktd58lidGl9H65h/3XjHf35eZuQ3T3+RC5JsRr30v9sPtz6trbXXD68Pah8Na6f48a0aGSdDmnmiwZAzvs3dXmlVbdEVJZ00POsFNx1QP8mYGn2RlsOoJH3enFnUFdZ8qajGr/yh6jSYsORWP2302aDjUJ0u3uu35xr1ENm79Z4nT4SuAOpFa0fOLHwgV25VbwKk159nTnTcqfCpG4P/F8ZglJT1Wzv9Snvyu1oETFAUm9b/s78t1Xnix9pFDdz+J1+/SQMoS4sXBzEAzRQ//Zyv1v++Xd/k8YLRsfuTv3MxAB8UjqSKrtzUrI8sUe20w8Zue6mHQZM0wPI8wyh6R4CqmvEZWDnYXiU66SAbvaC9cvM1d0F02qcbilRvAvIUq1lUb/liXlywo2z8BaUWoEMAHXf7UM6667ZzLakc3Wq0evue79pQnzHYDsbgNxmDK82mHUbseTl4/2U31zlN0AS7sL6Gic6H5+7/mVy+9VY5z5PEBXWSvxrUfEprl+h8/8yJbF/ecTd9jZl7tN1ly8p/cd/vL4Z3qVbGyU5+FdUHRPZKf0yrJKdRJ+srKG8c0iZuewdN0pZb7+3a1giokr+5eVeWFrrZU+NNV1A/WvtEtzFq8Vgx7w/2eVZp9XO4KvZbMgBReptGO/l8ObkCoTVmjGYZ6yriX7gL2x984b6qSYsVrvkMQLHtio/Bl4YrsKiUQcDOb2X4z26iuUbQC88weK5rcXl7wwWAu1J2GqR+Z1ED02/JjP3MneMd0YwRIx/4+pObj+yuDR6GRaT/1Rjfot262IF20dGgSeJec65uP0eqGzhRaQp6L0Plcg2evORWK06Lva91HrTF4R7bc1wkPTFvydWbdwWoBXsxe+Ak4YKoznYGUGz0mwqkj1vfgjNxL+AHH3w6tQJkQB56/bB04r1BhyD27YzLyqvy8NA/yIH71Q2eqCcDKNUag9fcGPw7xuDKsIO36TYca+/y+OEZngyqdSsRLHnSVb89UufumiXyD2ltxKglabHY38qZ1++KSdLRNu1qOKiClLTcv49K/9A5F1P4ma9/qoWurz4eWKx24ETpBOCdxbuDyNLzCnK2RYMlG4c0cBLLc2kapT0uV2/1BKgLTas78/r63kVikxusQDTEMIDyzqIWxtIaOEdLtAKarnZE7kVc99JeJn0YFfR4h6tYCKCMZ2fwJHvnxHIaBlDeWVyTtDghYzBGZXd8pNd5OnH81v1D399xE+CeAKkd2wRtzwULXCDBfu+zSub6d2sRVEs7sd1zr70v78juOyUz+9v++ZHWNFkf3ObTMTfSuZFuXVt3AeLz8vGtXbuKVj9wotJVHS3q8vzWm3sXgdUD9qnMPThPNLayyrBvuLx7l43VgeDCHvdakXKyUuZjW2VpZt3b/uN3F05K5Ft3H91u3Taxi3i7fdFnfycH+9drNhZzDm/rDWo91F8aiH7ZXae03FNJn1uvPHEPIzaaH6Mt5qBAp+nJ5Lgxwb6U/nSTLkgZOfz4fy+ID54c/ESWFt+sbLedna5uFS98242/7p0tyxj8qRuDb9RgDK7RmOtrN+hzTh+Tnjsr9L2b9CbfS2LWfVFqgiRPauhr7q7nyv/hzpWebEZ35YX7vdrPdYfB6Xe1K+fWuPqKOyb6Gpy+XiV6XHzCxJ0sW5Lqt/JxZvGjDB13dpdGmMo6aUQW/sJ0yjaj9dJu8UpbE3/37K1tbvBYvfWylNGvF+clSUadWBSvjgXV9PnkX2B8hfJWwInRLqtjg9TQuqx4AHtZOiEy239RNg5pG8S25FeedpBp0dbDsjGnC1SxCwSlE/90zCjqWrPjt5WmF8f1s+QLGg7H4JZsH8+h0GOwmzgkdxiDAWB39UwZPbP4zWC/aA7u4mP11jEB6u7swrK7ENML9cef/1oMOZHj1PXBMy23DkvfTYz0Qt7o5Mi8NFglj9M7mPjpL3py1cN+7861nrt971fH2BaGJkonxdpuV2uuxZKXjtfWBUzKvNiT/o3tdI+5D76GvuZ0k//keGO6gOwMTjEGA8DE1TNwsrTwVfYimFvWZPXm2wI0Qbod4zf+ebKdlnuaCygAKNjZ191wu3lM7Mxno23Psfdks0LF67cDKO/vUYtuFPcksS+7AJIAAFCketQ4edr3kpv9UYCm+PjWdff2ugAAJkeDJj6IEF1zQRPJr4LF63Urzak31txS3Q2ZffSJe39SwondTbdns80aAFCoSDBg2M8JAACK8c6ivm2LtddkJIOgSRUzAz+9IbJ24wcXLHrLFx0Nx4gx7w+yWgAAKExNAycjVJZPLIETAAAQXjqxf7WRQZOdVm9pms3baVHbQNKCqS0BAKBA9QycjBIEMUkz2iICAIBJOyIz8pmMysh7talB9eCAlf6Bt8SaHyQM4+unpMVTAQAoRD0DJ9EI226MocYJAAAIa0m36IzYPSd1US7fqk9NKt22c+DhD2KT0xKKNdpJsbzt6gEAlVfTrTpJT/La3GSrDgAACCfdotORkYMm9p6s3uxI3WgXnEhuBNuyYwZtegEAKEhNM06i/EGQmRkCJwAAIKTY3S7IqIy9KHWViHW3SxJKYgicAAAKU9MaJ0n+IEhd9g4DAIDp89kmpiMjs/fk8u2QHWjKZeOAyMMDd8QG6WpoJDKvCAAABaln4CRvEMQK2SYAACCk2M3nT8mo6pxtorTWydzDdTHJDQnCviQAABSkpjVORPKtYNieAAAAhDButoku6Mz2AwUUSizdrnNXgjCxAABQkPoGTkyOlsSGjBMAABBMPF62SXJHVrr1vzbZZ/R2RwAAKLn6Bk5yZZGYHPcFAAB4nqgt4zDyuTTBZjJaXToAACasxoET+T77Xe2PAgAAMK60BfHo2Sbqp81vpQmu3HZvop4AAFBy1DhRifQEAABgfPHgNrqrXwSq+wEAAEKoceAkx1adyJAmCgAAAohaMp6eYAQU+gcAFKe+gZNcwZCkJwAAAOOyMi9jaVAAoNPR4xUI264BAMWpcY2THMGQzU0yTgAAwPiMfUWQTe+uyMb+wxIEhf4BAMXZJ/XVy3zPFx5lvy8AAMAzmViQzVxf384HWMezYpOuAABQkPpmnPTnsmeRrHTJOAEAACHEMg4rgTIwKiAxegvz9yZJjm6KAADkU9/Aydr19Uyddaylcj0AACgHY5oTOInEuNsbMi4r63QiAgAUqcY1TkT3Ge8dODFCtgkAACiLWJZOSO11WqIXYe52VMZlkjsCAECB6h04yVSZnirsAAAgEGtCLMjEUnf/MufeJLGM/7daF3/5XAAAKFDNAyeSYb8rVdgBAEAgWbJd9xS1pO6MMe7NBQlhtv+3AgBAgeodOMmy6pPk6L4DAADwPDbIFuCjstyS2vofFyTYNh2RNYr8AwCKVvPASYatOia5JwAAACEY+62My8rJ2nbX0domD13UxMo5CbFNR5IPBACAgtV9q05vz3sYQ40TAAAQRiLjd3cxLmjSPxQiG6N8tLaJsbH7G8/J+NZk9XZPAAAoWL0DJ/sy1S/Jch8AAIC97TNdCcHYZamj7domsYyHbBMAwMQYqbOlE7GLDX333Pus3qx71g0AAJikM6//4AIf42+1MfZNmX1wXVa6Unl//dcif/Ynd91pz7ngyUcyHhc00WyTm6cFAIAJ2Cd1lqZvEhgBAAATZD91b8bfimJdgMHKHffRD1JlGjQ5/CfdxvSqzIwdNHG0hp0l2wQAMDEEFQAAAEIyyXUJI5aHBz+RpUWprGHQRFzQJDL/IOOzYuQ8tU0AAJM0IwAAAAjn93/oyS9+3nIRlFjGZv6NvpFf/HlXfv/PUinadvjAI+2g85oLmnwZYPuSbtG5KKu3rggAABNE4AQAACC0X/z8exfvaEsYLUmDJ3fkv/2/ifxjT0qt426vtEQ2DqQ1TSLzmfvt52Q81v3vuly5+WsBAGDCCJwAAACElmadHHXxjiMSRsvdXpKZR/9Z5v+fffmnkmafvPuXIg9edleYmy/KTwf+vy5gckFCMPKNzN3/Kxc06gsAABNW7646AAAA06Ld/ezM12LsixJOT6ycd1dwN0QSK6u3pRTaLZE5TSoxxv1uJ8WaD2X8lsMD9juZe/DvZKW7LgAATAEZJwAAAEX4/R/W5f/18w0XTDgh4Rx2gYn/XjT7ROz/Jr/4f/wor8YiX38nU6EBk//wb0T27dfFuGPub/3E3f4//vcMQTNNxL4u////9Y8CAMCUkHECAABQpDOLH7krrmUpxppsPvqtC1zcdZd1VuymFJ6FsjO7xBrtIuQ+Yd53t5aEY93/uzL34C0yTQAA00bgBAAAoGhLC1+6y65jUhQjGji55AInd8REPd9/xlgrP/0kcvULGVmnJfIvLkgSuUvGxP+cncGSk2KjXwXolvMkDZpcktVb5wUAgBIgcAIAAFC09snDMvvwS3fl9aoUTYMo1t2M/VsXOOnJzP67/orP+miK3sNu3zkZvI8e/w5mcF8fLEliMWbeffyS+9QbLlgyX0CwJGXlB/d7XpSPb10SAABKgsAJAADAJKTBk0/c1debMmk+mGLX3Qc996/vt/9DMvg4emnHvV9KAyMmlsTdigqSPM763/EnOS1Xb94VAABKhMAJAADAJC0tdtzb94XrsCFNb7koqzcvCgAAJURXHQAAgEn6/T935d///Eex0f/bhU4OSnOlBWDFHpfVWzcEAICSYqUDAABgGpZOxO5S7Eu/JaZZ12TDgMkHsnq7KwAAlByBEwAAgGlaOtEetPM9IvVGwAQAUEkETgAAAKbNZ59EbRdU+FXNMlAGHXwImAAAqovACQAAQFloACUxJyWS31Q8gJJml1i5Lgcf/E5WuusCAEBFETgBAAAoI93CY6P/5K7WTg4+U+brth2ZJeaOSPKprN7uCQAANUDgBAAAoMyWW4elP3fSB1FEWu7q7fDgv0zzOm4YKOm5X6PrAiV3ZK5/g8wSAEAdETgBAACokncW5yWyR91lnLtJ7K7m5p+4R8jrO7vjo3Ux9q776Fv3D31/h6wSAEATEDgBAACoOg2mGKtBlJfcLRZr3Ht72L0/7N97Jt71a9OAyDBTpOe+xv1b9N//h0hyTzajb+WF+z2ySQAAAAAAAAAAAAAAAAAAAAAAAAAAAAAAAAAAAAAAAAAAAAAAAAAAAAAAAAAAAAAAAAAAAAAAAAAAAAAAAAAAAAAAAOrMCABgMpZOZLvfXF9kpSsAAAAApm+fAACKlwZNjmS6r5Uf3Nt1AQAAADB1BE4AYDJikei7TPfcOPS2e7smAAAAAKYuEgAAAAAAAOyKwAkAAAAAAMAzEDgBAAAAAAB4BmqcAGWQpdvK6m0BAAAAAEwWgRNg2pYW3Ztk724r7y7ck49vCQAAAABgcgicANPXFomu7X03e969WREAAAAAwMRQ4wSYJr9Fx57KdF9jTmXa0gMAAAAACIbACTBdsYuItDLd08i8e5vtvgAAAACAIAicANPis0dMR3IxF8g6AQAAAIDJIXACTE/sAiHZtuls8dkpLQEAAAAATASBE2Bq8mabDEWnZLklAAAAAIDiETgBpsG3IDZHZTRtsXJYAAAAAACFI3ACTEdb/FadEW0cWibrBAAAAACKR+AEmDSfbSIXZBxWzpF1AgAAAADF2ycAJq0t42SbKOOCJpp1ItKRJnh3wYV5zd73S6zIx7cEAAAAAEIhcAJM0q8XdXJ/SiMfAZySpRMdWb0tDXDS3eYz3G/d3VYEAAAAAAIhcAJM1vygpXAIsaStibtSd5EPnOzdujkyPSFwAgAAACAgapwAk7J0QrNNliUoc8F/XwAAAABAIQicAJMTu0DH3lkTufjslZYAAAAAAApB4ASYhLbuNDEdKYIx52hNDAAAAADFIHACTMZhF+E4KkWw5iStiQEAAACgGAROgEmYe6gpJ3GOr7goeWhrYrJOAAAAACA4AidA0ZYW9e2F7F9gu7J6s+PfZ/4SOUfWCQAAAACER+AEKF5b8mSbGLuWfmA/zf41LmiiWScAAAAAgKAInABF+rVmm9gcnXTsPbl8Ow2Y9OeuizXr2b9UztGaGAAAAADCInACFGt+0DI4G2O3a5usXV93/76U/Wv9Vp2WAAAAAACCIXACFEWzPxKbY/uM7YmVO499qn9gJVfWiZgLZJ0AAAAAQDgEToDixC6QkWObjunK6u3eY5/SrJM8tU7S7JaWAAAAAACCIHACFKGt3YdNR3JJdm9BbJLrkgtZJwAAAAAQCoEToBiHXQDjaI77rz2VbTK0erubqzVxmnUSCwAAAABgbAROgCLMPdSUkzj7FyR7bMexFyWXqC3LLQEAAAAAjIfACRDakrYglgvZv8B206yS58ibdaKtia3vsgMAAAAAGAOBEyC8tuTJNjF2LdP9ErkhWWlr4o1DOTr6AAAAAAB2s08AhPPrRW1BfEojF9nYe3L5drauOQ9n12T20QUXaMmWSaJZJ2df78jlvxOgNJ4sXDzXF1npCkakW/L6c49/bvW2AAAAIBwCJ0BY84PirNmYHLVLtDXx0uIlyboNyPitOtoOOUc7YyAAncxvHNTgnfExRKu3SM9390ESP3ZfK3per6f3s+nnjPusfkwAYNs7vxSJ3Eu2MWb7WLkP7H19nj8eTF1a7Il1/y3yB979Xw98QpAKAABgRAROgFB0JT2xyzmyTdzkRu5IHv0DKzL76Fz2rJOk7X6vT6c+AU3rvmQ9MLuw2e+6tDjGz3mGxM1SP74leA6fSWLSY28f6PnZcjftLPWS+ICiDCb4T+wQ3Tg0/Oiuu62727fudsf/WwMAXmLHPoeznhfGPdaXS/JYD4+pBp2Sh3oM9Xi+ItvHM95x/J6kx7I3uKXH1OoxXXBBKhdRsZsEpgAAADIicAKEE7tJzqnsdzddWb3Vkzw06+TMomaQnMv2BZr9Yt1NujJdbUknfSPK2NpZC+Ia+UTC04nniuBxfpvIIc1ocEGJTfcPecPfNg7FW/cZxrzMHsEv67O19KOW32aWftyT9Nz9nQt8dMW6oIYZORMl63mhtYSuy7TsfkxPycz+7WCpP5R7xIE0uJoeUw2ynPQBKx9k8UWmdQy5kwamAgSlAAAAao7ACRBCujLckVySnC2GB0ziJnVRxsCJ/4IL7vfrTndypMGbPEGlEaXbk9oSWuQn7wROhrYyIXxmybn0FhXRxSkW/3hG7uaDKLpV7caIE/52pntZ871MK3ByZkGzdV6UJ4+pyZFxtScXTLX6fPSZP2vu9gEBFAAAgOejqw4QRpw5KyK15iYpPRlF3tbEac2VWIBxaTbEmdc11eGIu12T/gvfidbcybp1bDyxi9V85F629Gd+4n+HMwvmqWKzVaR/w9KCHtflCR/T9mPH8+zrAgAAgKcROAGCiFqSKziRjFmwNUdRWc8s+0kvMCqfDSGaDfFhOtk2pyY0ud9NezDhd79LxSf86e+ugagvfWBoOse07Y7nl/79mYXwNYIAAAAqjsAJMK608Gm2TjfK2m/SrJEx5M06sW6Sa2Vak1xU2ZPZEEYLIJeEcQHB4YRfi79WLTiYjh1tsTNf5+rGVYzYjU3XRINRZyt4LAEAAApE4AQYX1vyZJtE9pKEkPgiltlo7Y+NQ2SdIJ90G8y0syH2Mpzwf+IzYqqydUczeEQ6/ncv03H1wSj52h9LxgsAAACPwAkwDj9JszmKntp7cvn2mNt0Bh7Orok165nvr51KyDpBVunE/lhJsiGyaLvgoPtdXaDnnV9KqaXBHQ1QZM9UmyTtxvPw0JeDrVkAAACNR+AEGE8r16TS5K1N8hzamtjkyF7RrJOHL7whwF7SLSTpNphyZpk8Syw20uDJq3K21JknR9JCt2Ozz7mN+53nZePgZ9Q8AQAAIHACjC5tydrOfH8r6+52R0LqH1jJl3WStGvRhQTFSYMmnUATe7VjMm/vudtXoh15Hrvp59zNyg8y7sRfA4Qz+zV4Us5z3R9fX5dlVMPj6J779rwk9i3ZlNdEkpcH74/7z+l/T4/1GMfTB4U/ZMwAAABNt08AjCr2nUWyMnJ95BbEz6JZJ2cWdevPuWxfoBMh627SlckadxU8z6r3+Kvtk/me5TMMmoy/hcT6QKGxd937G5KYO/LC/Z6sdPcO8i23Dkt/bt495G+4oOBR98jPD/5LvswHG7mATPK9vPPLr+TqF1IKaQBCj20seWlQychv3d+UtZX59cHPjCXNjHvf3fTjfMfR1zyxf+sel6/c4ycAAABNROAEGEWabdKRXJJw23R2MombIEUZAyf+Cy64yWR3opPJyFySZIwWzCbS+iwn97yfn6wnb0pom1H2rJ6qChM0sb7bk07w5x50MwVKnpR+TVeGwT2d+FsXRDEaHDSx5Jn42+gz9+Add5P+b6QvZRBLWkw6Dw3afSAH76+MdDzTIMuav51dWJYket8FtHLWLom08O6r7oP6Pw8AAAB2QeAEGE3s5m9Hc9x/LXi2yZC2Jl5a6GavteLvp6v4d2VS/ubmeD9raaGdab5s3MRu3FbPTXR2QafnHRk9aJIGTMR+EPz4p8+bS/62dKI9yJw4kulr0207n4l99JqUQtSSXNkm9p5smrfk6s0wz9XLt1bcMXSBVvNl5mOYigdduTpknQAAgCaixgkwkqgluSZAY2RbZJKz6OzMvjatRuGl20c0m2fEoInW20iOy+qt44UHrVZvuwDkrZfdRxfFmh8yflXsi5xOmx5nKzkyw3wdk+PBgiZDGojqz77mfpdvcn0dXbkAAECDETgB8kq3NGSfZFr7zQQmlF03qck+wbLmFJMgDBxx58MohWCtL0CqgYxJZ/ms3uyI2XwtDS5kUYp2yvGOei17M/JeYVlqWhtp48DxXMETzd7RrBMAAIAGInAC5NeWPNkmUY6WweOwNntWy3ASRNZJs213eInzfFna/cZnmZyXadGgwjD7pAoSkz1oolv7Lt+6LkUaBk8yB59EH/c36LADAACaiMAJkIefNNjsnXR0UnL5dsHbdAYezq7la01M6n2jpRPgjuTu8OLOaZO8VppaMpp9UoXgicmT9ZJMZszQ4InY05nvn2bMtAQAAKBhCJwA+bRypf0bO7kJnU6CTI7sFs06eXCwLWiqWHLXNRnU3ShqC8moqhA8ieSlTPezEy5wnG7z+zzz/fNlzgAAANQCgRMgq7QFcTvz/XUCZOWOTFL/wEqurJOI1PtG8lt08rbTLmnQZKjswRNrs2V3GTu5bldbPzN5L/N9I9sSAACAhiFwAmQXuxlG9m06Rq5PfJLps06SG9m/wGfPtARN0851Lnv2dGmDJkMaPLGyIsjHP67aTjoDG+Vpww4AAFAL+wTA3tJsk47kkkxp9duu5ZsUmwvu7+u6yZOgAdIMo7ythy+WpqbJXjYOXJTZh0dd4PJVQXaJXJLI2j3vZwQAAKBxCJwA2cRuxpBnpXVtaqvzOsFdWuhmr8Wi9/Pp911BE7QkV0FYe09Wb3WkKjTraunEW2JnvhFjy1P82BjdupfljrHvdrXSlYn62HfxKbaTDwAAQEWxVQfIJGpJrsnmhLpiPFPeorTRKVoTN0CaOZW3IOxxqRoNWpoJtQHPKpHvM94zptsVAABAuRA4AfbiC2nm2dqgK/RT3taQdsrIXmTSykkma40Q5+oKNc3MqXFpoWSxPSkLm+N3odsVAABAqRA4AfbWljzZJpNsQfw81mbPetHWxBuHlsk6qbscdXq0K9TU6vQEoFt2pCTPRRXl6Jaj3a7eXRAAAACUA4ET4Hn81gabo9CqvSeXb095m87Aw9m1XK2JrZwj66TG0m062ev0TKMrVGirt/M9B4rUn7ub/XfxWUHn5Z1fCgAAAKaPwAnwfK1cWxvKkm2ifGviHHUeNOuELQJ11pJ8dXqqm22yU1lqnaStwnNknZgP3dtX5ezrAgAAgOkicAI8S7pC387zJWLljpSJ1nnIs+IemXODdrWoGxudzHHnbuWzTYZ8rZOyyBlYjfZ/KbpV8MyC4XkJAAAwPQROgGeLXeAkxzadEhbSTFe5b+T4iljSzATUSfukZl68kvn+xq5JXaS1TrpSBr5os/kh8/01C8zaa+4jzT454rNPCKAAAABMHIETYDdptklHcinr1oa8k2BzgclZ7RzOteVstp8n2FZ+iZTn74mSDyQvY5bdF6bZJxpAWVokAwUAAGCCCJwAu4vFRm/kuH9527b61sh5Vtz9BLslqI+5/nz2O7tzZaVbjoKqoUT2upTF5VsrYuUbyS/22Sd25mv38SfudiwNoLgbmSgAAACF2icAdhG1xNgcHWaST8s9cdHaCjkyDiQ6JcstnUALaiAx8znC5N9K3WhQc2mxJ7mK4xYokdMyIxoAMZJXOi613XPU3aTnbl13u+NvZ93faP19rMw+EJ6/AAAAYRA4AZ60tKhvL0g+Rwa3umi7Cdh5975emQdNZUyc+b42+UrqyMhdd07HUgZXb96VswvviTUfyXhi8c9V2x4kkN4d3P7W/a1dF0hZd//N/dO9mesTSAEAABgRgRPgaW3JvTIdfSJ1s3FoWZZbHSZbNeALw2ZMbkiS76WOrM+kydFZqGC6ZWdpUbNH8gZpn82KbsmadwGZtnv+psGiNBvlhvtvd2VpYV1PBk15kdXbAgAAgGyocQLspNttrJwTpMfBSo7tSigta7I/jle/uCv11JOyWb3ZcW+LKyrtAynmnC8su3Hov7jPaIHZjuysj0JtFAAAgD0ROAEe13KrtDkKadaYtkLVrBPUgIkz3rEntZX0pIy2gydWCufrHF0YdOj5TnYWmdUCswAAANgVgRNgKG1B3BbsdIoV6Yprn5TshY5tT+qrJ2XlgyfJcXf878nkxJIWmR0GUdoEUAAAAHZH4ATYFrsZ5inBTrHQmrjq2G5VBWnb8ONiZUUmkn3ymLTV8VYAZYEtPAAAADsQOAFUmm3SEezCXGASVWFzfQInVaFtk6/cPC+SvOxiJ2syvQCKZqEcIfsEAAAgReAESLkJQ/SGYBe+LkJLAEyGBlBWb729HUDxW3gmGERxz3kbfS3p9h0BAABoOgIngBe1steBaCJzQZZbggrSSTiqaRhAWb3lAijJaRc6+dzdfpBJBFG0OHSafdIheAIAAJqOwAmQTgouCJ5DV6CplVF/Jpa6iqJqn7+rt9fkys233O3P0kKy2onHfiVpEKXIQIqOjQRPAABAoxE4AXxnCV8ENStbo1t22pqYrJNqsmY9833r+hgnSX0Cf1pIVjvxrN46LnP3B4EUu+Ke0d/IKM/tvV0QHzyh1hEAAGimfQI0mU4ErJwTk/ULtNaAPS11YWc+z7xFSY9T2vEj+yQc5WCsPmZZHud4kFlUv8c4MfO1XCpY6epj1R3cdEyLB3+r1mw6uiOLKPMo9wwaPLnjAmtfuZ8pAAAATULgBE3XctOJ+cz3NvaiXNa2oTWxtHhJsm5T0poHmnWiK8+oFiN3XUAkznTf+/v1fnelboyJpQnSmjZ6u+7/rYEUa97wrdbTsW6MAEr0iTuPXhWCpwAAoGHYqoPmSlsQt7N/ge25oMmnUif9Ayu5tnFo1gnp+tWTyPeZ7zuzP3sgsUqMfUWayLc4vnVJrtx8LUCb41j6B2lPDgAAGofACZos9quwWdnBCm6drF1fdxPKS5nvb/w2jpagWkyeDBJbv8DJrxfdnxXVMyCUx1NtjkcIoBijWWexAAAANAiBEzRTmm3SyfMluQIMlZKsSS6GFeeqifIETswbNXx852k3vsPjAZR7kpuhUDQAAGgUAidoqtitQL+R4/5rg9oB9eP/LtvN/gWmJWSdVMvf3LybY0tWLHXLKPjJtgRPS5/7xwfdeLKz5pTQnhwAADQIgRM0VNTKtwKdXJRaszn/PrJOKsckObJOorbUhZ6nJseWvKbR4MnGgXzBE92y1589KgAAAA1B4ATNs7Sob7N1kvFst7bZJkOr2ikod9ZJLKiORG5kv7M9WqPAWJyrc1YT+VpHyVu5CkWbmZMCAADQEARO0ERtyTPpN76IYv0lkrOGS9SmzkGFRDZHceOabMcapZZRU2lwOF8dpxbPfwAA0BQETtAs6Sp6nmyTe7VrQfwsH9+6nrs1MXUOqiN/LZs6bMeKc3XOarp87cljd+P5DwAAGoHACZqmJfmyTWpe2+QJeVsTbxxaFlRHru06Fc868UGfGtVqmYR0y072c6Q/R+AEAAA0wj4BmiJN229n/wLba0y2yZCuOM8+Ope5cK5mnZx9vSOX/05QAQ9n19zjeyF7YWSfdaI1fqSCYsmVXVaAswv6HDGZ7jv3wMpKV6YukbtuSSVrlk7sbj0BAACoOTJO0CRxvrR905Wm0RVnsdmDRcan6rMVoiryPr5p1smxytWy8AWgS1HbRAuofpnpVpZtb5HN030pFgAAgAYgcIJmGKlIZN1bED+DSVZy3d8m7dLUwqDmyt5MkqNIrIo+ccf1RamK9Fxsl6K2iTWH0+BThtvGobJ0qekJAAAAHkPgBE0R55xIrdW+BfGz5C8i2pKy1MLQDJj6tNEtRtp6+qscXxHLw4OfDNp4V8ERmfYWnaFIcmRv2FOVy+yxmz8IAABAAxA4QUNELcmlodkmW/IWxS26A4vp5bhzLNiDPZ3v7kazITpytuRBqaVF457ruvUlljK4f6CX/c4uAFmOjKk48z2N+VEAAAAagMAJ6i9dKc/Tgrjb2GyToTQroZv9C3zWSSzF6WW/a9QSPJ+e31bybclKn0Pt0gZPfNBEPpEyBc60pozNkXWiXaqmnTGVmPnM993czN6+HAAAoMIInKAJ2pKvBfGaQPIVEVVmubitBkkvx52PVm7LwzRsHLjoHuN7ub7GRtdEn0/vLkhp6GO9HTRpS/ncyXxP7VKVbjWaDg3azJijktXVL3JsRQIAAKguAieot3T1Nk+2yb3GtSB+ltXba2JN9hVla04VttWgP5d9gmblJEViM9BsiETek7zS4Mn5UtQ80ed3Wri2rEGTfMV4fZcq84mcWcjWwji82D9/srCWoAkAAGgMAieou5bkyzZpeG2TJxh7Kft93aRPtxoUke3h2+hm3K4z/D0oEru3j29dH2HLjnvlMB+K1jzRTI9pHeezr+vbI/LwkNY0aUtZ6ba3PNt10m1vH048MHVGs4hydB4zhsAJAABoDAInqK+0BXE7+xfYnsz2bwi29Q+s5Ms6kXOFZXtYyf7YDLc8EDzZ2yhbdlKayfWd+OM8wUm+PqZLPiOjLXbma/dYZ6/JMS0257Y3Y5ZlGJiaxLYzHzSR5Vydx+xmzrbWAAAA1UXgBHUW52tBbLqy0qXY4U4+0yPHpE+zPR6+8IYUIfeWB99d5cggM2E8dQ7ApI/xcRcgG6W1bOyOswZP0km+HuuijtU7i8OAidYA+dIFI66JsVmDdNPNJHs4uzbC8dXA1Cd+K1KIc3g3GpQ587oe02UXrPko+xe6IPOVvyfIDAAAGoPACeopzTbpSC5Nb0H8DCbJt5XDJu1CJs+5tzz4SX26jWM4qX/nl9m+0mc1DDIbtifr9aVddhIXPNFcndEMs0/akmaghNnC4yf2C8OAyavudi0N1PjtLBnZr2T1ZkemSYNTZjN/PRk9nhuHvvbv9RiECqCkBXWH9WE+zBc0US7IDAAA0CD7BKinOF+2iaw1vgXxs+hxWVroZp+s6v2s3rcroemWB2PybM2IfWZCOrHXwNi3boX9rgsGaVaKFrTd+c0H7/VzSSxpfZxX3O0N97mee39M6uzqzbsu2HHaBSa00OooxUnTY21nXJDAanbQ79yx7krkjnXiDq4ZHN/V27t/tU7m+3ODf5j059sHmlGiz+M3ZEYfj7y/lm5BsqelDLTY8tLCr9zfkPc8Gp7Dehw+dQGPNAPMWOs+/+zj+aStQJY7tulxPSf9F87lyNrZgSAzAABoFgInqKmolefesvkoexHURtKiuXlW+c0FN1HrZp7UZaVbHuY2fuO+f94MkHTyObNf4yO6HUszV9YHt+37bN2eTMazPWkCP7nXCfbIwRMZTMTb7nu4mz++XUlb8n4rWuB3abHnA1YavNr+IneI7+vX6a0lacDqFdk41Brxt5BB0OR4uQKiPojz5Qjnr/jnn/UBSQ0Cdt3tb0XP4zOv93YPBOqXaLDKfS7Rz2/Gkh7bX7mAybx/nMxICUYXCTIDAICmIXCC+kkLVeZpQdyVq1/QIeJ5dJtMGbJOdMuDz4owX8mo/MReJ6FP/QeBpMGTdxfWxbjgibEvyjj0WFtz0h3ak08c36eDVhuHJJwyBk0kzd56Z/EticyXYxzbWHxhXC187Y/pswKB6rBsBwO3M0tGC5iIP66rtzoCAADQMNQ4QR21JV8L4jVBBjk7g4ibMBfRESStdZK/hS6y0zbFZvO1Ebvt7C0NXsXbt5DfW74pZdBkSLdEpfVORo1ePG4rEOieb+nYt33Tz2nXoZG24zzByg/+uAIAADQQgRPUS7qPP0+2yT25fDtnQKCh+nPX87UmNqcKa02sLXStTpBRGB940ImyHT27Z7JcIMIFQWfvlzdoMqRZPYl9a8RORpOnQZNEyn9cAQAACkLgBHXTknzZJhQ5zMp3BrHZa8FoS+CNQ8uFZJ3o77Jx4HhhGRFI6UR59ZZmGejzJEyGRBH8xN6+537XtyvTUrzorJ5QhkETzZQBAABoKAInqA/NNjHRuexfYHsy278hyK5/YCVf1omcKyzrRIMn/dnX3Pf/XFAs3843eXmQ5VOmAIr1GTEmec0FIqq3fUsDU3oOi98uWMLAlAvq6LElaAIAABqOwAnqJHZTj5PZ7266lVmdLgsNVuSpdaJZJw8OtqUo+vtcufmWlD0jog50kn/lppvkJ6cHWRLTPN5pwESS4z4jpspbSPQc1kwZ/Vumf1yH9PiuyNyD19ieAwAAQOAEdeFrm5iO5JKwTWcUM7KW5+5izKlB7ZniDDMiSrtyXyNan2P11stTCqA8GTDpSl3o3zK94zo0PL4vu9/lPIFlAACAFIET1EXsZui/knSykeW2xkrqiP5G0/Z9wdBsx9rIK5LWnilWWo/j7e0Aytbkc5QJaPp1aSeRFXcLFWTLen6W33YA5bg/3v5YFfK773gcxgqYVOPYT+64Dm0f381Hr1U+gwcAAKAA+wSog/7cusz1T+f4iq5gDFZXxVtSRumk723/8dKJlljjAjfmqKRFg2O/fWhXtufrtxi5K9Z+K4m5E7S2Q75ztCtVkQYxuv5jPd6i3ZTcMTcyv+NeJuN32xEgcI+HyA33/oYc7N8dP/shyXbsN6Ny1PN4+ri+4Y7r0RGP65Dd8dFdMfaOP75XapS5AwAAUIC8F10AUH1LJ+Ktj+f662xJKMBy67ALFs0Pgiixe/+Sm6gfdu8P+/dDabHhnrvPug9YWfleDj2g/tCzPHZczYvueP3bHcczfuy+PhBo3XE0PfePH93tWx8YeuF+j+MLAAAAAAAAAAAAAAAAAAAAAAAAAAAAAAAAAAAAAAAAAAAAAAAAAAAAAAAAAAAAAAAAAAAAAAAAAAAAAAAAAAAAAAAA4HH/F/J61d7hBd1qAAAAAElFTkSuQmCC;" parent="1" vertex="1">
          <mxGeometry x="1160" y="890" width="144.38" height="54.24" as="geometry" />
        </mxCell>
        <mxCell id="GIMZbPj-_7auRT-JxN02-2" value="" style="rounded=0;whiteSpace=wrap;html=1;fontSize=16;align=center;" parent="1" vertex="1">
          <mxGeometry x="960" y="918.5" width="120" height="80" as="geometry" />
        </mxCell>
        <mxCell id="GIMZbPj-_7auRT-JxN02-3" value="&lt;font style=&quot;font-size: 16px;&quot;&gt;Database&lt;/font&gt;" style="text;html=1;strokeColor=none;fillColor=none;align=center;verticalAlign=middle;whiteSpace=wrap;rounded=0;fontSize=16;" parent="1" vertex="1">
          <mxGeometry x="960" y="918.5" width="120" height="40" as="geometry" />
        </mxCell>
        <mxCell id="GIMZbPj-_7auRT-JxN02-5" value="" style="shape=image;verticalLabelPosition=bottom;labelBackgroundColor=default;verticalAlign=top;aspect=fixed;imageAspect=0;image=data:image/png,iVBORw0KGgoAAAANSUhEUgAAAbEAAAB0CAMAAAA8XPwwAAAA/FBMVEX///8hMTwQqlASkk8UKDQeLzoAGCgXKjYAECMAFSYRJjMAGyoAHiwAGSkcLTkSkE8ADSG4xMIKIjDq6+x3foPO0NL3+Pjv8PDAw8UAoztnb3V+hImSl5vd3+AQp1Df4eJeZm0ABh6boKQuPEYAiz+GjJCqrrG6vb/Fx8nU1tcApkVVXmWmqq1udXtFUFgAjEM4RU4RoFCw3L4AABbU7NwRmU/A3cvm9Oucya0AAADJ4tMAABcAAA8nq1x2tpCa1K07n2aKwZ+s0rvh7+ZbvX1crHyDypphvoFzxI5Gomy82siTxaZosYW138JIt3BapHtvqomCr5invbSbvqudw+CbAAATUElEQVR4nO1dC5ejNpaGKp4CMzS2cQXjGOwC2+VHeTs9ySbdvelMMpudRzKzm///Xxb0sJF0hV2TzNiu4TsnpyuYh9Cn+9C9V0LTOnTocCm8vXQDOrwQH7+6dAs6vAyf/delW9DhRfj26bETslvCu8/unv966UZ0OB/vnu7u7h+/v3QzOpyLnz67u7v7/f2nS7ejw5l4WxNWMfb83aVb0uEsfIsJqxi7f/zDpdvS4QxQwmrG7h//fOnWdDgJRhhm7P7xy0u3p8MJvGWEEcbuH7+5dIs6tOKbA2F3/3FPKHt36TZ1aMFXR8IYY9207Krx+Z3M2P1zfOlmdVDhhyeIsfvfXbpdHRR42ySswdjzHy/dsg4gmkaMY+z+8T8v3bYOED7eqRjrvI+rxLdPasbu7y/dug4SBJ0oMPbcZaSvDj88tTHWTaSvDu9EERMY61z8a8NHkTCRsefOX7wqfCmJmMjY/eOl29ihCVnE7j4XGOsy0teEb2QRkxi7f+zii9eDn2XCZMY6IbseSHMxkLFOyK4H/y3OxWDGOnfxagARBjDWxaquBT+dy1hXp3Ml+BEiDJSxLlF2HYD8Dpixbr3LVQBWinef/05mrPM9rgL/cz5j3eKJqwDIl4KxTi1eAb6HzRjMWKcWayDfnO/W6yypkGXr9W4/1w0U+V7P8vVdUpQTxYXLXbYdF0WRVqj+KcbjwXZb32VbzBbTcx//FlaKMGP3f/qNXvqWkUa6aQaBzRAEZmCapo5hBjbyXScroQCRadiGgRowDAPfoubbicars57/44sY6yJVWvy1H9mUH4rArns+aBy0/XArSdrDB2QHuhImcnbncKYwYwrGnrv1SfFwkSa2axx62rB2yWCwzXZ66ProQIkRJn3+yn5ZJPPQPxCLnNB1QsfyD/cK8uLk88EocAtjXYkOwXTrM3FKGkcXxdxBB87yDXDlAlHKUIoV1mhVDvwDjb3tqSe/UyhFBWNdbPGAAWXGEjTZpHAPnFkZcOHSIz86o+Ox0mbXWLMTz1U5HirGOv+eYeqSLnYlexWPQ6Yb0R4w/I7MmKZlEb0k78tXNAFmWloY6wzZASFlDHDLJ3MmMsZe/lUnKjDkycyoNUPj9sf+8DLP4/75L7/iHV8XHDVjmpYwM2fspN/mRAIdnrGY2TKv/bEqwpSMdVvpMFBOXFiLjam10n1JZvYmxJg2i1RqloNKKSo9j0//8Bu+NqBWxrQtM0zhUvhlT2TMFRjrU6H1F21PjVXOvZKxzllkMKioqDyFnU0nWabwA2XMEi+gbr9ftj1Vrt4+xVhXacpgn2Bs5DK9KDjslLGeeMHaPoexF2vFLk7FQKNSvJPexIZaOjPij1PGJA8jIYx5D21P/VLJ2J2KsW71H4V5ijFNp9MyQWqo5+GLp2eEsVB9Q02ZgG5jrFuXRHGasZIKWcB7+CrGyPFAng40oQx5dDJ2EqcZY1M2PeRsnYKxOCf3E11LHr8xY8v08PhFkSSF4KeOFuPqYHkiDFOdt9wUg2SQtmf5hgnrq+ks2e+ztD1VES9ngywZz5YnDXE8xI9XZyYJzmBsYEBqkTImWDdtgSXSyNob18IYTJhaK44WA8+dk7+HSe4j20ae23CThhk56OdZGxPTdB56ETJshHzHTOH+iB/GyAqJiV7sw8gOAhs5ezVn5Tr3IqN6euTlu2O6sS8Fkfqzfc4e7/pFS0tPeh6a9kCn0WjQPDqHGcMOiW2eGFAtdkzFGCRj08V4HvqGHqzr/1vtXDoVqRwfppWH++NB+73SgR3uQmSaNsv8mZGcMZouiqpTq9lQb1hfMLcOKangPRz4HhWObxu+H5EZT+Dn681yMlktBmHInznJ8iioHk89dxPlibIHz2BsRNWiyQ0MmLGinnEjvdXt0H4bxjY4k4dbYW+r4b/Nm4lWEgqNk5DLvuYwZf21Y+uGM8+Stc9yFpHRlJxFI21Yh3O2/H2dFLjrJkS64Y3LRTnwaSDCjjzLtXyDd7yrptu67ZrV4w2W5kKuytk+gzF2ju42D9K4IuLOHFsVsU52UmWr52PnMxY0cnhjbVn1Z+S5rscSd1FS9bOFqvEa+dFBzHLIRizC6vdwSzTRpAjJ2UHe6LOvD8+qumE0DVCds2/k4nPZbmfVTNZnicKZozfBqauVj+qUFhkg/dQjjzJzRcbKPoMxOsXiT6KMRdNRjAmK+8u0zo/Z89aZGME/wJg8CpYDhw5dcz52ULibDafTZcGS4W45cMzKyBRlOUuY5ARAFmKW65yrNNrR2+bDw7HhOoxYvhalrml7zi5Jdg4LfAeBeNd1dRN0zOyuGGUVzabRTEYt8uoe4VH448Sij4cVwjmMFSz42ByglDHddVzXqkCHd7A/p5xKHVdUMfYM3iZlChsxEanfmHZ4ZfGdMT0aFyxJIQnDpk44hcPmIZqaN5u9Em8Qi7GiIEzo+QubjmZP8E8Lr25V48CC8GAne8tPGn20zPHoal6b0jhTDno0xhmMsXg8l6ieK8pzAtcoTvrR6ti9ijFFJHjaIw+dN5vGknR+1nirBaHMEAsahnWPIcHPyMgYtdfc0YL2g9EclTsDOnVa3zXirNsOd5jHDY1KC9bjxc74gwUdMTr0yucwxubQPGNUHxhRBYSMYxFWNeDFch4JwJr1dsZU61twGNM0uGMxcW4NPkOUkv52oA4Qc0bMdAvmfw5FB+ZQ2mlriP1F5z2RYJ1wpD0U9RJhV4rlHhv8KxgzBrMKaTFY25Ury0gzwtZAsLLqXsmYspgK21hjwB9MEdQ5hAUhcYd5lARPeyCKSSCHdKSQSBqSU62m8JA4Ak9iHOpyU7GulANEU1IaIMZyMV7CGG/H8IWmfTzSXyRH980dSLdpQj2FVjCm2gN/WzOGhIdNcCeKRwmPfH/HLsBBDRroDjl+14E0cA89wcUXllhZI+G8QNae+FpxaFVIiK6F4ulnMUb1N5eS0SXGtHrOGDLl6LdSpnYWFa6ianNurH5EbjTcYNE6DD1Z8shgBPK5RIcJpghmbIxHAmqeiS2/oKtJjJxnjMinaNsqrIjgysL/Ms+Dm4+BjFXDW2eq0WlVjC9lTHUfmLEdMJy1PpE8zskgmQYpLcuET1BYJPcnMka6h7OaxLsWboujfTwH5DwoOUm7F8m/vMC7510XBWNafHAixYICDspiKpixT6r7DEDGcNcGAmMx9hb5Kq+eql9YZpZzVDKQMSKnHBUpxARpKie0RPdKfo926HOAzHMYoymvZt2wmjE6lGH1fIS4E2Y7Y+ptWGDGsOSJjJFKP44xUpVizoEbU8XCdRnMGFGgXO+Qiz1+7oev5i2TJY8K7qYkhsnjHMZoaWK0kQ8CjGmbQySi5Z7KwnuYMeV2AzBjA5AxS2JsiGUsgBpKi545bwtmjETKOcZIfwuzPOxl5E15omVMEGO09BdwPc5gLGZVqFxL1YxprGSuNQ+tmpG9zIypGEMQY57UjaSzwZnqFHDaYcaWMmNTIruccz6qu9Hg9BTxaUHGaKcDXuwZjBFXVSSnhTGWULNkkT5CpRbBjKZ6fwiYsXF9VPQ8NHngU90jJdK1Q8aCowdmbCgzRrvVb2olrHpybq7MGIMMvv8rGKNGUJBxkgo1pQiodpy/tVbnqNQiuKpW/UWylzAWKWQM9pHCc7UiUa08Y9QKNqcNdYdZfFaGMgYWZBOJALrwDO+epqmFUIqpljHyCqfqqWBvEV65rvY6Ye8eT5HOYGxoybQwOHLHnM9Y7JHuMQ+U1YraE6ZX1I55UInFHJz7sbdoqVc8RGHE+SgRTnGWiEGHDuToNABXwIH7ebQU3SsYO1PGqF8LFjATGePmVPB8DGKMhOTruDhRjP3E181QymuTAQM61UTGAFfAP8kY9e3FXCBSTvG0CU3wOO2Jl89BxiARa/kaWQJFqYjncYYd0whj0vUas2P8PeCYB8iYVr6nHna4Hoz3oa1HvqxySIBLamiNSGV0qAJT1d1r2iqEX4oloYBLluymx0PxIk0Xgm4DY4sQY2019xnMGChjsq9IY7tQxJX4ivzw372AMW0Y0XRngFAQ+GEBqHa64DIHfiJxYyBK1boaqQaZlptIvKmvZozGIRuPmxWTOJ4UQjUEJGPizs7tfgdlTIzdE10p6nHKGNcImoIBvFris/ORYMKYqOwpY+LTqrc2DB1XLVj5Gty24eCrygE9MmAgTyA/wdiM3DOXXonaKmid2JZ498d072Cq9af9et01dx4kZBBjiqZhrF/AmCUzRpP5UHfXXApFBqTiTwzcKhmrdTaap5vFSuU50VkXUMvwUPe7CU072OxYUdVIDWgor15nFwKNsYRmbCZaaSZrPdYmvI0FZtEyY+0b5uBhLzEGhMk1Osh4xuCsSg08FCzeJSH+m+jaqRkrEchjA7SExpJkCXu7kEvC4hmgg3kYglBxFxVOYPZH5yLHKoXKcpTVf7OKdr5rz9jv/oSIUcZEdb8GGQsBxhY9eJRjx0M8GoBzJMqY5D7015Zutdf3Mi9B9jBqxw5MaLJaRLHQgWDp4CZCdViMatmDp+uXjpPF5ZAwVla3WfIjQ/psi8xYqxWj3pZk9cFsSwwxxupVfKEDcPQ9F2wFGYriXIDEPKSYGK6iU0jCEbQmBQlvgA0cUFJ3dMR1D9BuKX7FIIRmK2yTAkkh0WxLY7JYVnOKxXqzCap/p7x6lQMfvxcZO/HlFjB3SWgQ+5CMTiQMvxVTFtxxHBiUSh88kDEanOTlcWUQ91w/sYHQyCUOpcclgeJaxHqgFLH0cqUARP9+ucdOhy/9QJrJFrU7fJOmc6yZnUYD6iUKi2T5oR4TU6ETJOdDZOzEl6HJwDGFBaQkHSnO7kmTpaIKVvzpNprcr/WfZAtoZECUUpqr4H2whNZPmO5+kM7Kh+FEMX96oCPGa0hZvK860RcVB2kZ2zusehNn21h+Md3sXWwhQqg+WTtU+9TKtqHWpwNcNWBzo3NVnVCmWloP4oWoRMWvFAiMndhjYEUdBzRoxgb6dNJvZE0rsqRJI7QW2lBQdRHNmfBsrACoyWUP0yNOWw3pfe3dQ0NPlSyBUQ0cvKOe67j2bps+SEGMklJmIDYDWBg2P+YpRsNy63Kl6j13noyLui7KcKL6FxRugZERTxdj41A2pZtelBWzsixnA7I5UuCsheQrZizOqz8z6WaCkH062+3op1l0WK2AnP2WKNw00R3WONuNMjLiZpnfY4PT7nnrcbOFM1qxb/p+ls5mW78SxgjxvA52vePSCM/bbfGYHA3WkcXuG3ju/lDnelgo2YAZGJGXr0VnZEHLxk3fXRez2SDwTB25sika5daxWu0gaDbefq+OGZqG1xtDs7TtF2yBwqElNooi348MLJXOTpSjZaktqo4bl9pGbsdPvCn729k6sQy55psIT15WX3Bb2pk2VsaaZXAtDt5zb7baMzbqNzHMwO8JqqX/BU9A4Gf4zXJ+A72Gze/LvUsfIQkvXqjReLwZhWPArWDlNgDMendFfwvv79DP267ruVvA1G6ovzGDVCy/4dHfOQlr+2bL4oPrOo5r9XpW/a8bYtM/+dp16+ME9d/45CgMXcurRlWloKzqhw/CzR52oY+LZM0A+eFOilD0v6j6shqVBFGELKy0ljlCh8N1oW0j0jBaO4qy6VDyvYdZ6CNMvmlEznwGZlKy9+HhpUjlfPXuPat6ezdYj9XrBDcfyPk9z/NIOzF8z3WidapwZleD2XI5S+BY/s8Nyj7+73ODsE+qRtSIV5NpP8bLNOJ41J+uiNisJtXh/gijP51OyNF+Pz6QUJ09lZVHvxyvg8iP9gNwMec4TWebcoFRbmZpgQfmaFCwwyU+ynnOwzpybBvitpXyrKG+06JY69Xj59uNKvxUvWtcvVO/fqvJZLVaDWusVtMTa79Gk/qC+vTlA21ohXKxnLReOBoOlcHmRhD/518ajN3f+I4Q/V2A3PVgsE2yPXLd4w6UpyIhV4+vjkL24/8dGbv1xeqb3G4E7OPJYuCxKVF442PxuDH301/fHBg7MRO7dsRrK4hEm76hznlrBcxNgO169PTdkrn3N/59namNTEO2A33iZbfv2nUToJQ9/fJAncXH294Cc5mbeggFqIbKvNetgVD29OYNMWQ3rhIf3sP5Y40Gi9wT0cabwPe1+/Hx4c1DrRafb9vpwHNWRdgeJwXACsWbQ/zx6e6PD5WQPT5/uvEXwulIRWqsjlyApTi3iB8/+8ubCr/c/NdpcXwdWBVWo5Yx6/YdD4pv32Bcuhm/Gjh/o1jasw7al5DcGF4JYzihCvNSlwHLZU63C0zY7ftRZKlIBMW9M1v3Tn8k5Xawqhk7+4tYVwtab+PIFWiFp0fZv75B/zxMasZObUN2A6BLct2B8DWAbU/3X4ufSDB9FWas3gmHVij46VFj9FMfmeGJj23cGkavhDFtyAoRkKMn6WwzS7dzJzIRsFrithG/CsejBq1+02lNRYSMQEdgMcCNo2LsRBXtrSAeH/f3w9UAvjs+vcPa7aFi7NW8Vj+dhz0/QnXxmxNtxcVYrwSvw1U8YLQs0zSdlctXMwwlDF+H4/FvhFXH2I1h0jF2Y4jj12mfO3T4V+L/AVKOmYf9wEmnAAAAAElFTkSuQmCC;" parent="1" vertex="1">
          <mxGeometry x="974.25" y="958.5" width="91.5" height="24.51" as="geometry" />
        </mxCell>
        <mxCell id="GIMZbPj-_7auRT-JxN02-7" value="" style="endArrow=block;html=1;rounded=0;exitX=1;exitY=0.5;exitDx=0;exitDy=0;entryX=0;entryY=0.5;entryDx=0;entryDy=0;endFill=0;" parent="1" source="uI3OphNUKf_lqw-jZ9q1-29" target="GIMZbPj-_7auRT-JxN02-2" edge="1">
          <mxGeometry width="50" height="50" relative="1" as="geometry">
            <mxPoint x="670" y="709" as="sourcePoint" />
            <mxPoint x="720" y="659" as="targetPoint" />
          </mxGeometry>
        </mxCell>
        <mxCell id="GIMZbPj-_7auRT-JxN02-8" value="" style="endArrow=block;html=1;rounded=0;exitX=0;exitY=0.5;exitDx=0;exitDy=0;entryX=1;entryY=0.75;entryDx=0;entryDy=0;edgeStyle=orthogonalEdgeStyle;elbow=vertical;endFill=0;" parent="1" source="GIMZbPj-_7auRT-JxN02-3" target="uI3OphNUKf_lqw-jZ9q1-17" edge="1">
          <mxGeometry width="50" height="50" relative="1" as="geometry">
            <mxPoint x="1090" y="809" as="sourcePoint" />
            <mxPoint x="930" y="609" as="targetPoint" />
            <Array as="points">
              <mxPoint x="640" y="939" />
              <mxPoint x="640" y="818" />
            </Array>
          </mxGeometry>
        </mxCell>
        <mxCell id="GIMZbPj-_7auRT-JxN02-13" value="" style="rounded=0;whiteSpace=wrap;html=1;fillColor=none;strokeColor=#808080;dashed=1;movable=1;resizable=1;rotatable=1;deletable=1;editable=1;locked=0;connectable=1;" parent="1" vertex="1">
          <mxGeometry x="440.82000000000005" y="80" width="399.17" height="159" as="geometry" />
        </mxCell>
        <mxCell id="GIMZbPj-_7auRT-JxN02-15" value="" style="rounded=0;whiteSpace=wrap;html=1;fontSize=16;align=center;" parent="1" vertex="1">
          <mxGeometry x="480.82000000000005" y="119.5" width="120" height="80" as="geometry" />
        </mxCell>
        <mxCell id="GIMZbPj-_7auRT-JxN02-16" value="&lt;font style=&quot;font-size: 16px;&quot;&gt;Website&lt;/font&gt;" style="text;html=1;strokeColor=none;fillColor=none;align=center;verticalAlign=middle;whiteSpace=wrap;rounded=0;fontSize=16;" parent="1" vertex="1">
          <mxGeometry x="480.82000000000005" y="119.5" width="120" height="40" as="geometry" />
        </mxCell>
        <mxCell id="GIMZbPj-_7auRT-JxN02-18" value="" style="shape=image;verticalLabelPosition=bottom;labelBackgroundColor=default;verticalAlign=top;aspect=fixed;imageAspect=0;image=data:image/png,iVBORw0KGgoAAAANSUhEUgAAAYMAAACCCAMAAACTkVQxAAAA5FBMVEX////0gSBAQEH6rT/zeAD96d0nJykrKy05OToxMTL6qTE3Nzj927Pm5uY9PT6+vr7s7Ox+fn50dHTV1dUzMzTzdQDb29vz8/P0fhZqamvzegC9vb3y8vKHh4hTU1T5+fmSkpOurq76pyj+9e/Ly8tgYGGkpKT3p3L72MP95tn838793rv6piH7umX+7NghISP2m1z6y6/+8Oj2oWdZWVpKSksUFBf5upP3rX75wZ/2mln707v1kkj1iDP7v3L95cr806T6sUoICAz7x4j8zpf7t1z4tIn1kkn7xH/1jDr3rHr81KVab0KUAAANX0lEQVR4nO1dZ0PbOhQNGR4JcQZOSJw9gVAIe5RCH5RC6fv//+d5SLKWYzsx1sPx+UQTRbrS0Z2S3UwmRYr/NS4W57d3l2dnZ5cHb/cPRwPR8mwbFvffjUbeMFoAhpFvPB6cX4iWa2tweJDPG60dBi2jsXNbEC3dFuDizchz1h/CaHycixYx4Tg6a6wgAGhD/jb1DZ+Ggj8DjjLkb0WLmlTcBWPAZqH1IFraJOLQMIIyYCH/fSJa4sThoBGGAROtfKoKkeLiMZQSOGjciRY7SVisCke9YfwQLXhycB7WDkG0dlKnEA3u16XAJKGVli+iwAYUWBlbqgmbY21DBDUhJWFTLDajwCThUfQUvjou8htSYEZHZ6In8cXxuFZQSiJ/L3oWXxoHa6RmLBpHoufxhXG4qTOAED2RL4wIDJEN4030TL4s3iKxRBYa6RHneriIyhKZAeq76Ml8UVxGZYpM5BeiZ/MlUYhODUxF+BA9nS+BwmKxKGCFhSjVIFUEfxzdfjTyFhrG5bnDwyRKNTAVIc2WV+LhseHe2WoZjTNrz95GFhQ5aKRVbG8sHulTslbjvRBZbgBhpPddPPGXZ3NajYOoOUiTZS8MPjxMTvQU5NOqEReTT1hrL6TGiI8oStNB0UpvWfBwGXHssxqN9Cowi/PND8nCIH8oesL/PwzipWCnYSZ/F09PT39+ve7+TLMFG9GVpgPBzpSfi7lc0cK4ePLvqegVEI5BtMUIX1imaDLOuSiOc69brg738arBjmGOeVzMESiOT36KXgeR+IgxLt0B55l/KA5MjJ+3l4WI66K+sGt2Y4YCi4WTbbVIh/FGRfZp5imXg1zu2z+iV0MMYnYHhvXI7CtrioBf+L2Vt1Lv4nUHeWvMZw8KLBa2MVCN9qjSD62/GSoyZezRsegViR9nsXJgX3fc9TJFDgm7opckdsSqB63v1pAnqyjYRhJi9QfOrd+VarCN5ijOuMj4aw+5yh04JGyZY17EyEHLGdKXg1xxa44Yjs7fLn88xkcBfP7AzxaZHJyIXZmY8HBpvQGqFaM3aMA3Gvn4ZAvj5PvlizvuG7g+lwL0KNTq2BSQkPCEeXIQ/O03n0BBZuDvEHLFJ4EL9Pm4F8BAizhE9qwXYUhybDT5EfPxsYX8O2laTgKQ8FvQAn0+1nz1ykYwWsz7BZ/8zdE4qYrwEPOJjWWFdnjPJR8XfVUhoR5hw5dOrFpqHgyj0brzeujj+OTbeFwE4HqERIZGYZ4zNow8Dw0b1l+GYb3f12r6+Pj48fHx4/39+/ezSwsHBwd/7+7e3m4fVp9OXpye/jze/ff115+nk2frfgWB4r8xLUucCPNkWf720MLCxNHRUaFQuLAxMfFpdYQJlbwl0SuHMS1Cnub+nXhjFOalE3FfUJ9MTLtE33gpJq6GHe4NRPZbTB9tS//DtfSWobct/duthXsL5xYeLADjdeQYr8LF6m08+blrO4LfliewwHjm4q+YliY2rFsg9Yh4eKD9d/7S692mp6+5sWdAhPAc6wJ9Ph4EpMdWcsC76L77PA6QKJtpWuyr9LmI8ZyAQOMvLclxLhABucSlygsRamDDuCQEmZwEqJoCFJN1BTXea0QEiHeo/fSvUWAcJOskR5ga7IC7dQ52vwVnIGmZcsw3e0kYqGwajoJc8VXkmkWNmJ93ItGCHuE4HAUJ4+BdnDvYQXdaTkNSkCv+I3TRIoZIU2TGp44QIRlImE+O+2EbLge/QkREgIMkxaZHYvXAegwwvCVKWI4mLkOz4Ly7K8DNLoaDJBWvhYamTmzq9QzaSohetyghlgP7Ucwgd4poJOpUXywH9pu71jBFyUqThfrklv1/c61hihLlkmN/JwUB+5rj6bdiaHwTvWzRAry2VAicd0bthkeSsgMLBXEQPfUUKVKkSJEiRYoUKVKkSJEiRYoUCcegOe10OtPmpv1UO8P6bDZr90YbdyUIlY6DvWDN13+KjfzlYDSTZNWCLLU7HLFuZBs3ft12+pJeUjQTii5rc458S9ATNkr3BXxGsNYGLR1c14dT/mz3bmQelm1cLNBm6Se/ieqN6kD2aFAnBJMlWat3WNGqL1yx5Bc4yWm/fjVCzQdDSdeyEJqqzukOK6rznbpa/GlWdfsxe9LlEdOmBHqquB/tS85nMsFBXcnifWklVarztuaenOVBqXPk11fLb2MIJMyqnM1ooaZQQ2mKKg3pVlW+WGiSe/XBfmYIh5jqJaqdnqXsSDAOepJGj6jO6B2yJgfOuspXrIHbU6PlAHWn9fkNGA4slHRqf/hx0M7ow2wGKOtcYhtqS3IPBOJgpvOWItslW23CgSUYo6MRc9Bxu5P5HoHLAbNkfhxcZfrlOuBgyG9L9hiEgxmtTUC2LKkJm3FgNqpR40bMQd/VZYUeygGfA3PJyngrPw5q+1fNocPBiKMFTo/4JgjAQc/VAq2k666cSptotykHWbVHDhwtB4R3kbq8Jl4caFd4K8SBRkICk+z2K5mpbVqbS7cL3fTamG/Wsf3rz8Ee4lKTruadUU9HnJCOOTQHqh17YIJJFbyZy8GKuCg4B8QClxjDhzfRSjbcH0j4toUcaLM2gRnUlm5vVrP/djVP7Y+a5eaoj/ZBCdNEfw6uYUc6dJtz5KGJX4XlQJ1Wq9VuudN2HT4pBeRALlcJ4Hs4MAddd0/aa8BrAzjQZnMbPQXuttIQawU5kKs+Q1aQwsjQ/ldQeInZN18OprAjzFKUoWw6rghhOUAf7imIZmJ7Qg6kFclSYA7mpFPjhqeAAwXNdA56JwIpxEGZ0wWOKzQtt2UVzrXkLqcvB23wG8IKNyWObGtzkNnPgkE0BW8XKQeQghJHcgiGA2Q28e6DclCGRpywZHDpsBX34wCuYlYmFgKmOxKmj+tz4IpLBI1RcgADUxX+QOIUXFgOKjq7PEE5GIHfKmSo0VtKNl7QVP04mILvCYtoygEWDVfpDTjI9OB+w40R4mDFRINyANyjqc3Av/HCU5aDjrOOWhZrBTlQekMcTOEAzkmm2O4CoJ3lxwE0o3RWA+aExxebcNCE88JXZg9ZYxxZYvsF5ABaAHmKtqe0z7RiOZhxCEOxqVLCoNbp3mbQwK4WzZ8DSCZtD1hxN+Igg+I97DMUm5Jh+DocwIjH3M8DMBQnPKUnNahz5uSRo7F6dc2ZEhd+HMCQmbYHgBt85I04gKuNu0p+jiavwQGUw47j4LZSmGaQg1q1XC5Xh3UZZghEJBuUAzilNv0FjcAc7HM/j0wPYLiCZ6TRcQAtqq3N0C6pFboZnKxi54JujiYTgWxYPbheKVrGnwMYAKlT8nNg7HBXzeGgG5SDAQx28U0THQcKYdZB3E5WICx41Cp0cnmDcgCjeo7jIeHHgUeABe03nqSBIXVs0wyCclDhhV+RcQAbgZ9OvcJTPgcy5W0RBypRQWF8Mty+OhkxTSsAjHheHKBKl0Rk5mhW2DSu2VAJcUCsG4eDPodAlwNdxXATngOYsGp1p7ID005663I5YE6rIAfqtEyAHnWKxMfjGXiYJ7uu2jdPRrEJobmwiIQ7qzar4mjHEVEVywGsCZBMR5UfNN2qowP4Tw8nZ7eDbXTGkgTN0eAGJOvLcD+owfUARRHZEhZj1YCaEaYD5c7u2kJa8BSHwwEqs5NER5Une5WkqfIU1vD6+jrL1nUAAteLsKWDMxjAsxi8KuPLQRnVGxUFUDeow227xLct7Eq7hiPOeZmXywGYQ7mOnJxMhCphOODWQR3sex2kUOUpMtgbINWkopHgHGBLp8+tYm93hE5f8FAL7aMqYduw8rC7izRVrw9Ho5obNhN7ZB8OqWVtsas15LzIImUdTnU+nM+HV5I7AFlIC8OBQsqPG5A57ySWxzkZcMPKM02Upz8oM7XsoTuyLmVn1xL6t4InbnAO5DnJDaak+3gopuAHaZpOLg46H9NU9cocETWkDDps5+T62G0B8swwFAeU/Lgf1VBR1gUUlMxhyaQHilmiXDc/LjIjI8ZquWcvWcLHmAuEb5IKN/4jwqnpktckSx2KZoijO2JEfcjngOmPqumH4sBTfqQp9RpCD+RPVHhKcuBljbzOk6mypt2UuBHkLg45bAAOvE6m6SUjdA8fkVZmDw6WdBAYDQcgmySl4Kc9VPKPzsFUQoAQHGTKPBI0lUxMgnCQGS3ZnugbH858eTcwlnQqxOWgRGfiEXEAjybIGGiA0h68b7oAg4wmkX+F4SDT7TMCqn3qQkEgDjJ7Gr3DVfqymIM2I58mMXd5OByUpBq70JFw4FH45SaxTN0UORv/uqkHB9bpu457Bc4NxWAcWGGmirsU9tIkwEjFR8wq8ow9+abuOiq6rA55cR7M0TfhACZKdK0FqgeRujCFSGSNZMyHhuQgM5hrsn1V1wxopGv2jmim8iJxcMNZ4lEbXh6WeZeH3XZXkqorihmF6KrUZgxMxrrz644kK/3a3OMe9B6Q7WUFB50brvxopnPw/QuttjN4pIht8brz2bJGfyItseSxyl0ysw0bF0E0R716u10bdvxSCn80rXrT1Lef7nRuDlnvzT3uU6dIEQ/+A9lwacnNIftaAAAAAElFTkSuQmCC;" parent="1" vertex="1">
          <mxGeometry x="680.41" y="90" width="148.85" height="50" as="geometry" />
        </mxCell>
        <mxCell id="GIMZbPj-_7auRT-JxN02-19" value="" style="shape=image;verticalLabelPosition=bottom;labelBackgroundColor=default;verticalAlign=top;aspect=fixed;imageAspect=0;image=data:image/png,iVBORw0KGgoAAAANSUhEUgAAAOEAAADhCAMAAAAJbSJIAAAA8FBMVEX///+3u732mjr3njv2nDv1ljn3oDz1lDj1lTn2mDm6vb+zt7rn6On4pD31kji8wML4pj70jTbX2drLzs/5qj/5wZru7+/7y5z1kS37zJz0iyv3nTH4ozP5w5r//Pn0jiz3nSj+9ev838n2lCX96tvzhhn+8OT60bX4oyr95cr5qDf6wYL3niXs7e7706zd3+D4s3X1lCf3tIL73MXzgxn7yY/6u235sVP827b5slT4qkb96dL6v3j806T5tmL82LT3p2L2n1D3okr3rGr5wY/3qVv3pk76zav2oFj1l0X4qln5u4L2pGD3rHD0lEj4uYy5gWr8AAAORElEQVR4nO2dC1PbOhOGIfcUAoRb3STkgmOSUtoSoJevnJ5CgYYWaP//v/lsObZXV0uybHEyfWdKJzOJ7Se7Wu9KK2dl5a/+6q/E+vphZPsS8tXR9Hj68bXtq8hTn453d4+nu1+X1pBfp7tIx9M3l7avJRcdTbd2dyPGT5/7tq/HvHwfjRF3d6fTpRuQr3o+F0RcNk8do0EICZfNTb8guK0E8X+2r8iwPvQWcBHi8Rvbl2RW45MtYD5E+M72NZnVl62tEDHGXLJAE/hobMTwv+lSJTaXJ1tbADGU7Ysyqq1YsRGP/7F9USb1pocjIsKvtq/KoGIfhUZcppytv4UpCqVLFGje9FotBqLtyzKn176PYojITY8/2r4uY+r3AjoKsffK9oUZ0z8ojmJuGiAuT6D5fBLCkSNxemT7ygzJ99FWK3RT3E+ntq/MlD5yCLf+tXE1+5smtAMP+XnYWhASiL0PyZu2X6ieY18TcG3VgNbg2UchYIQICT8n79rMdpKiAd/DY4Y+GiHCaAMDjc5pNBDNAK5uwmN+i0yIeyiyYT/bmdURF6dZyyrMR09aBGHCCQLN+primbUQo+9xPaPewoP+2+USYoFG9cw6VtzX+17Eegd8lAw2vW/J+3Yo787hanV9W6QRDogjTsfEyXf4B6IVeZzCR16gDxgFXPlVa/ERT8B0d3C5eAhO1T663hcKnwgI19aVTpKmd6QJI0RE+CV549s1DfdB0cku4dGwRtkwiTY9MN39HhEqHv4ZEP6o1TiIwd8emO7eUXW4QPYJX3aFhEMw3b2pHGhWngFh4KMiRLiutqoeaEwQTp6uTg/jV+enV6fn8atD7BVTP2piQhBoUORfe8s/FlNZCUfXrlN33JvwVf/ObTab7l34vfev0KvvotXN0Ef5iD0w3b2uE2gyE/50Gr6qToh451R9pqZzh17dzEq+Ks1f/KONhzWcsIYjtnpguntb9d6NlJFw4tQRYdULAsK5b7NqwOgGrnnoNktI7jfu0WrlWk1oxCGYhdrRCTRZCZ9CQt+IB/6rh8CEAaHz4L+6nS0Im6e8g912ASET8QRMdyMTbhdMeF8PCRuI6aYZKXDaB///EPGOc6zLIbQhC7HVA29f0wrjGQlPnQXiwoYBnW9E59Z/dessCJsPnGPVyr5EhK0WmO5+qxVoMo9Dtx4iekEFcOg2Q0Q3uH2M3YURXc4Nw/dRnJBGhNPdKGdTDjSZY+l1aEQnHGpXoREXkfV0hhBnHCe9dMuIUGTFXuZAk5mwf+U5juNFseTG9V9Fd8eVU9dpzqK7I6UaohMbcQhmoTa1Ao2BnObw4PQgKVIvsVfjg9NbXhvFQxcZMMVPwQf0Ao29vPS1W44IBYhgFmpfpzhcsUfYL5fLTERuoFnXCzTWCB+6lXIiHuEQTHdvq85CLWSJ8NytVCSMOASzUDt6gcYSYb9cKcsgDsFnVjVPbIfwFN3rKxEbN9iAqmSfmieXlBVC30fBGKRuGUmgAbNQ/ffr6+uq9X0gG4T9LvLQSiUyIo+wyy+75GWD8KaE4Px/KfEUBhptWSD85sfR0HxYsGGMxKGJ7u7iCUezClK5kor4Jf1o6Sqe8KZUohCpoYgQu0a6uwsnDHw0RES3i8iIrGjTNdLdXTRh5KMRoshPh0a6u4smvGsGbJGfloWZjZFAUzThu1kJ8ZVIQgZi7YfuWTAVSzhywzBTqjCMSCRvra6Z7u5iCe+CmSmEyPJTAtFMoCmWcI6m+UsVGGyS5I1MbYZmmi6LJDxaTPOHcNRQJEfi0Ex3d5GEv6I5cNKIbDftap2EUoGEL2dNHiIzAzfU3V0c4ZFbwglhZsNI3rqGuruLI7wO12wSxBIneYuGYcrisawKIzyYNQWIMNpEhIa6u4siHLtNijAleTO09bcowu/x0iIz2DAycN6io6oKIrx1mgRiBSIygk33VvUcHBVDOHarJCFuRRhswrFoZBYqUDGEpbCBgW/EMlELl2tGZqECFUL4xwkbGGhE1ozGglDtFHwVQXjpNlmEeB1FTvObKQ5XiiFEdFUxIllkGAs0RRA+OBgcgVhiIxoLNAUQHrrVhf3oeIoIS+RIDKKNsUCTP2HfqVarVdqK5B0jZItnbbrGHmaSO+FDOmHsp2BayligyZ3w3GtUE8QqSYjXUQljl9dGpa6cCftBZ1+CyB6JjPS0fPNSTq8W4g/bnAmfnAaPkM7AsfnTLls9jj5ZIjx3w97MmJCd2bD8NL2rD9sexd8NnSthP+o+FVkRCzaCtRpOm3S0AYy7Epcr4U3UmxkRViXyU/40v9CIPd78cZ6EE68eNdgCRPZQBJmNNCFuxB7nDpoj4ci3YETYYN4x2HVUBS8ypI3ImZvLkfAKERJ+2mRUilQtLOwlqvEQOc90y49wPtjYSAjhfZ/jp4z8VCnY9NiL4rkRjgb1BSFpRPZ9H4zEKNzU6BU3FmK825T9dIncCO99EzKNWOUiUjdFfi8Rk7DHXAfIi3COAKER42CDu2qJhcgNNkw/TYxYIOGRt7GxQRhRiIhnNnE1JUUY76dl5jU5Ed5vbNCI1QSRE0/TkzcBIttJcyKcd3DCuuRNUbxWk3JTLPJuEftoTJh+U4TpqTA/5RkRdkznTni9AcWOp5yhCJI3FT9ttXq8p9jkQXjQoQkpP6URsSKjTM4Qp+WnJ7xV/xwIoY+SiFQZVeL5KZGCpxEOua0pORBeb/AJGyShILXh9xLRhK0ia/y9DknITk85k+DMXqK0kdg64S8YGycckz6qEE85RUZ6fip6Zp1xwp80IMNPZVJwajmKTyhqJjZN+If2UW6wSR+JZSi+n56IlgAME7J8lDsUGQNRKz+FTyHKnfBnW0Qom7xBN5XxU+EFmyU86/AIOeW+MAOnF79xxAVmSrO0UcJDr+1LElFIWIoAhTPE6A9n8iIfwo12GqHsjEZSRqUWGbxZxDwIfR8VILLuGFXu8j7VEFbjDMXU9jeDhKGPKvgpp8gAwYbudSetmN4MbpCw05YhpCZtUoONcPo0fa3YIOFZGiI7sxEXw3D6lHFTHKY3NBgk7GsZMa3TRljudyUe3moy0uypIMqmp0JEmWZ3k4QaRpToYBDcFPllb06EK/MEMX0oCgm57fwYoVTDhtmsLQ2Qk4HTMxq8XScYolyftFnCiafsp5QRmU0aWDhdIEo28xuvLbLHU5YRWUWGZFORYcJzT24kiuIps1IsU9Onsp1vpmv83x1SA0IOLkbyxspsktxtgSjdnmmacLwnqYNQfxzJ5SjciD6i7AXbfjLkpcOaP2Vl4Pi0jfweYduEc4c5RZyWgSt09tkm/JNKSA3FYPZUYUONbcL7Onuen1VkJPd9lV1ftgmrnAyc46chYpf7IEaGLBP2XekZYjDzptQibZlw7Kq0ny4mbQRPC2XIMuHEgckbb60GL6O6arvaLBMeOHgGLtEuVe6q7fG2THjqyPUSxW5arswUH0RgmbBab6QhEreMsuCpxExZJvSU1moCR3VVtwfbJTzyGkS9nzZ9Onupeg67hIcDuhGcc9tfIKrvpbFLOB8orn276hu+7BKeOThhWmoz09iVaJfwUaEhLPgjXfYCZSLM/FssjdQVNyzYuDqPxspEqP5gZlx9T7aXCCHOtDa0ZSLc1nhgKtR4wOl54+xx09p1mY1Q/QnpmCZMwiqOGBO6h+lHZCgjYTYjHgyw6VNx8qZU9gJlI9R4zD3Uk8NYyWDnbqXSTHNncFbCTEZsyK1kIEC1shcoI6HOA7Zj9YNtNRhhg10p+ozNm/TjsZWVMIsRF83EUmvfM+1Hm2W2YYaReD6QXo5SLXuBshPqG3HOI6SHomrZC5SZUOMXJyKdDQQrw5gJlcteIJuEj8K1b8CoXvYC2SSU7mD4rn2KFauEfWrvEKcW1ih7gSwSYh3TAkSdshfIIuFkQBHWiXIf/anoniCURcIDSMgzYrWpVfYCWSR8wgh5u6OcrM9xsUhI7D1hZjb+36wPG7JH2MdNyEHULHuB7BGKNvHFfupolr1A9gjPqf1DtBGrTvYHYtkjnEvs4nMnmgcHskd4Ro5DGtG50jw2lD3CR0ZrH1Huuyae6G2PcMBqXsSM6Mw1D43JGmGfvY8PINbv9Y5MKDvh5o5IqjsVQTz1YNn7Xv7IxgmF4v8C84S92TQxIvpl00jopwGJQ0si5k3IPQ5jyzcwYr1Rv4bv3mQdWw4x46x+GiH/1/yeOISRn3qw7H3PPJEcYrYV0s0UxDV+GPopbgR3YNm7v8YmlPqd9YxrwNsp4n7LaH+NAPEnfPN77vHzJ9TWkSck9Iz8EBKSLcLzjmjDgnOW+QSxbBHOBYQ+orFn7GoSrq5m7lFYbMdkE3qGftoi0D66XhXCRRjLivgo2FgzeMp4cKAoVVD/SFbEjoDQQNkbSetqo29lXV3JQUaCfd8eVvZqnAZIz+Oi70VdyTHG/G18gyt4sh2N0wBp+hsjDZZTcogJf0OtNzJxKiCdAaV5XpDC7XH303awsveFHUBNRLha/MQlxMre9NQ+J0AfcVNdL0Ck+d1usxGxsnd/VeM0hDLfufUE9rXjhJ2D9A//J3R00W4zGa/TP/vf0DmH0DP2qxa2Ne8wCTt/bF+YMZ0RhBGi7esyp/s2KeSjmVfSno88FmHHYNlrW6MLitBHHBgse21rzCBsmyx7rWtCBhpfHYNlr33t0YQbnSXyUTzvjnzUwGrvM9JvCrDzaPuajKrPMKGZ329+LiLzbh/QyGrv8xGZd7fbZlZ7n4/IvLvtGfrp32cjMu/u7Nm+ItMi8+7fti/IuC5wG14sTdkbazT/DSCXqOyFGp914oBq+1ryUn/yiAx5sURlL6WjvfbFxRKVvUwdPi1VSfFXf2Vc/weEbnU5WUJHpgAAAABJRU5ErkJggg==;" parent="1" vertex="1">
          <mxGeometry x="523.7099999999999" y="159.5" width="34.25" height="34.25" as="geometry" />
        </mxCell>
        <mxCell id="GIMZbPj-_7auRT-JxN02-20" value="" style="rounded=0;whiteSpace=wrap;html=1;" parent="1" vertex="1">
          <mxGeometry x="80" y="94" width="80" height="120" as="geometry" />
        </mxCell>
        <mxCell id="GIMZbPj-_7auRT-JxN02-21" value="Guest User" style="shape=umlActor;verticalLabelPosition=bottom;verticalAlign=top;html=1;outlineConnect=0;" parent="1" vertex="1">
          <mxGeometry x="100" y="104.5" width="40" height="80" as="geometry" />
        </mxCell>
        <mxCell id="GIMZbPj-_7auRT-JxN02-22" value="" style="rounded=0;whiteSpace=wrap;html=1;fontSize=16;align=center;" parent="1" vertex="1">
          <mxGeometry x="240.41000000000003" y="118.5" width="120" height="80" as="geometry" />
        </mxCell>
        <mxCell id="GIMZbPj-_7auRT-JxN02-23" value="Web Browser" style="text;html=1;strokeColor=none;fillColor=none;align=center;verticalAlign=middle;whiteSpace=wrap;rounded=0;fontSize=16;" parent="1" vertex="1">
          <mxGeometry x="240.40999999999997" y="118.5" width="120" height="40" as="geometry" />
        </mxCell>
        <mxCell id="GIMZbPj-_7auRT-JxN02-24" value="" style="endArrow=none;html=1;rounded=0;exitX=1.01;exitY=0.533;exitDx=0;exitDy=0;exitPerimeter=0;entryX=0;entryY=1;entryDx=0;entryDy=0;endFill=0;" parent="1" source="GIMZbPj-_7auRT-JxN02-20" target="GIMZbPj-_7auRT-JxN02-23" edge="1">
          <mxGeometry width="50" height="50" relative="1" as="geometry">
            <mxPoint x="500" y="148.5" as="sourcePoint" />
            <mxPoint x="550" y="98.5" as="targetPoint" />
          </mxGeometry>
        </mxCell>
        <mxCell id="GIMZbPj-_7auRT-JxN02-27" style="edgeStyle=orthogonalEdgeStyle;rounded=0;orthogonalLoop=1;jettySize=auto;html=1;exitX=1;exitY=0.75;exitDx=0;exitDy=0;endArrow=none;endFill=0;" parent="1" source="GIMZbPj-_7auRT-JxN02-25" edge="1">
          <mxGeometry relative="1" as="geometry">
            <mxPoint x="480" y="163" as="targetPoint" />
          </mxGeometry>
        </mxCell>
        <mxCell id="GIMZbPj-_7auRT-JxN02-25" value="&lt;font style=&quot;font-size: 10px;&quot;&gt;https://provar.se&lt;/font&gt;" style="text;html=1;strokeColor=none;fillColor=none;align=center;verticalAlign=middle;whiteSpace=wrap;rounded=0;fontSize=16;" parent="1" vertex="1">
          <mxGeometry x="240" y="148.5" width="120" height="20" as="geometry" />
        </mxCell>
        <mxCell id="wh0QruQdLsagStX_qxeE-6" value="" style="rounded=0;whiteSpace=wrap;html=1;fillColor=none;strokeColor=#808080;dashed=1;movable=1;resizable=1;rotatable=1;deletable=1;editable=1;locked=0;connectable=1;" vertex="1" parent="1">
          <mxGeometry x="920" y="639" width="399.17" height="159" as="geometry" />
        </mxCell>
        <mxCell id="wh0QruQdLsagStX_qxeE-8" value="" style="rounded=0;whiteSpace=wrap;html=1;fontSize=16;align=center;" vertex="1" parent="1">
          <mxGeometry x="960" y="678.5" width="120" height="80" as="geometry" />
        </mxCell>
        <mxCell id="wh0QruQdLsagStX_qxeE-9" value="&lt;font style=&quot;font-size: 16px;&quot;&gt;Assistant&lt;/font&gt;" style="text;html=1;strokeColor=none;fillColor=none;align=center;verticalAlign=middle;whiteSpace=wrap;rounded=0;fontSize=16;" vertex="1" parent="1">
          <mxGeometry x="960" y="678.5" width="120" height="40" as="geometry" />
        </mxCell>
        <mxCell id="wh0QruQdLsagStX_qxeE-11" value="" style="shape=image;verticalLabelPosition=bottom;labelBackgroundColor=default;verticalAlign=top;aspect=fixed;imageAspect=0;image=data:image/png,iVBORw0KGgoAAAANSUhEUgAAAgAAAACLCAQAAAC9melDAAAABGdBTUEAALGPC/xhBQAAACBjSFJNAAB6JgAAgIQAAPoAAACA6AAAdTAAAOpgAAA6mAAAF3CculE8AAAAAmJLR0QA/4ePzL8AACE6SURBVHja7Z15gE5VH8c/M5YRMxpSiTaUIUuotKnsSa/2lNcWWkRFi1dIWSqK3hKSCEklbdJClEhJRans0UsqCdnGvjzvH5PMM/esd3lmhvO9/z3Pvefce8/9fc85vzWJxCGZDM6hJuU5lbIUJo1ktpLJLtawjGUs5it24+DgcIShOC15lY3ENMdOPqIbZ7gX5uBwpKABr7BTK/rZj4PMog1F3atzcMjPSKY5C6xEP/uxke4Ucy/RwSF/om4A4T90rKcrBd2rdHDIXyjFa4GF/9DxLTXcC3VwyD9oxh+hiX+MGHvp59YBDg75AQXow4FQxT/rmE4J93IdHPI2UpkWgfBnHSuo7F6wg0O4SAp15/8BtTXnZPIZ37GclWxlJ3spQilOoTzncCGnaq79i4Z854bMwSEv4jh+VM7gmxhOHeVevjI9WKIxDZ6d7fxjKU95ypPuXr6DQ+4ija8UgruMdhQ2XJHU5X1FSxvowjBm8St74lyH1jGHF+nCuU5d6OCQaCTzoVRk/6AtyZbtXcQ837qCTN6ktVsVODgkDv2l4jjKpygmczeZAVSGO3mJi93AODhEjyYcFArhNloEareKRiOgPz7ncjc8Dg5RIp1fhcL3G9UCtlyJGSGYD2dT3Q2Sg0NUGCsUu5WcHpBWnmZvSB4E+3jGxRY6OESB2sLl/2+UC9BmMm1YH7Ib0VJqucFycAgXScwRCNv2QIvuuiyMxJNwD+3dgDk4hIkmQlFr5bu903kjMlfiGDH+a22QdHBwkGKmQMjG+WyrGI+yy0CIt/A2D9KMDI77+8o0qtCUnkxhk/bqlynghs3BIQycI/TUO87XVqKVxJYQb1YcxaVKT7+CNGAEW5WtvO4owMEhDAwTiNetPto5j7la4V9HF1IN20vjbtYq2hrhhs7BISgKC7L8rrL2xD+Jsdr8AVt50NqMV5SebJO2+KAbPgcH/6hMZ6YKBOsOq1ZS6K4Q0qzjAGMo7fMuyzFb2mojN4gODvaoxtP8Jp2pj7Fo6RpWGrjynhvobpN5WOKm/AcnucF0cDBHIdozXymuo43bqmrg5LuWFqGkK7lRUpVgihtSBwczFOQWVmlFtqFRWyUZyj5tLF/fEJ13G0rMize4gXU42mEyx9bhBYN8fLspyS4tkdxBP0pqzppEN34J9SmbMIVCnl9/pyI7cumtn0JFMqhIKmkUpwDb2Ukma1nBcla4CokOeYUAUhlAJyP/uVnU087ET1NVc853dGFOBM/ZieGCX7vzZILfd3kaUZ96HK84Zx9fM5OZfM5+94EeYSjGU0qZe5plofSTIc2GsZtXzZupbqCoO+xmq0IF3jGoA3RbhK66Y4U5BosnbOiL04YZEpWkLIviSGo6mTmi0FYz5k+H1E9HRV5NY9zAdovP9XZpO4V5jN3aUJ3BHBvpq09jjaDf3gkZ9hMY7Du/kX5l5ZB/MEtbETMlrxDAQ1azVYwGknYK8an22vepmICXf4UwcDnqJKLHMogdAYOYZnG+k50jAKcbyNS1eYMA+lh/pDKL/X3aSP0mVo9Wk4GM42FfGQfeE/T/r0iHvCm/hBLHeJCRpDkJyufoazDS7+YFAlCL//d0FHjwVZK0paoR/BddBdp5OU5jUrY8P0Osy4XVEDDw2xFuOl4JNZh5NXWcDOVjJBmY0mPs8+35GhoBdFTW6r0CQBBxd7qktY2SlvYzglJW+tN+HpeejdxpGdv3oaD0aDQz6xmaQin+kpt1d3KUb9HAcJTvz10CqBNXciN+vr71HxOGOQFsEbY10yprUBL/lsb3/UB9i5aaCVpoFslg/xVRUpORLpw5n2KC4Qgvyk0COEVa2vvjuKVJEAL4meutHuZcvtC8sreMNQIFBNkGh4Q+1I0l7sfhHK+76kf5EMUtVMHn5R4BTJdc9niOeccvAWynJ0UsHqQ0Y4zKje/iMcN8AaM91y4OXfx3RSj+jgLyJ263GN/ncosA2kiCZzt6zvRHADMoY/EQKfxHGy4cb9JrbeDafJ1AG1EkxIGuEaiikekx1ElUPsNci9HdYhVXGxoBHM8GoQGqjeBccwLIfuZtFo9wFT/5EIx5Wov5SYKrwisdUtrY7LeEp7mF8ziNEqRTmkpcTQ+mGa8ebnUylY9Q0dKr5ubcIIARFjrJaAmginQrMlOT8S/GQV7SrDO8InpTSMNcyIjn/2QgFaRtHENro1b2cJGTq3yDgZYT2bTEE8CZwko84wzEOlwCKMmzknDhhdQFTmSUViuwnR6KZb03l3HPkIb5Ye3AbucRI11FI77TtvWTq3eUT1BAmaNSvO0+JdEEMEFokCiaUAIoSCeJ38AG7simhqwlLEiSMz/hdZJeXvScOzCUYa4uNaAeOr5UzPzej6a7tr1nnGzlCzT1sZntmVgCKCOY/w8oFplREEA9vpe4v4wUuAw143/alyj2NnjKc97wEAY5mW+08ZK2Fvw6UjeqQyN0oZOufIBJ0hH8TPrPikD5sKwJoL9l+uywCaA8b0tueKrUybgofbS21X0M91Qq8Hpkjw9hkFtH4t9VSaNU/MJJV55HSWks7AqqKsa2TuIIIFmQ6HOH0ic5TAJI5XGJ7ns5V2oe9BQmavWrm7g7zm4eBQEU1vh5P+K75TM1hVKbOQnL47hbucyXrxtfTBwBXCY4cZCyg7AIIIk2kizDW7ifwoYL5QXazcDibInAB3v+HRZ4kO/SFCQLgkuUORR/cPUO8zgWKBV9nRQK49ToCSBrZrzR08CBCBxkvbiAIdQW/rOHq/jMsJXPOY/2PMqJinPOYjpTuJ+VIIgh3BbwOZK4R/HvSjoFan0O/egn/bcajQMbjQ6tYipSidIUI50tZLKJpSxjT4TjX4jyVOYESlCUA+xkK7+wgjUcTMC3l0IVzuI40kghk79YxWLWR9BPVWlh+k9YC7zCYInbTyrX81LUryGLABp7fp/GrxH3XIaBtJIqOlL4mGH0Y4tRWwcZzRs8xD3KNcNVNOEZHuM0wSolGC7nTOl/MVqzPWD7j3OVokLCnVICuE5yX+tzmHfL0IrGXCwwnR5gPlOZwnehjn0SF9GE+tQWujRnMoeZvMMqy1Yv5FLJP4PiKOUkWvIvLhb0vYKpvMrXoT5rB+k/L/397b0rdfu5JXoCACgrWCg011xjvgXYJtgCFKGnUbqxP+OMf3pUFKb8iD9+F8TpBU0QPkXR35hQxuhChaZjv/TdT5ZcsSDbOTV5R5umPcY8WoUUhViSHqwwSoHyKTdabW96StsqlE2j8rKBsbZJaLJViD+lZXQOmdgbK95BBZ/9WukAbhLoztMjJIDr+dnCHvodl1nOxkusba5VAg3y8eyXtrzbKvpBhTcU9/+QTwIoxQQLF9UfBStFOxxLX60nZ07nrytCI4AiPKEV/sPxpceHMmrXGpTRSRZmq8w6+iaCAB71YVzySwDVBX54WVz3Gg0l/8WYJG1dzLpdrKLx9xoqG2Vor2j7hdDmkhoKUf3GFwE0ZJ01VY4K4H14hc/0aJO0lSRMCKAiC616/UW6dw9nbXiJUgIP18cqED0BvGOZ4ts/AXwvmSvn/2PzvE6yOthJf4pZvIBSjFDMyzlnmWCYrGi7MuHhU8VSsaw1AdxqsPAXBzGV96VgHBkg9vFno/eoIoCLNC5VYjvUBQFH7EShe33WE2XXfpVTkHuD6AnAm7qqQ0QEIC7T2SFupyfXD6ylpZV31NnSFUX8MTjQIB+jcEYKV53UTvEMHS0J4BbL6LTsxzpqWG+S5gQQ/xgxNhtsBHsqXGq2++p1E2cEGrEHpC0/nOPM2dIzJ0RPAH/68EEKhwD2MEhYmqMML0k+0C8s6wWb6BuC7WwvVbTcJVQCKK7IM/SaFQFsN14dyT6iDCvxDyM74g5prRs9AWzx3et3Vklrc+IH6YqtvEffL6+TmR4tARQUxNZVTAgBvKcwnsH5zJO4T4yxyptahF7KFB27AyZf6KZouwLh4iNF6JPt5iTY8bPS6yI7SkgiPPzQTjmfBBDkeMj3aJ0nbfNTz7nFFHJye7QEkCo46bjICWAJlxtYi1tLvAS30d2qgkpZXlYsee8MJJTyQI//hW6wVZHNCQklgBizjEx0yXwQYp/fKEc9GgLINKa6nHhO2uYtgrPHKMySkRJAuuCk4iESwHbBfq67sd69KH0kcQIrBf6L6qX6cmnAUIMAQinfYowNnQBqKz7UpgkmgBgPGNzx4yH3OSDhBOA3WLyI1BKVKUxEf0moqmQLAighOOn4yFYAttUAsnSkb0keZrqVBb8o4yTtbOAknyJZWJGcpEvoBHCMQnN/T0AC+I2JPEMP7qM34/jeQEm4U+BTmXMbt1/TwkQ6UoOTSCGdDC6jL18pe96jEIaoCGCDr3p9N0vbGye5YmmIFGSlA/C+8NMiWgHM5Wyfn349yfy9j2cNrcRZuEciQtN8Rl+fofhw6hI+5E5OT/kmgN08w7me5y9DD37XZidWk+Mi5dK6t2QqOE+aEC5GjA8DE8AynuYGLqY6dWnJaGEmzOARl3J9TT3r+19nnQXaygrg1ZFeHBEBBElk+aTikTpZvKDrJbbZjr7uqqHisykbAQFMVviu+SMAVU2FVAZp0q+pnGU6K66bqzGwdVGsHc4JQABfCnRPhemlqeMwwnqcykrvf7VUd1JW8cxNoyQA79zaIl8RQJabqvk+/mrhKmCTgerTi/YKD/0ocvcPl/Y33xcB6F1Nr1IKx6uKDZd8/fCBQSL2m6RbgUk+CeAAj0iF73yluXqJ9Tj1krbVT3HVNOlVb0RJAB8KyoDkNwKIEeNtYx+1TiHxPHRV7KmjQE9FilB7ArjbqM/LFZqHfZxsPf/PNNxTPyXVA5TyQQAHNdNaY4Xu4YB1ZP4yaVsZStKLWT5zYAJIBsGncwF5G+tYKfj1WpYwwGionhMKewcfJcfl7slbInnyrYoZ1xYjDMuLfMR/pP8VpKXknzskv/9Fa8McAz35XaJb8JM1v5fEWeoQpis0GslKjxUv6kjF/HOWK657h01SfUqLaEQpGfheYG4qkqcJYC1V6C5I45HCg6ygrYFC736WeX4r5KP2rtyJaHckT77LBxWJsYZuxucOUYSHiQngQqpJzr/XeG20R6jYzKJ6W8w30KSrtkOnWvXWTvqPOr5/LxN9tBmYAOYKPqaGeXwNsJcnyWCsIHfMSYxjnnYNs4u2HPD8eot1EGjRPEMAtiuAQewwPvegwuZfTbhukmVYWKnQGngxgZhkhrWlu/9IWopftsvTntjoh4pJPVR28abmWrnvSE3rCAxjAlguUAxcp7nOm+PmjISTwB+053wBfUFt5jJeo4X/WsDGKbS1vIcDyjcbPgr4uBMRNkut0WLMk4YcI5wsZIazx9hv0euf/CBZEF9sdfdLBc63IkwNhV5vEDr6ALyt3RguEKzHD6FtVAQQEzx4c00IwreClzfMyiIfDuZTh5aC9GVJtGaRxt34YXYK9AB22OljcxAE8lZ3WLUz1vJ81dxU3/NLBcmeebfQWKmCbE62i9V/z/C8H6T/2GSM8LsB0J3T2pdDkgEBwBTBMqaDZgF5wKMO6sxP3JXwwtUxXqUS/QWL43TeUCYS+U3wsitJ9655nQB2WrXzsXXPE6WqO69dXrYBm26dHXGd5He75fBMw/OWSf8xdxMrJ81M+JvRfYxnr3Qb0jT8DypLXKeR6dGe38sIxUc1h9t5zsNIJRlKR7rGfV5JCSCBHTzMiwzy7L3SuFOp2BtGR8/9XcWPoRDA8ZE86QmhrAAOCDdOuk3DQknl5Qqkkhn3iyxkuwozLHuVEXhFq1bWGp63NYQRaif94scbbdM28SHXSNt+JyoRekFgMeyluaYSUyW2xsnZNAKZEfgBfCU5p4vnTnQz3ZyAtXZuVliei0UwTuOkvc0WnD1ZGuXuB3InpHM964tYxMefgvuT+wGY2tBLBq7rlKQIDqtk2MZVCq8L05gVKz+ALALworsmJmAZV9CMFYJ/rmYRA6WqkOjws+cX3T28JVjQ2phAVyv+OzmCJ5S3ucailV989b3A+K5Oi3ykS1nth01n9n2B76u+1JdknmKDEY8PpRsfuddFQB0AzBfoSdMYo13Av081uglecArdWUG7PF+1ZrLgzs8JiQCqRHC/VaX/2GQf2Oyr72WGBJAcsLS12Uybmie/p2AKwCzs5xUf7QckAOgv5DO9s8heBpPBaIFFvjRj+Cpgxt2osVqwP7SJWFyv0AKcHfrdnqBITmGzAtjkq/ct0n/ireTFo9BWe3BMHvyaiktdlHZrIifjMVr6z1mSSlq+cVhn/ymfCAJqHmcJ7xuIwW2M4Jm4VMdqdVDewVee+crG7TPGUumK4ZzQ7/U8xX+LLdrxVwptq6EwJkY08yIB3Cz1F9ho6WW6TZqUp124qWazG+26CFIgFuBVLjdKSvQtl9GcJy2dJnMfizxea3YuTV9LBf1SCoWwq4xfkcmwxyq5ecxX71sMhbFoQsYtKQ9+S+0Um6TuIfXRgvsU/qABtgCwmGcFZ6TxkWGl8hivU5k+lhbp3MYawULbjgBkSAs9qEruoP19pEU8D00GZoQS4+hERYmZNFwcy9XR6AAAegsjn9OYpq0VeAg76UslJko+gva+98X1pbbRoPB6EaaHRABwfcgfWHXFRib62fNY6T+7cnwDRyfaJ2hVEqoisGCOgWzFPIHarhgTqUVvwwXtWlownCECd80LWcAoeouSEihQnsE+4r9MsUtAeDZYwmqpu0oLHrDyfVejteK/j0ISZX9XxYu8zCUpU+Frb4/teUz8CyjHJ9x14Kk+DblGkJco+EGphPLOMm0ktec2WyT1LibMCiyb75oZn3kYtQOn8hiqcFgJb91SSFFZL1OiEpM5AvkrOn2pYV2iJEke5x0RG4VNqgOrkRbAEahp5M5P5i56PhyBDmMcT0sarcZchlDCWNE0ngwGCzyb0xnIQoMSzEm0ZQWPRJybwPtxHLBs4V3Ffz1Cu89/K6zr0y3VQsf5uoOqijVf/MiLTZJFrUq85je0S2BfHcLbbIg4eZRiw3APK7jTuGLpNrpRVWhGrMRU3lN6dF/APMaFVlxbDm8Eo22c3GzFlqZ2SJkVCiq1yG9btuZPEGsZ61FWS86rcsSKf0lfmYP9opyhWt4nATRSXlGK5/hWmtrYi59oRhOWCv75Fz8yWLizLMt45obt8iCBN2hnvWUL+5QlQIYEqi53CJ0V+fA3adNM5MRZvkKVZD4d+z1prhZJzqx7xBJAy4Q4P0Ww3hARgL5YZnVm8qZFBr2POJuuAgfUwtzPcm7NUR24F8tpnTA7b0ZgAoCRAj/Iw8J2d+B7LEMfxb9jrLMPJVkm1Mi6B9kWYJmnf5nm5cY8ab3PbxsAgOZhuUInC/bEZjx9PUt41DjibR9DqMjzgv31iYzim398CGWt7hSuIcKAN/5/pXUbq5iu+PfxgMmcknlZYZo8yPM+2rSPLG8t3fh5cwXNk5x5SoJWdYlGNWomuMdiYZmYvQRwprFQZ83VrYxZfSN3UkuYnKkWs5lII8m6IsZEKhlndbF9fq9lY4mPdvor/kthknU5tOzop/AAhFcEMZAmS1bbO5InpPrE88ta6Tu0L5dWmkX0SUB8YRC0P5LWHDdYGyW+tOT16xUx06KCF1kKjyciMQOKSjj7c1aaonyKeb6zA3RWtrtHuRGbHFrZ6ysV+fZFxdoflZ5tO1f2/Dsz/wzaaPz/c8sMWJg/pdc1oHygo5XivauKz1sVBolHb88lawTFw3LezDir8ppF6BWXKER2/EGHf9Yo0RDAI54r/vJpra6qKaI1z5firYum1WeVV6sIYLPFrJrCYmk74gQqNaTnT7fSA6TzR9zH+6yCQHKLAK61qtZkhwKs9VVjKAABeHPODOVERms+xBjbeNBKE1qWlzV1YJ+Mi4iKggCSWCnIZuQXz2re0FKFJV0sdkM1La7TWPTVlYHmGJtzByla6SS5Zl4oa49hgusX0kW4gcktApgSsPKSGgOlra9VjF8AAvB+NPcCcA6fa2fslZaeb62lFPCeJyg3CgKoZ/FBmyhmVmnezy66GidNrcX32vd9rfVYxh/DjVY7HZQFvmUU1EpRaMvUZt5O+n2MyTMEcKKk2GyMPaHkhayomCYbRkEAMz2XtM0mYP/TfpQzFSEr8eLSh93CFpZzpeD8KAjgPcHHeVKAwaqnXNMcWgdcp515z+Al7Yorpil1ZUIAMV7Xrtq6Ku/kOel1hfhJetVebjdSO+6VFl6tmGcI4AFFrcpw8KW0h1eiIIBvPJdkz7VblL6aUsox9mkrBCTTIW5vl30H3kUyXOETQG0hfQVDHyPF5hoe4Rzh7HsibfjIQPhjLDOIWjQpD75QYWM4VdPCPqUi6ibltc8r7RAleE5x7YQ8pAP4QXpNWGG7tytWlOmJIIAbPJ/F69qZbhOdpYvdOsyX8PoIxUcRNgEk8YngHoKWYEziLYvMtjMYyoN05na68SiTWGywgsg6tiirzNoQQIwYH9Iix6dUkEsYLQnqOXwM07yLOZpneEjo6l2WHmxUXLdbkl83NwigtkLQwkqGV5wd0l7uCJ8APlVsAbI/+JcGc9QVgsEdL/nIP9WY38ImAFHU4+8hDFoqCyKPBtsreLNBCCCrzflM4QWGMo45gvLvIpLXBRVV0Np6DrKAAXTmGhpyNR14hi/Yr7nmP3nICiBfpwwJ0TQ/QWGCD50A3vVc0lWyjL+N9dqP5J1si8RjeETCZT8b+DWFSwCnsElwHz1DGa50vo5Y/E2zI0yO9D7+bXAHt4Xe6+dSDUriCaAIf0mvqBUiATRUvI/KwQjAuw/1pn4Uu5ocZBQVeUqTJOQaFjOANJK4iWX0EeSL28FDnGVdMy4YCjNJoKX4U2NVN8UWGitKaQbFXppHVx/GalYyqfM7iqGh9rpJWNU5t3CNNDh+saB6pn/MVOR8viVY014CWOX5RZ4ldysPUI0PlD2k8CDL+YqJgnShMSaQwWMRldKW701HCrP1DchR4CoIBTQyyKXsBxu4PICnQnhYwJ2GZ94rqDzpF9toIvg+cw9yd9yxofZzkPEKW0nI1Ti9utsNWt+tK1jqYzH3lVXSzPC2AIMk+Y4Kh0wz3Y20+TbHQosITNUWYKPWkqPz9zjR4i4K8nIoT7+Ty5T9JHoLUFaqrdgXyJgsQjmFevjKcHUA1QUX6UsxFuJeNlsM5u+0tXIJPSvO3OKfAJIl/nr7I8no2lSRxsv22M9/rRNuywhgAY0kPhgmx2Lryj8FGBL4+X/ThjAnmgB6Sc/+IIJvaba0tzfDJYAUwezQ1egWj2ekVoObZcYZYBXNXIJn2RdKTsBUJknu6b8RLRKLMtDoneiOH3wRlJwAoLGRpt97zDBOChePm9kW4PlnCUOOcpcAlknPbh7Bl9RO4TR/fJgEANONKs+KUYNZmqF8m/JWc0cngU3YHwFUY4nknr6NtM5MVcYH2gys5naf+zwVAUAVA2fjnPaHBwMk9jyZt309/1Z6Gj1/YgngEoV/QxRfUzEFgd4TLgF0EzjIVrC41RtZLen8R0HxMRXqS/ys7AkghX7skTrkRB9tXoPXtG414l3/rQFSiqkJAArTxygq81B8Rkbg99CIzywpZ5hxoZbEEsCL0nNHRPQNjZX2+G24BCAK5RxkdavH0NvzYW1U+AaKUF7hU/eFFQEUpD1rFO6sdROkM06nI5/n2MzEFLFezwTMJKQnAIDSDFb63WUtMl/lotDeQx3GGm0/ltHLStuQSAJQzccXRPT9XKZ4VzX8EoBYEbfE416wlQqWNWVP5gla/N3+fp7nEf4yvjaVntyrSAf+Cq0ka49JnieZwJ2Kz2g/LT3XRIviXEZ9alJZOLPtZgVLmM1MVoTQ12SJP/q3OeoZpnAll9OA8p7v4Re+YCpTLUu5mEwRDajLpVQVLJfX8Q3fMMOy2hGcLq3q+IlhubIC0mS3P+WwxKdLU6TGBBmSwrIr1ZcqzpfnSM1eQ5p2f2e8t4u4wQcEM/6TPsobVqU5ZfiZV6WJokWP2ZoBmnTgTSU1ZjooCivnDfGP/4jKcRxpFCOFbWwjk9/4RZFeNDoCODyvZVCaVNLZynY2sjTy+jtJnEw5SlCMomxmM5tZxx845DJEMc67QtgB6nG+IpHEoWOk9Or7rfaXuzxhTkcaTLYADg7CRbYog0y0pZ3KSAOFsiey6qzwHxhhIf5rrQqdOQJwOKpQUais6hZZf0XoyXatK8xITY6VmRYhJaWPglF0BODgG2OEItgokr5M8gTP0urEk4URfqIilfcbZ8NzBOBwlOJ0od16k6CQRjBUN5i3V8dlJZKhlpH4f2zl0+AIwOGohdjXeX2IJR5L8ZzWUTaT3oaeVd21wj83ohWMIwCHIxCFWSTxnLs4hNYLcY8incKhfDGvcLJxi98p9QcfGmbRcQTg4PA3akrcV3cHTUNAY6lf/uHjGyvvs6qKQJoelD0qx88RgENAdJKKlf96d2dqymhllbxoZ2l0HCloZRwtQ4/MdgTgcFRhrKJw1x3WUWrHMUgalHN4ffEEaZbtniyIb//6qB87RwAOIezVpyuEdQm3GBcEO4H+BjHh70o9ulV4QdDSXY4AHAE4BEdx5mry2w/mIuWCvSjNeFM788dY5FNLX1sQb79Dm7TaEYCDgxHSFAmJDu/a36IbTalCSZKBwpSmKs3pzwyjSPhN3O0z7UVhvrUuWuEIwMHBAkUtKt7YH/sYHmC+HiJssZwbNEcADuEhib7Ghavsjo8DeRfeLLyr592AOQJwCBsN+TVk4f+FNoHuqJ4wu+22oyLUxxGAQ8JRitdCE/7t9FBk/THBZZLUUve5gXIE4BAV6vFjCOL/sibrjx7XSpSLXxwlsX4ODrmEZFqwOCABzA5EAAXoL0m1nWlQxsTBwSEwCTRlsnGOW7Enod+UXGdKqw8cjKQog4ODgxCluYNpAcpMvScpbyxHKn0VfgVPuCFxcEg0UriYBxjHl6yPM8plspJpPEl3hcjuZzw1DfspwUNsUNDJhIizFjo4OGiRTjnKUiKulGVTzSrhS+5R1udJ4xre0LTxXoAaOg4ORyWSEtZTM97UFuBewTwW8jNr2cJOilKcEmSQwfmcp3UTfp027HUD6uCQV1FXuXwPdgx1i38Hh7yOU5gfgfDv5lb3ah0c8gNSGR1yRMFiSZkrBweHPImGBlUATItHDzBOR+Lg4JBHUMwoN5DumJKQaoUODg4RoBRPssOn6B/kfS5xr9DBIX+jBHcJs/mojg0Moap7dQ4ORwpq8DCfCQqS5zxWMZwrtb4EDg4OxkjKM3eSyoVUphIZlKEYqaSziz1sZh1rWMUCFvCrGy4Hh3DxfzrOdawTv4qaAAAAJXRFWHRkYXRlOmNyZWF0ZQAyMDIzLTA3LTMxVDA2OjU2OjE5KzAwOjAwB7bMeQAAACV0RVh0ZGF0ZTptb2RpZnkAMjAyMy0wNy0zMVQwNjo1NjoxOSswMDowMHbrdMUAAAAASUVORK5CYII=;" vertex="1" parent="1">
          <mxGeometry x="1160" y="660" width="147.34" height="40" as="geometry" />
        </mxCell>
        <mxCell id="wh0QruQdLsagStX_qxeE-12" value="" style="shape=image;verticalLabelPosition=bottom;labelBackgroundColor=default;verticalAlign=top;aspect=fixed;imageAspect=0;image=data:image/png,iVBORw0KGgoAAAANSUhEUgAAAgAAAACLCAQAAAC9melDAAAABGdBTUEAALGPC/xhBQAAACBjSFJNAAB6JgAAgIQAAPoAAACA6AAAdTAAAOpgAAA6mAAAF3CculE8AAAAAmJLR0QA/4ePzL8AACE6SURBVHja7Z15gE5VH8c/M5YRMxpSiTaUIUuotKnsSa/2lNcWWkRFi1dIWSqK3hKSCEklbdJClEhJRans0UsqCdnGvjzvH5PMM/esd3lmhvO9/z3Pvefce8/9fc85vzWJxCGZDM6hJuU5lbIUJo1ktpLJLtawjGUs5it24+DgcIShOC15lY3ENMdOPqIbZ7gX5uBwpKABr7BTK/rZj4PMog1F3atzcMjPSKY5C6xEP/uxke4Ucy/RwSF/om4A4T90rKcrBd2rdHDIXyjFa4GF/9DxLTXcC3VwyD9oxh+hiX+MGHvp59YBDg75AQXow4FQxT/rmE4J93IdHPI2UpkWgfBnHSuo7F6wg0O4SAp15/8BtTXnZPIZ37GclWxlJ3spQilOoTzncCGnaq79i4Z854bMwSEv4jh+VM7gmxhOHeVevjI9WKIxDZ6d7fxjKU95ypPuXr6DQ+4ija8UgruMdhQ2XJHU5X1FSxvowjBm8St74lyH1jGHF+nCuU5d6OCQaCTzoVRk/6AtyZbtXcQ837qCTN6ktVsVODgkDv2l4jjKpygmczeZAVSGO3mJi93AODhEjyYcFArhNloEareKRiOgPz7ncjc8Dg5RIp1fhcL3G9UCtlyJGSGYD2dT3Q2Sg0NUGCsUu5WcHpBWnmZvSB4E+3jGxRY6OESB2sLl/2+UC9BmMm1YH7Ib0VJqucFycAgXScwRCNv2QIvuuiyMxJNwD+3dgDk4hIkmQlFr5bu903kjMlfiGDH+a22QdHBwkGKmQMjG+WyrGI+yy0CIt/A2D9KMDI77+8o0qtCUnkxhk/bqlynghs3BIQycI/TUO87XVqKVxJYQb1YcxaVKT7+CNGAEW5WtvO4owMEhDAwTiNetPto5j7la4V9HF1IN20vjbtYq2hrhhs7BISgKC7L8rrL2xD+Jsdr8AVt50NqMV5SebJO2+KAbPgcH/6hMZ6YKBOsOq1ZS6K4Q0qzjAGMo7fMuyzFb2mojN4gODvaoxtP8Jp2pj7Fo6RpWGrjynhvobpN5WOKm/AcnucF0cDBHIdozXymuo43bqmrg5LuWFqGkK7lRUpVgihtSBwczFOQWVmlFtqFRWyUZyj5tLF/fEJ13G0rMize4gXU42mEyx9bhBYN8fLspyS4tkdxBP0pqzppEN34J9SmbMIVCnl9/pyI7cumtn0JFMqhIKmkUpwDb2Ukma1nBcla4CokOeYUAUhlAJyP/uVnU087ET1NVc853dGFOBM/ZieGCX7vzZILfd3kaUZ96HK84Zx9fM5OZfM5+94EeYSjGU0qZe5plofSTIc2GsZtXzZupbqCoO+xmq0IF3jGoA3RbhK66Y4U5BosnbOiL04YZEpWkLIviSGo6mTmi0FYz5k+H1E9HRV5NY9zAdovP9XZpO4V5jN3aUJ3BHBvpq09jjaDf3gkZ9hMY7Du/kX5l5ZB/MEtbETMlrxDAQ1azVYwGknYK8an22vepmICXf4UwcDnqJKLHMogdAYOYZnG+k50jAKcbyNS1eYMA+lh/pDKL/X3aSP0mVo9Wk4GM42FfGQfeE/T/r0iHvCm/hBLHeJCRpDkJyufoazDS7+YFAlCL//d0FHjwVZK0paoR/BddBdp5OU5jUrY8P0Osy4XVEDDw2xFuOl4JNZh5NXWcDOVjJBmY0mPs8+35GhoBdFTW6r0CQBBxd7qktY2SlvYzglJW+tN+HpeejdxpGdv3oaD0aDQz6xmaQin+kpt1d3KUb9HAcJTvz10CqBNXciN+vr71HxOGOQFsEbY10yprUBL/lsb3/UB9i5aaCVpoFslg/xVRUpORLpw5n2KC4Qgvyk0COEVa2vvjuKVJEAL4meutHuZcvtC8sreMNQIFBNkGh4Q+1I0l7sfhHK+76kf5EMUtVMHn5R4BTJdc9niOeccvAWynJ0UsHqQ0Y4zKje/iMcN8AaM91y4OXfx3RSj+jgLyJ263GN/ncosA2kiCZzt6zvRHADMoY/EQKfxHGy4cb9JrbeDafJ1AG1EkxIGuEaiikekx1ElUPsNci9HdYhVXGxoBHM8GoQGqjeBccwLIfuZtFo9wFT/5EIx5Wov5SYKrwisdUtrY7LeEp7mF8ziNEqRTmkpcTQ+mGa8ebnUylY9Q0dKr5ubcIIARFjrJaAmginQrMlOT8S/GQV7SrDO8InpTSMNcyIjn/2QgFaRtHENro1b2cJGTq3yDgZYT2bTEE8CZwko84wzEOlwCKMmzknDhhdQFTmSUViuwnR6KZb03l3HPkIb5Ye3AbucRI11FI77TtvWTq3eUT1BAmaNSvO0+JdEEMEFokCiaUAIoSCeJ38AG7simhqwlLEiSMz/hdZJeXvScOzCUYa4uNaAeOr5UzPzej6a7tr1nnGzlCzT1sZntmVgCKCOY/w8oFplREEA9vpe4v4wUuAw143/alyj2NnjKc97wEAY5mW+08ZK2Fvw6UjeqQyN0oZOufIBJ0hH8TPrPikD5sKwJoL9l+uywCaA8b0tueKrUybgofbS21X0M91Qq8Hpkjw9hkFtH4t9VSaNU/MJJV55HSWks7AqqKsa2TuIIIFmQ6HOH0ic5TAJI5XGJ7ns5V2oe9BQmavWrm7g7zm4eBQEU1vh5P+K75TM1hVKbOQnL47hbucyXrxtfTBwBXCY4cZCyg7AIIIk2kizDW7ifwoYL5QXazcDibInAB3v+HRZ4kO/SFCQLgkuUORR/cPUO8zgWKBV9nRQK49ToCSBrZrzR08CBCBxkvbiAIdQW/rOHq/jMsJXPOY/2PMqJinPOYjpTuJ+VIIgh3BbwOZK4R/HvSjoFan0O/egn/bcajQMbjQ6tYipSidIUI50tZLKJpSxjT4TjX4jyVOYESlCUA+xkK7+wgjUcTMC3l0IVzuI40kghk79YxWLWR9BPVWlh+k9YC7zCYInbTyrX81LUryGLABp7fp/GrxH3XIaBtJIqOlL4mGH0Y4tRWwcZzRs8xD3KNcNVNOEZHuM0wSolGC7nTOl/MVqzPWD7j3OVokLCnVICuE5yX+tzmHfL0IrGXCwwnR5gPlOZwnehjn0SF9GE+tQWujRnMoeZvMMqy1Yv5FLJP4PiKOUkWvIvLhb0vYKpvMrXoT5rB+k/L/397b0rdfu5JXoCACgrWCg011xjvgXYJtgCFKGnUbqxP+OMf3pUFKb8iD9+F8TpBU0QPkXR35hQxuhChaZjv/TdT5ZcsSDbOTV5R5umPcY8WoUUhViSHqwwSoHyKTdabW96StsqlE2j8rKBsbZJaLJViD+lZXQOmdgbK95BBZ/9WukAbhLoztMjJIDr+dnCHvodl1nOxkusba5VAg3y8eyXtrzbKvpBhTcU9/+QTwIoxQQLF9UfBStFOxxLX60nZ07nrytCI4AiPKEV/sPxpceHMmrXGpTRSRZmq8w6+iaCAB71YVzySwDVBX54WVz3Gg0l/8WYJG1dzLpdrKLx9xoqG2Vor2j7hdDmkhoKUf3GFwE0ZJ01VY4K4H14hc/0aJO0lSRMCKAiC616/UW6dw9nbXiJUgIP18cqED0BvGOZ4ts/AXwvmSvn/2PzvE6yOthJf4pZvIBSjFDMyzlnmWCYrGi7MuHhU8VSsaw1AdxqsPAXBzGV96VgHBkg9vFno/eoIoCLNC5VYjvUBQFH7EShe33WE2XXfpVTkHuD6AnAm7qqQ0QEIC7T2SFupyfXD6ylpZV31NnSFUX8MTjQIB+jcEYKV53UTvEMHS0J4BbL6LTsxzpqWG+S5gQQ/xgxNhtsBHsqXGq2++p1E2cEGrEHpC0/nOPM2dIzJ0RPAH/68EEKhwD2MEhYmqMML0k+0C8s6wWb6BuC7WwvVbTcJVQCKK7IM/SaFQFsN14dyT6iDCvxDyM74g5prRs9AWzx3et3Vklrc+IH6YqtvEffL6+TmR4tARQUxNZVTAgBvKcwnsH5zJO4T4yxyptahF7KFB27AyZf6KZouwLh4iNF6JPt5iTY8bPS6yI7SkgiPPzQTjmfBBDkeMj3aJ0nbfNTz7nFFHJye7QEkCo46bjICWAJlxtYi1tLvAS30d2qgkpZXlYsee8MJJTyQI//hW6wVZHNCQklgBizjEx0yXwQYp/fKEc9GgLINKa6nHhO2uYtgrPHKMySkRJAuuCk4iESwHbBfq67sd69KH0kcQIrBf6L6qX6cmnAUIMAQinfYowNnQBqKz7UpgkmgBgPGNzx4yH3OSDhBOA3WLyI1BKVKUxEf0moqmQLAighOOn4yFYAttUAsnSkb0keZrqVBb8o4yTtbOAknyJZWJGcpEvoBHCMQnN/T0AC+I2JPEMP7qM34/jeQEm4U+BTmXMbt1/TwkQ6UoOTSCGdDC6jL18pe96jEIaoCGCDr3p9N0vbGye5YmmIFGSlA/C+8NMiWgHM5Wyfn349yfy9j2cNrcRZuEciQtN8Rl+fofhw6hI+5E5OT/kmgN08w7me5y9DD37XZidWk+Mi5dK6t2QqOE+aEC5GjA8DE8AynuYGLqY6dWnJaGEmzOARl3J9TT3r+19nnQXaygrg1ZFeHBEBBElk+aTikTpZvKDrJbbZjr7uqqHisykbAQFMVviu+SMAVU2FVAZp0q+pnGU6K66bqzGwdVGsHc4JQABfCnRPhemlqeMwwnqcykrvf7VUd1JW8cxNoyQA79zaIl8RQJabqvk+/mrhKmCTgerTi/YKD/0ocvcPl/Y33xcB6F1Nr1IKx6uKDZd8/fCBQSL2m6RbgUk+CeAAj0iF73yluXqJ9Tj1krbVT3HVNOlVb0RJAB8KyoDkNwKIEeNtYx+1TiHxPHRV7KmjQE9FilB7ArjbqM/LFZqHfZxsPf/PNNxTPyXVA5TyQQAHNdNaY4Xu4YB1ZP4yaVsZStKLWT5zYAJIBsGncwF5G+tYKfj1WpYwwGionhMKewcfJcfl7slbInnyrYoZ1xYjDMuLfMR/pP8VpKXknzskv/9Fa8McAz35XaJb8JM1v5fEWeoQpis0GslKjxUv6kjF/HOWK657h01SfUqLaEQpGfheYG4qkqcJYC1V6C5I45HCg6ygrYFC736WeX4r5KP2rtyJaHckT77LBxWJsYZuxucOUYSHiQngQqpJzr/XeG20R6jYzKJ6W8w30KSrtkOnWvXWTvqPOr5/LxN9tBmYAOYKPqaGeXwNsJcnyWCsIHfMSYxjnnYNs4u2HPD8eot1EGjRPEMAtiuAQewwPvegwuZfTbhukmVYWKnQGngxgZhkhrWlu/9IWopftsvTntjoh4pJPVR28abmWrnvSE3rCAxjAlguUAxcp7nOm+PmjISTwB+053wBfUFt5jJeo4X/WsDGKbS1vIcDyjcbPgr4uBMRNkut0WLMk4YcI5wsZIazx9hv0euf/CBZEF9sdfdLBc63IkwNhV5vEDr6ALyt3RguEKzHD6FtVAQQEzx4c00IwreClzfMyiIfDuZTh5aC9GVJtGaRxt34YXYK9AB22OljcxAE8lZ3WLUz1vJ81dxU3/NLBcmeebfQWKmCbE62i9V/z/C8H6T/2GSM8LsB0J3T2pdDkgEBwBTBMqaDZgF5wKMO6sxP3JXwwtUxXqUS/QWL43TeUCYS+U3wsitJ9655nQB2WrXzsXXPE6WqO69dXrYBm26dHXGd5He75fBMw/OWSf8xdxMrJ81M+JvRfYxnr3Qb0jT8DypLXKeR6dGe38sIxUc1h9t5zsNIJRlKR7rGfV5JCSCBHTzMiwzy7L3SuFOp2BtGR8/9XcWPoRDA8ZE86QmhrAAOCDdOuk3DQknl5Qqkkhn3iyxkuwozLHuVEXhFq1bWGp63NYQRaif94scbbdM28SHXSNt+JyoRekFgMeyluaYSUyW2xsnZNAKZEfgBfCU5p4vnTnQz3ZyAtXZuVliei0UwTuOkvc0WnD1ZGuXuB3InpHM964tYxMefgvuT+wGY2tBLBq7rlKQIDqtk2MZVCq8L05gVKz+ALALworsmJmAZV9CMFYJ/rmYRA6WqkOjws+cX3T28JVjQ2phAVyv+OzmCJ5S3ucailV989b3A+K5Oi3ykS1nth01n9n2B76u+1JdknmKDEY8PpRsfuddFQB0AzBfoSdMYo13Av081uglecArdWUG7PF+1ZrLgzs8JiQCqRHC/VaX/2GQf2Oyr72WGBJAcsLS12Uybmie/p2AKwCzs5xUf7QckAOgv5DO9s8heBpPBaIFFvjRj+Cpgxt2osVqwP7SJWFyv0AKcHfrdnqBITmGzAtjkq/ct0n/ireTFo9BWe3BMHvyaiktdlHZrIifjMVr6z1mSSlq+cVhn/ymfCAJqHmcJ7xuIwW2M4Jm4VMdqdVDewVee+crG7TPGUumK4ZzQ7/U8xX+LLdrxVwptq6EwJkY08yIB3Cz1F9ho6WW6TZqUp124qWazG+26CFIgFuBVLjdKSvQtl9GcJy2dJnMfizxea3YuTV9LBf1SCoWwq4xfkcmwxyq5ecxX71sMhbFoQsYtKQ9+S+0Um6TuIfXRgvsU/qABtgCwmGcFZ6TxkWGl8hivU5k+lhbp3MYawULbjgBkSAs9qEruoP19pEU8D00GZoQS4+hERYmZNFwcy9XR6AAAegsjn9OYpq0VeAg76UslJko+gva+98X1pbbRoPB6EaaHRABwfcgfWHXFRib62fNY6T+7cnwDRyfaJ2hVEqoisGCOgWzFPIHarhgTqUVvwwXtWlownCECd80LWcAoeouSEihQnsE+4r9MsUtAeDZYwmqpu0oLHrDyfVejteK/j0ISZX9XxYu8zCUpU+Frb4/teUz8CyjHJ9x14Kk+DblGkJco+EGphPLOMm0ktec2WyT1LibMCiyb75oZn3kYtQOn8hiqcFgJb91SSFFZL1OiEpM5AvkrOn2pYV2iJEke5x0RG4VNqgOrkRbAEahp5M5P5i56PhyBDmMcT0sarcZchlDCWNE0ngwGCzyb0xnIQoMSzEm0ZQWPRJybwPtxHLBs4V3Ffz1Cu89/K6zr0y3VQsf5uoOqijVf/MiLTZJFrUq85je0S2BfHcLbbIg4eZRiw3APK7jTuGLpNrpRVWhGrMRU3lN6dF/APMaFVlxbDm8Eo22c3GzFlqZ2SJkVCiq1yG9btuZPEGsZ61FWS86rcsSKf0lfmYP9opyhWt4nATRSXlGK5/hWmtrYi59oRhOWCv75Fz8yWLizLMt45obt8iCBN2hnvWUL+5QlQIYEqi53CJ0V+fA3adNM5MRZvkKVZD4d+z1prhZJzqx7xBJAy4Q4P0Ww3hARgL5YZnVm8qZFBr2POJuuAgfUwtzPcm7NUR24F8tpnTA7b0ZgAoCRAj/Iw8J2d+B7LEMfxb9jrLMPJVkm1Mi6B9kWYJmnf5nm5cY8ab3PbxsAgOZhuUInC/bEZjx9PUt41DjibR9DqMjzgv31iYzim398CGWt7hSuIcKAN/5/pXUbq5iu+PfxgMmcknlZYZo8yPM+2rSPLG8t3fh5cwXNk5x5SoJWdYlGNWomuMdiYZmYvQRwprFQZ83VrYxZfSN3UkuYnKkWs5lII8m6IsZEKhlndbF9fq9lY4mPdvor/kthknU5tOzop/AAhFcEMZAmS1bbO5InpPrE88ta6Tu0L5dWmkX0SUB8YRC0P5LWHDdYGyW+tOT16xUx06KCF1kKjyciMQOKSjj7c1aaonyKeb6zA3RWtrtHuRGbHFrZ6ysV+fZFxdoflZ5tO1f2/Dsz/wzaaPz/c8sMWJg/pdc1oHygo5XivauKz1sVBolHb88lawTFw3LezDir8ppF6BWXKER2/EGHf9Yo0RDAI54r/vJpra6qKaI1z5firYum1WeVV6sIYLPFrJrCYmk74gQqNaTnT7fSA6TzR9zH+6yCQHKLAK61qtZkhwKs9VVjKAABeHPODOVERms+xBjbeNBKE1qWlzV1YJ+Mi4iKggCSWCnIZuQXz2re0FKFJV0sdkM1La7TWPTVlYHmGJtzByla6SS5Zl4oa49hgusX0kW4gcktApgSsPKSGgOlra9VjF8AAvB+NPcCcA6fa2fslZaeb62lFPCeJyg3CgKoZ/FBmyhmVmnezy66GidNrcX32vd9rfVYxh/DjVY7HZQFvmUU1EpRaMvUZt5O+n2MyTMEcKKk2GyMPaHkhayomCYbRkEAMz2XtM0mYP/TfpQzFSEr8eLSh93CFpZzpeD8KAjgPcHHeVKAwaqnXNMcWgdcp515z+Al7Yorpil1ZUIAMV7Xrtq6Ku/kOel1hfhJetVebjdSO+6VFl6tmGcI4AFFrcpw8KW0h1eiIIBvPJdkz7VblL6aUsox9mkrBCTTIW5vl30H3kUyXOETQG0hfQVDHyPF5hoe4Rzh7HsibfjIQPhjLDOIWjQpD75QYWM4VdPCPqUi6ibltc8r7RAleE5x7YQ8pAP4QXpNWGG7tytWlOmJIIAbPJ/F69qZbhOdpYvdOsyX8PoIxUcRNgEk8YngHoKWYEziLYvMtjMYyoN05na68SiTWGywgsg6tiirzNoQQIwYH9Iix6dUkEsYLQnqOXwM07yLOZpneEjo6l2WHmxUXLdbkl83NwigtkLQwkqGV5wd0l7uCJ8APlVsAbI/+JcGc9QVgsEdL/nIP9WY38ImAFHU4+8hDFoqCyKPBtsreLNBCCCrzflM4QWGMo45gvLvIpLXBRVV0Np6DrKAAXTmGhpyNR14hi/Yr7nmP3nICiBfpwwJ0TQ/QWGCD50A3vVc0lWyjL+N9dqP5J1si8RjeETCZT8b+DWFSwCnsElwHz1DGa50vo5Y/E2zI0yO9D7+bXAHt4Xe6+dSDUriCaAIf0mvqBUiATRUvI/KwQjAuw/1pn4Uu5ocZBQVeUqTJOQaFjOANJK4iWX0EeSL28FDnGVdMy4YCjNJoKX4U2NVN8UWGitKaQbFXppHVx/GalYyqfM7iqGh9rpJWNU5t3CNNDh+saB6pn/MVOR8viVY014CWOX5RZ4ldysPUI0PlD2k8CDL+YqJgnShMSaQwWMRldKW701HCrP1DchR4CoIBTQyyKXsBxu4PICnQnhYwJ2GZ94rqDzpF9toIvg+cw9yd9yxofZzkPEKW0nI1Ti9utsNWt+tK1jqYzH3lVXSzPC2AIMk+Y4Kh0wz3Y20+TbHQosITNUWYKPWkqPz9zjR4i4K8nIoT7+Ty5T9JHoLUFaqrdgXyJgsQjmFevjKcHUA1QUX6UsxFuJeNlsM5u+0tXIJPSvO3OKfAJIl/nr7I8no2lSRxsv22M9/rRNuywhgAY0kPhgmx2Lryj8FGBL4+X/ThjAnmgB6Sc/+IIJvaba0tzfDJYAUwezQ1egWj2ekVoObZcYZYBXNXIJn2RdKTsBUJknu6b8RLRKLMtDoneiOH3wRlJwAoLGRpt97zDBOChePm9kW4PlnCUOOcpcAlknPbh7Bl9RO4TR/fJgEANONKs+KUYNZmqF8m/JWc0cngU3YHwFUY4nknr6NtM5MVcYH2gys5naf+zwVAUAVA2fjnPaHBwMk9jyZt309/1Z6Gj1/YgngEoV/QxRfUzEFgd4TLgF0EzjIVrC41RtZLen8R0HxMRXqS/ys7AkghX7skTrkRB9tXoPXtG414l3/rQFSiqkJAArTxygq81B8Rkbg99CIzywpZ5hxoZbEEsCL0nNHRPQNjZX2+G24BCAK5RxkdavH0NvzYW1U+AaKUF7hU/eFFQEUpD1rFO6sdROkM06nI5/n2MzEFLFezwTMJKQnAIDSDFb63WUtMl/lotDeQx3GGm0/ltHLStuQSAJQzccXRPT9XKZ4VzX8EoBYEbfE416wlQqWNWVP5gla/N3+fp7nEf4yvjaVntyrSAf+Cq0ka49JnieZwJ2Kz2g/LT3XRIviXEZ9alJZOLPtZgVLmM1MVoTQ12SJP/q3OeoZpnAll9OA8p7v4Re+YCpTLUu5mEwRDajLpVQVLJfX8Q3fMMOy2hGcLq3q+IlhubIC0mS3P+WwxKdLU6TGBBmSwrIr1ZcqzpfnSM1eQ5p2f2e8t4u4wQcEM/6TPsobVqU5ZfiZV6WJokWP2ZoBmnTgTSU1ZjooCivnDfGP/4jKcRxpFCOFbWwjk9/4RZFeNDoCODyvZVCaVNLZynY2sjTy+jtJnEw5SlCMomxmM5tZxx845DJEMc67QtgB6nG+IpHEoWOk9Or7rfaXuzxhTkcaTLYADg7CRbYog0y0pZ3KSAOFsiey6qzwHxhhIf5rrQqdOQJwOKpQUais6hZZf0XoyXatK8xITY6VmRYhJaWPglF0BODgG2OEItgokr5M8gTP0urEk4URfqIilfcbZ8NzBOBwlOJ0od16k6CQRjBUN5i3V8dlJZKhlpH4f2zl0+AIwOGohdjXeX2IJR5L8ZzWUTaT3oaeVd21wj83ohWMIwCHIxCFWSTxnLs4hNYLcY8incKhfDGvcLJxi98p9QcfGmbRcQTg4PA3akrcV3cHTUNAY6lf/uHjGyvvs6qKQJoelD0qx88RgENAdJKKlf96d2dqymhllbxoZ2l0HCloZRwtQ4/MdgTgcFRhrKJw1x3WUWrHMUgalHN4ffEEaZbtniyIb//6qB87RwAOIezVpyuEdQm3GBcEO4H+BjHh70o9ulV4QdDSXY4AHAE4BEdx5mry2w/mIuWCvSjNeFM788dY5FNLX1sQb79Dm7TaEYCDgxHSFAmJDu/a36IbTalCSZKBwpSmKs3pzwyjSPhN3O0z7UVhvrUuWuEIwMHBAkUtKt7YH/sYHmC+HiJssZwbNEcADuEhib7Ghavsjo8DeRfeLLyr592AOQJwCBsN+TVk4f+FNoHuqJ4wu+22oyLUxxGAQ8JRitdCE/7t9FBk/THBZZLUUve5gXIE4BAV6vFjCOL/sibrjx7XSpSLXxwlsX4ODrmEZFqwOCABzA5EAAXoL0m1nWlQxsTBwSEwCTRlsnGOW7Enod+UXGdKqw8cjKQog4ODgxCluYNpAcpMvScpbyxHKn0VfgVPuCFxcEg0UriYBxjHl6yPM8plspJpPEl3hcjuZzw1DfspwUNsUNDJhIizFjo4OGiRTjnKUiKulGVTzSrhS+5R1udJ4xre0LTxXoAaOg4ORyWSEtZTM97UFuBewTwW8jNr2cJOilKcEmSQwfmcp3UTfp027HUD6uCQV1FXuXwPdgx1i38Hh7yOU5gfgfDv5lb3ah0c8gNSGR1yRMFiSZkrBweHPImGBlUATItHDzBOR+Lg4JBHUMwoN5DumJKQaoUODg4RoBRPssOn6B/kfS5xr9DBIX+jBHcJs/mojg0Moap7dQ4ORwpq8DCfCQqS5zxWMZwrtb4EDg4OxkjKM3eSyoVUphIZlKEYqaSziz1sZh1rWMUCFvCrGy4Hh3DxfzrOdawTv4qaAAAAJXRFWHRkYXRlOmNyZWF0ZQAyMDIzLTA3LTMxVDA2OjU2OjE5KzAwOjAwB7bMeQAAACV0RVh0ZGF0ZTptb2RpZnkAMjAyMy0wNy0zMVQwNjo1NjoxOSswMDowMHbrdMUAAAAASUVORK5CYII=;" vertex="1" parent="1">
          <mxGeometry x="981.33" y="718.5" width="77.34" height="21" as="geometry" />
        </mxCell>
        <mxCell id="wh0QruQdLsagStX_qxeE-13" value="" style="endArrow=none;html=1;rounded=0;entryX=0;entryY=1;entryDx=0;entryDy=0;endFill=0;edgeStyle=elbowEdgeStyle;exitX=1;exitY=0.75;exitDx=0;exitDy=0;" edge="1" parent="1" source="uI3OphNUKf_lqw-jZ9q1-18" target="wh0QruQdLsagStX_qxeE-9">
          <mxGeometry width="50" height="50" relative="1" as="geometry">
            <mxPoint x="610" y="968" as="sourcePoint" />
            <mxPoint x="970" y="969" as="targetPoint" />
            <Array as="points">
              <mxPoint x="650" y="750" />
            </Array>
          </mxGeometry>
        </mxCell>
        <mxCell id="wh0QruQdLsagStX_qxeE-15" value="" style="endArrow=none;html=1;rounded=0;entryX=0;entryY=0.75;entryDx=0;entryDy=0;endFill=0;edgeStyle=elbowEdgeStyle;exitX=1;exitY=0.75;exitDx=0;exitDy=0;jumpStyle=arc;" edge="1" parent="1" source="uI3OphNUKf_lqw-jZ9q1-29" target="wh0QruQdLsagStX_qxeE-8">
          <mxGeometry width="50" height="50" relative="1" as="geometry">
            <mxPoint x="610" y="798" as="sourcePoint" />
            <mxPoint x="970" y="729" as="targetPoint" />
            <Array as="points">
              <mxPoint x="880" y="870" />
            </Array>
          </mxGeometry>
        </mxCell>
      </root>
    </mxGraphModel>
  </diagram>
</mxfile>
